<svg id="Layer_1" data-name="Layer 1" xmlns="http://www.w3.org/2000/svg" viewBox="0 0 363.01 227.77"><defs><style>.cls-1{fill:#fff;}.cls-2{fill:#e62f3c;}.cls-3{fill:none;stroke:#e62f3c;stroke-linecap:round;stroke-linejoin:round;stroke-width:0;}</style></defs><title>Artboard 1</title><path class="cls-1" d="M105.61,27.92a10.11,10.11,0,0,1-6.9-2.8,10.79,10.79,0,0,1-2.83-4.67,3.1,3.1,0,0,0-.45,0q-2.16,0-1.94,2.48l-.43.54q-3.13.32-3.13,2.26A4.92,4.92,0,0,0,91,28.5l-.54.43q-2.16.54-2.16,2.16a4.62,4.62,0,0,0,1.83,3.45,7.36,7.36,0,0,0,3.67,1.83l.11-.21.22.21h.22a10.16,10.16,0,0,0,5.61,2q1.72,0,5.82-1.83l3.5-1.4a6.13,6.13,0,0,1,2-.54,9.46,9.46,0,0,1,6.36,2.69L118,37h.54a5.26,5.26,0,0,0,3.23-.65q1.94-.65,1.94-2.16t-1.08-1.62a2.87,2.87,0,0,0-1.29.54,7.73,7.73,0,0,0,.65-2.8,4.19,4.19,0,0,0-1.24-2.86,3.9,3.9,0,0,0-3-1.35.62.62,0,0,0-.43.11l-.86.75v-.43a4.6,4.6,0,0,0-1.36-3.65,8.69,8.69,0,0,1-1.88,2.32A11.12,11.12,0,0,1,105.61,27.92Z"/><path class="cls-1" d="M101.35,129.66a2.56,2.56,0,0,0-1.29.22,3.24,3.24,0,0,0,1.19-1.94,3.94,3.94,0,0,0-.7-2,2,2,0,0,0-1.67-1.13l-.11.11V125l-.22.11-.86.86a3,3,0,0,0,.32-.86h-.11a2,2,0,0,0,.43-1.29q0-1.72-2.16-1.72-1.83,0-2.16,1.4l-.75.65q-.32-1.83-1.4-1.83-2.16,0-2.16,2.7l-.54.54q-1.08-2.69-2.37-2.69-1.62,0-1.62,2.91a6.71,6.71,0,0,0,.05.86c0,.29.09.61.16,1L85,128q-3.45,0-3.45,2.8a2.86,2.86,0,0,0,1.19,2.26q3.34-2.59,6-2.59,1.62,0,3,2t2.37,1.94,5.93-1.29l.65-.54.54-.22a3.26,3.26,0,0,0,.54-1.94,2.25,2.25,0,0,0-.11-.86Z"/><path class="cls-1" d="M110,81.43a7.8,7.8,0,0,0-.65-1l-1-1.35-.54-.11q-1.4,2.05-1.62,2-.43,0-1.73-1.94-.54.54-.65.54-.76,0-1.4-1.29L102,81.43l3.77,1.08Z"/><path class="cls-1" d="M103.19,78.09a1.73,1.73,0,0,0,.86.75v-.11l.54-.54a4,4,0,0,0,.59.86q.38.43.81,1l.54.11q1.19-2,1.62-2t1.51,1.83q-.76-4.85-1.73-12t-2.16-16.71l-2.91,25.66a1.9,1.9,0,0,0,.11.7C103,77.79,103.12,77.95,103.19,78.09Z"/><path class="cls-1" d="M100.75,9.38c.36,0,.92,0,1.67.11s1.31.11,1.67.11A4.73,4.73,0,0,0,107,8.52a4.38,4.38,0,0,1,2.59-1.08q1.18,0,3.77,3a14.09,14.09,0,0,1,2.16,3.23q.65-3.56.65-3.45a2.19,2.19,0,0,0-.65-1.62,3.76,3.76,0,0,1-.81-1.94A6.18,6.18,0,0,0,114.23,5h-.49a5.16,5.16,0,0,1-.75-.05,1.37,1.37,0,0,1-.7-.32.82.82,0,0,1-.22-.3c0,.15,0,.09-.07-.2a1.24,1.24,0,0,1,0-.31l0,.31a1.17,1.17,0,0,0,.07.2V2A3.56,3.56,0,0,0,111.86,1,1.91,1.91,0,0,0,111,.75a3.24,3.24,0,0,0-2,.81,3,3,0,0,1-1.56.81,3.54,3.54,0,0,1-.7-.11,4,4,0,0,0-.81-.11l-.22.11q-1.29,1.3-1.62,1.29c-.14,0-.48-.3-1-.92s-1-.92-1.35-.92q-1.29,0-1.72,1.94a2.9,2.9,0,0,1-2.59,2.59q-.22,1.19-.49,2.43t-2,1.67a.44.44,0,0,0-.11.32A4,4,0,0,0,95,11.81a4,4,0,0,1,.22,1,1.57,1.57,0,0,1-.32.81,1.57,1.57,0,0,0-.32.81,4.7,4.7,0,0,0,.86,2A9.09,9.09,0,0,1,97,11.86Q98.6,9.38,100.75,9.38Z"/><path class="cls-1" d="M127.54,171.92q-1,1.3-1.62,1.29-1.29,0-1.29-1.4c0-.14.16-.39.48-.75a1.52,1.52,0,0,0,.49-.86,4.11,4.11,0,0,0-1-1.51,10.94,10.94,0,0,0-1.62,5.17q0,4.42,1.83,4.74,1-3.88,3-4.1,1,0,1.73-3.88h-.43Q128.3,170.63,127.54,171.92Z"/><path class="cls-1" d="M124.31,133l.54-.43a6.49,6.49,0,0,1,1,.11,6.43,6.43,0,0,0,1,.11h.54a3.86,3.86,0,0,0,.11-1.08q0-3.13-1.73-2.91v-.86q0-2.26-2.15-2.27h-.43a3.75,3.75,0,0,1-.38.76,4.45,4.45,0,0,1-.92,1,5,5,0,0,1,.65-1.94,5.79,5.79,0,0,0-2.16-3.34q-1.94-1.94-3.45-1.94h-.21v.11l-.54.65a1.82,1.82,0,0,0-1.51-1.08,1,1,0,0,0-.75.32,1.09,1.09,0,0,0-.32,1.19l-.43.54a.87.87,0,0,0-.54-.11,1.93,1.93,0,0,0-1.19.32.62.62,0,0,0-.11.43.73.73,0,0,0,.21.54l-.43.54c-.65.29-1,.68-1,1.19a5.8,5.8,0,0,0,.75,2.16l-.54.43q-4.31,0-4.31,3.45a3.63,3.63,0,0,0,.65,2,13,13,0,0,1,5.71-1.83q1.08,0,2.91,1.83c1.22,1.22,2.08,1.83,2.59,1.83a22.6,22.6,0,0,0,2-1,9.4,9.4,0,0,1,3.56-.86A2.25,2.25,0,0,1,124.31,133Z"/><path class="cls-1" d="M154.83,64.29l.11-.22a.87.87,0,0,0-.11-.54Z"/><path class="cls-1" d="M76.44,154a5.93,5.93,0,0,0,.21-1.29q0-3.23-1.73-3.23-.54,0-1,.75c-.58-1.08-1.15-1.62-1.73-1.62a4.58,4.58,0,0,0-.75.21,2.26,2.26,0,0,1-1,1.19q-.65-2.69-2.48-2.69t-2.15,2l-.54.54c-.93-.29-1.44-.43-1.51-.43h-.11a.46.46,0,0,0-.22.05.47.47,0,0,1-.22.05l-.54,1.51a1.13,1.13,0,0,1-1.08.86,1.42,1.42,0,0,1-.65-.27,1.46,1.46,0,0,0-.65-.27,1.6,1.6,0,0,0-1.08,1.62,1.79,1.79,0,0,0,.65,1.19,1.8,1.8,0,0,1,.65,1.19,2,2,0,0,1-.65,1.13,2.71,2.71,0,0,0-.75,1.35,12.35,12.35,0,0,0,5.61,1.73,4.1,4.1,0,0,0,3.45-2q1.83-2.16,2.91-2.16a9,9,0,0,1,5.39,2.26c.07-.07.12-.11.16-.11s.09,0,.16-.11a4,4,0,0,0,.86-2.37,1.31,1.31,0,0,0-.32-1A2.66,2.66,0,0,0,76.44,154Z"/><path class="cls-1" d="M151.49,50.92q0-2-1.62-2a2.86,2.86,0,0,0-1.29.32,3.79,3.79,0,0,1-.86,1.19q-2.16-4.1-3.77-4.1a2.29,2.29,0,0,0-2,1.29q-1.29,1.94-1.51,2.16-.32-.86-.86-.86a.44.44,0,0,0-.32.11,5.84,5.84,0,0,0-.86,3.13l-.43.54a3.48,3.48,0,0,0-1-.22,1.58,1.58,0,0,0-1,.32,2.4,2.4,0,0,0-.22,1.08,3,3,0,0,0,1.4,2.37A16.35,16.35,0,0,1,142.54,55,5.13,5.13,0,0,1,146,56.85q1.51,1.83,2.48,1.83l2.26-1a12.41,12.41,0,0,1,2-.75,11.24,11.24,0,0,0,1.4-.43,3.81,3.81,0,0,0,.11-1.08,7.15,7.15,0,0,0-.65-2.8Q152.68,50.92,151.49,50.92Z"/><path class="cls-1" d="M148.24,155.64a5.73,5.73,0,0,1,2.8.86,7.41,7.41,0,0,1-.32-3,3.81,3.81,0,0,0-.21-1.19l-.22-.11a1.19,1.19,0,0,0-.75.43l-1-1.29a1.5,1.5,0,0,0-1.19-.75,1.73,1.73,0,0,0-1.19.75q-.65.75-.86.75t-.81-.65a1.63,1.63,0,0,0-1.13-.65L143,151q-1.73,2.05-2,2t-.75-.54a1.56,1.56,0,0,0-1.08-.54.31.31,0,0,1-.21.11.84.84,0,0,0-.32.11,60.74,60.74,0,0,1-5,5.82,25.24,25.24,0,0,0,3.23,1.19,10.28,10.28,0,0,0,2.8.43,9.19,9.19,0,0,0,5.07-1.94Q147.6,155.65,148.24,155.64Z"/><path class="cls-1" d="M193.54,67.42a3.88,3.88,0,0,0-3.34,1.94,7.37,7.37,0,0,0-1.08,4v1.08h8.73v-1a7.55,7.55,0,0,0-1.08-3.88A3.76,3.76,0,0,0,193.54,67.42Z"/><path class="cls-1" d="M241.73,56.42a4.91,4.91,0,0,1,.92-.11h.92a12.57,12.57,0,0,1,3.23.54c-.15-.22-.38-.52-.7-.92a13.92,13.92,0,0,1-1-1.46,6.8,6.8,0,0,1-1.94.43,1.68,1.68,0,0,1-1.4-.54Z"/><path class="cls-1" d="M223.62,56.31v-2.8q-.65,1.4-1.29,1.4a6.36,6.36,0,0,1-1.08-.21,11,11,0,0,1-1.72.65v1.19a.44.44,0,0,1-.11.32A7.71,7.71,0,0,1,223.62,56.31Z"/><path class="cls-1" d="M229.11,40q1.72,0,3.56,2.16,1.83,1.94,2.8,1.94a19.68,19.68,0,0,0,2.37-.75q1.29-.43,2.21-.7t1.46-.49l.11-.11h.86a5,5,0,0,0,.32-1.94,4.73,4.73,0,0,0-.65-2.8l-.11-.11-.65.65v-.32a4.76,4.76,0,0,0-.92-2.8,2.84,2.84,0,0,0-2.43-1.29h-.75a3.49,3.49,0,0,0-.22.86l-.43.43-.32-.32a1.51,1.51,0,0,0,.11-.65q0-2.26-1.62-2.26a2.08,2.08,0,0,0-1.51.86q-.54-3.23-2.16-3.23-2.26,0-3.77,3.13l-.43.43a6.19,6.19,0,0,0-2.7-.75,1.48,1.48,0,0,0-1.08.32,2.21,2.21,0,0,0-.11,1.83l-.54.43a3.53,3.53,0,0,0-1.08.22,8.31,8.31,0,0,0-.22,2.69A2.28,2.28,0,0,1,220.7,39a2,2,0,0,0-.54,1.29q0,1.83,3.45,1.94A10.14,10.14,0,0,1,229.11,40Z"/><path class="cls-1" d="M258.44,90.49Q262.64,94,263.72,94a2.92,2.92,0,0,0,2.48-1.4,5.14,5.14,0,0,0,.86-2.91q-2.91,2.8-4,2.8A10.9,10.9,0,0,0,258.44,90.49Z"/><path class="cls-1" d="M256.71,59.44a2.59,2.59,0,0,1,1.51-.54,9.82,9.82,0,0,1,2.32.38,9.58,9.58,0,0,0,2.1.38q1.62,0,4-2.91t4.21-2.91a5.57,5.57,0,0,1,3.45,1.73c.72.58,1.31,1.06,1.78,1.46a4.69,4.69,0,0,0,1.24.81q1.18.22,3.07.65t4.37,1.08q-.43-7-1.83-7a.63.63,0,0,0-.43.11,4,4,0,0,1-.75,1Q280.43,50,279.57,50a3,3,0,0,0-1.83,1,11.29,11.29,0,0,0-.65-1,4.17,4.17,0,0,1-.54-1q-1-1.4-1.62-1.4h-.22l-.22.54-.76.75q-.43-3.88-3-3.88a.1.1,0,0,1-.11.11h-.43a3.88,3.88,0,0,0-.43,1.94l-.43.54q-2.7-1-4.26-1.4a10,10,0,0,0-2.1-.43,2.68,2.68,0,0,0-1.19.22,1,1,0,0,0-.22.75,4.61,4.61,0,0,0,.11.86,5.92,5.92,0,0,0,.32,1.08l-.43.43a4.43,4.43,0,0,0-2.16.43,4.43,4.43,0,0,0-.27,1.35,2.72,2.72,0,0,1-.92,1.67,10.17,10.17,0,0,1-2.59,1.08,3.67,3.67,0,0,0-.22,1.51l-.43.54h-1.51A2.16,2.16,0,0,0,252,56a.62.62,0,0,0-.11.43,1.72,1.72,0,0,0,.49.92,1.86,1.86,0,0,1,.49.81q0,.43-1.73,1.19a2.37,2.37,0,0,0-.54,1.29,2.9,2.9,0,0,0,.22.92,3,3,0,0,1,.22.92,2.49,2.49,0,0,1-.49.7A1.94,1.94,0,0,0,250,64.4,10.33,10.33,0,0,0,251.11,67,14.25,14.25,0,0,1,256.71,59.44Z"/><path class="cls-1" d="M59.19,186.59q-3,3.34-3.77,3.34a2.06,2.06,0,0,1-1.29-.75l-.87-.27a4.63,4.63,0,0,1-1.19-.59v-1.72a1.65,1.65,0,0,0-.22-.65v2.59q0,4.42,5.51,4.42a2.4,2.4,0,0,0,1.73-1,2.85,2.85,0,0,0,.86-1.83,6.6,6.6,0,0,0-.38-1.72A6.51,6.51,0,0,1,59.19,186.59Z"/><path class="cls-1" d="M52.75,157a5,5,0,0,0-.43-.65Q52,156,51.24,155.1c-.15-.29-.29-.61-.43-1a13,13,0,0,1-.43-1.29.63.63,0,0,0-.43-.11,1.42,1.42,0,0,0-.86.32l-.32-.65-.54.11a27.76,27.76,0,0,1-1.83,2.59h-.11q-.65,0-2.16-3.13T42,148.85h-.11a.22.22,0,0,0-.16.05.22.22,0,0,1-.16.05,1.7,1.7,0,0,0-.32.43A3.29,3.29,0,0,0,41,150l-.65.54Q39.7,149,38.51,149a1.46,1.46,0,0,0-.87.32,10.07,10.07,0,0,0-.22,3.13,4.42,4.42,0,0,1-.22,1.4l-.43.43a2.9,2.9,0,0,0-.87-.11q-.11.65-.27,1.45a10.68,10.68,0,0,1-.49,1.67A9.81,9.81,0,0,1,40,155.75a3.49,3.49,0,0,1,3,1.94q1.3,1.94,1.94,1.94c-.15,0,.3-.14,1.35-.43s2.68-.72,4.91-1.29l.43-.43a2,2,0,0,1,.49-.16A1.7,1.7,0,0,0,52.75,157Z"/><path class="cls-1" d="M28.36,130.63q-.65-2.48-1.94-2.48a3.39,3.39,0,0,0-1.62.75,3.79,3.79,0,0,0,.11-1.08q0-3.45-3.34-3.45-2.16,0-4.42,2.37-.22-3.12-2.16-3.13-1.51,0-1.51,1.94l-.54.43h-.32a3.54,3.54,0,0,0-2.32,1,2.82,2.82,0,0,0-1.13,2.16,2.46,2.46,0,0,0,.54,1.4l-.43.43q-2.48.54-2.48,2.26a6.88,6.88,0,0,0,1.29,3.45,22.82,22.82,0,0,1,1.24,2.43c.25.61.45,1.06.59,1.35q1.29-5.5,4.1-5.5a6.17,6.17,0,0,1,2.32.65,6.15,6.15,0,0,0,2.32.65q.86,0,2.16-1.51a3.56,3.56,0,0,1,2.69-1.62q1.4,0,3.56,2.16a4.72,4.72,0,0,1,1.29,1.4,6,6,0,0,0,.54-2.7A12,12,0,0,0,28.36,130.63Z"/><path class="cls-1" d="M180.71,60.85q3-.32,4.1-1.6,4.85-5.46,8.19-5.46,2,0,4.42,3A8.76,8.76,0,0,0,199.63,59a3.61,3.61,0,0,0,1.89.64,6.72,6.72,0,0,1,1.08-.11h.54a9.42,9.42,0,0,1,7.65,3.75.42.42,0,0,1,.43-.32,4.83,4.83,0,0,0,1-3.32,4.14,4.14,0,0,0-.32-1.82h-.32a1.35,1.35,0,0,0-1,.43,9,9,0,0,0,.22-1.6Q210.79,53,209,53a3,3,0,0,0-1.83,1,10.82,10.82,0,0,0-.75-4q-1-2.46-2.59-2.46a9.36,9.36,0,0,0-1.94,1.5q-.54-5.18-3.88-5.17a1.94,1.94,0,0,0-1.19.32,3.1,3.1,0,0,1-2.26,1q-.76.11-1.29.22a1.47,1.47,0,0,0-.75.32l-.16.32a.73.73,0,0,0-.05.32l-.54.54-2.26-1.62a5.16,5.16,0,0,0-2.69-1,2.32,2.32,0,0,0-2.26,1.29,15.46,15.46,0,0,1-1.19,2.27,1.9,1.9,0,0,1-1.08.43q-.76.11-1.56.16c-.54,0-1,.09-1.51.16a1.8,1.8,0,0,0-1,.43,6,6,0,0,0-.32,1.07,6.06,6.06,0,0,1-.32,1.07q-.11.43-2.48.43h-.11a.22.22,0,0,0-.16.05.44.44,0,0,1-.27.05,1.59,1.59,0,0,0-.43,1.18,2.86,2.86,0,0,0,.27,1.07,14.09,14.09,0,0,0,.65,1.34c.25.47.47.91.65,1.34a2.93,2.93,0,0,1,.27,1.07q0,.54-1,1.61a3,3,0,0,0-1,1.71q0,1.18,2.7,1.5Q177.36,61.39,180.71,60.85Z"/><path class="cls-1" d="M160.55,57.39a5.59,5.59,0,0,1,1.46.27,5.43,5.43,0,0,0,1.46.27,5.7,5.7,0,0,0,1.83-.54,20.74,20.74,0,0,1,2-1.08q-1.08-2-4.21-2a2.7,2.7,0,0,0-1.4.32,1.88,1.88,0,0,1-.75.32,2.09,2.09,0,0,1-.38-.05,2.43,2.43,0,0,0-.49-.05h0a6.13,6.13,0,0,1,0,1.08q0,.65-.86,1l-.75.21-.65.22a9.81,9.81,0,0,0-.43,1,9.15,9.15,0,0,1-.65,1.35q-1.4,1.4-1.4,1.94a5.84,5.84,0,0,0,.22,1.19Q158.5,57.39,160.55,57.39Z"/><path class="cls-1" d="M191.06,91.68a2.94,2.94,0,0,0,2.48.86q4.2,0,5.5-1.83a6.74,6.74,0,0,0,4.1,1.19,3.71,3.71,0,0,0,2.69-1.4A9.52,9.52,0,0,1,208,88.33a3.86,3.86,0,0,0-1.08-.11,3.09,3.09,0,0,0-2,.65,2.64,2.64,0,0,1-1.67.65,6.81,6.81,0,0,1-1.94-.43,7,7,0,0,0-2-.43,3,3,0,0,0-1.72.59,2.84,2.84,0,0,1-1.19.59q-.54,0-1.51-1.08h-.32A8,8,0,0,0,190,90C190.55,91.1,190.91,91.68,191.06,91.68Z"/><path class="cls-1" d="M360.8,185.76a6.11,6.11,0,0,0-.49-1.73h-.49a5.17,5.17,0,0,1-.75-.05,1.37,1.37,0,0,1-.7-.32.81.81,0,0,1-.22-.3c0,.15,0,.09-.07-.2a1.24,1.24,0,0,1,0-.31l0,.31a1.16,1.16,0,0,0,.07.2v-2.23a3.59,3.59,0,0,0-.21-1.08,1.92,1.92,0,0,0-.86-.22,3.24,3.24,0,0,0-2,.81,3,3,0,0,1-1.56.81,3.53,3.53,0,0,1-.7-.11,4,4,0,0,0-.81-.11l-.22.11q-1.29,1.3-1.62,1.29c-.14,0-.48-.3-1-.92s-1-.92-1.35-.92q-1.29,0-1.73,1.94a2.9,2.9,0,0,1-2.59,2.59q-.22,1.19-.49,2.43t-2,1.67a.44.44,0,0,0-.11.32,4,4,0,0,0,.22,1.13,4,4,0,0,1,.21,1,1.57,1.57,0,0,1-.32.81,1.58,1.58,0,0,0-.32.81,4.69,4.69,0,0,0,.86,2,9.07,9.07,0,0,1,1.51-4.63q1.62-2.48,3.77-2.48c.36,0,.92,0,1.67.11s1.31.11,1.67.11a4.73,4.73,0,0,0,2.91-1.08,4.38,4.38,0,0,1,2.59-1.08q1.18,0,3.77,3a14.09,14.09,0,0,1,2.16,3.23q.65-3.56.65-3.45a2.2,2.2,0,0,0-.65-1.62A3.76,3.76,0,0,1,360.8,185.76Z"/><path class="cls-1" d="M248.83,157.58l-.32-.21a1.06,1.06,0,0,0,.21-.76,5.15,5.15,0,0,0-1-2.86,3,3,0,0,0-2.15-1.56l.21-.21a2.58,2.58,0,0,0,.86-1.83q0-1.83-1.94-1.83a2.58,2.58,0,0,0-2.16,1.19q-1.19,2.16-1.51,2.16-.65-2.37-1.4-2.37a24.54,24.54,0,0,0-2.26,1.94q-.54-1.73-1.62-1.73-1.62,0-1.62,1.73a11.31,11.31,0,0,0,.11,1.29,11.83,11.83,0,0,1,.11,1.4l-.43.43a6,6,0,0,0-2.27-1.19h-.21a12.17,12.17,0,0,1-.65,2l-.54.54a2.54,2.54,0,0,0-1-.43v.54a2.35,2.35,0,0,0,1.19,1.83l-.13.13a7.27,7.27,0,0,0,1.69.2h2.1a13.34,13.34,0,0,0,5.17-1.08,17.59,17.59,0,0,1,3.34-1.29q1.51,0,6.36,3.23a4.37,4.37,0,0,0-.05-.81A2,2,0,0,0,248.83,157.58Z"/><path class="cls-1" d="M323.65,162.54a4.58,4.58,0,0,0-.21-.75,2,2,0,0,0-1.4.11,9.64,9.64,0,0,0,1.51-3.88q0-1-1.62-1.51t-1.72-1a4.47,4.47,0,0,1,.49-1.62,4.54,4.54,0,0,0,.48-1.73,3.32,3.32,0,0,0-.11-1h-.54a.31.31,0,0,1-.22-.11,3,3,0,0,0-1.94,1.08v-.65q0-2.7-1.73-3l-.11.75-.43.43q-1.08-1.4-1.94-1.4c-.43,0-.68.07-.75.21a3.33,3.33,0,0,0-.65,2l-.43.54a3.65,3.65,0,0,0-2.48-1.29,1.74,1.74,0,0,0-1.08.32l-.11.11q-.11.32-.32,1.19l-.54.54a4,4,0,0,0-1.83-1h-.11a.23.23,0,0,0-.16.05.22.22,0,0,1-.16.05,2,2,0,0,0-.65,1.4,1.7,1.7,0,0,0,.05.43,1.58,1.58,0,0,1,.05.32q0,.65-2.48.86l-.43.11a1.2,1.2,0,0,0-.11.54v.11a5.72,5.72,0,0,0,.49,1.78,6.44,6.44,0,0,1,.47,1.72,1.58,1.58,0,0,1,.77-.27,3.29,3.29,0,0,1,1.51.59,3.25,3.25,0,0,0,1.51.59q.65,0,1.83-1.29a3.6,3.6,0,0,1,3.13-1.51,3.8,3.8,0,0,1,3.56,1.62,18.83,18.83,0,0,0,2,3,2.82,2.82,0,0,1,.75.43l1,.54c.39.21.88.47,1.46.75a5.55,5.55,0,0,1,2.21,2.27,6.93,6.93,0,0,0,.54-.87A3.82,3.82,0,0,0,323.65,162.54Z"/><path class="cls-1" d="M347.41,100.84q1.51,0,3.34,3.13t4,3a8.89,8.89,0,0,0,2.59-.43,23.29,23.29,0,0,0,3-1.19,5.8,5.8,0,0,0-.54-2.91h-.22a7.71,7.71,0,0,0-1.51.54,4.26,4.26,0,0,0,1.29-3.13,3.6,3.6,0,0,0-.22-1.08,1,1,0,0,0-.75.11,5.78,5.78,0,0,0-.54-2.37.44.44,0,0,0-.32-.11,3.37,3.37,0,0,0-1.29.32q1.29-1.3,1.29-2c0-1.36-.47-2-1.4-2l-.22.11-1,.86a8.08,8.08,0,0,0,.11-1.51q0-3.23-1.08-3.23a1.24,1.24,0,0,0-.86.43,3.15,3.15,0,0,0-1.29-2.37h-.11a3,3,0,0,1-.92-.32,2.85,2.85,0,0,0-1-.32c-.79,0-1.19.32-1.19,1a2.46,2.46,0,0,0,.27.92,2.52,2.52,0,0,1,.27.81q0,.76-2.37,2.48t-2.26,3.23l-.43.54-.65.32v1.19a1.4,1.4,0,0,1-.75,1.29,11,11,0,0,1-1.62.75,8.27,8.27,0,0,0-1.51,4.85,2.07,2.07,0,0,0,.32,1.4,5.64,5.64,0,0,1,2,1Q344.28,100.84,347.41,100.84Z"/><path class="cls-1" d="M273.52,162.54a4.58,4.58,0,0,0-.21-.75,2,2,0,0,0-1.4.11,9.64,9.64,0,0,0,1.51-3.88q0-1-1.62-1.51t-1.72-1a4.47,4.47,0,0,1,.49-1.62,4.54,4.54,0,0,0,.48-1.73,3.32,3.32,0,0,0-.11-1h-.54a.31.31,0,0,1-.22-.11,3,3,0,0,0-1.94,1.08v-.65q0-2.7-1.73-3l-.11.75-.43.43q-1.08-1.4-1.94-1.4c-.43,0-.68.07-.75.21a3.33,3.33,0,0,0-.65,2l-.43.54a3.65,3.65,0,0,0-2.48-1.29,1.74,1.74,0,0,0-1.08.32l-.11.11q-.11.32-.32,1.19l-.54.54a4,4,0,0,0-1.83-1h-.11a.23.23,0,0,0-.16.05.22.22,0,0,1-.16.05,2,2,0,0,0-.65,1.4,1.7,1.7,0,0,0,.05.43,1.58,1.58,0,0,1,.05.32q0,.65-2.48.86l-.43.11a1.2,1.2,0,0,0-.11.54v.11a5.72,5.72,0,0,0,.49,1.78,6.44,6.44,0,0,1,.47,1.72,1.58,1.58,0,0,1,.77-.27,3.29,3.29,0,0,1,1.51.59,3.25,3.25,0,0,0,1.51.59q.65,0,1.83-1.29a3.6,3.6,0,0,1,3.13-1.51,3.8,3.8,0,0,1,3.56,1.62,18.83,18.83,0,0,0,2,3,2.82,2.82,0,0,1,.75.43l1,.54c.39.21.88.47,1.46.75a5.55,5.55,0,0,1,2.21,2.27,6.93,6.93,0,0,0,.54-.87A3.82,3.82,0,0,0,273.52,162.54Z"/><path class="cls-1" d="M305.22,189.07l-.51.51s0,0,0,0,0,0,0,0a12.28,12.28,0,0,0-2-.83,10.15,10.15,0,0,1-1.24.75,14,14,0,0,1-2.1.86q-.22-3.13-.75-3.23l-.11.32-.21.22q1,4.85,4.1,4.85,5.17,0,5.17-5a9.37,9.37,0,0,0-2,.54A1.32,1.32,0,0,0,305.22,189.07Z"/><path class="cls-1" d="M255.09,189.07l-.51.51s0,0,0,0,0,0,0,0a12.28,12.28,0,0,0-2-.83,10.15,10.15,0,0,1-1.24.75,14,14,0,0,1-2.1.86q-.22-3.13-.75-3.23l-.11.32-.21.22q1,4.85,4.1,4.85,5.17,0,5.17-5a9.37,9.37,0,0,0-2,.54A1.32,1.32,0,0,0,255.09,189.07Z"/><path class="cls-1" d="M205.71,188c-.43.72-.79,1.08-1.08,1.08s-.9-.68-1.62-2l-.32-.11q.11,3-1.19,3-.43,0-1.62-1.51a.31.31,0,0,0-.21-.11.43.43,0,0,0-.32.11q.86,4,3.56,4,3.56,0,4.31-5.61A2.15,2.15,0,0,0,205.71,188Z"/><path class="cls-1" d="M299,157.58l-.32-.21a1.06,1.06,0,0,0,.21-.76,5.15,5.15,0,0,0-1-2.86,3,3,0,0,0-2.15-1.56l.21-.21a2.58,2.58,0,0,0,.86-1.83q0-1.83-1.94-1.83a2.58,2.58,0,0,0-2.16,1.19q-1.19,2.16-1.51,2.16-.65-2.37-1.4-2.37a24.54,24.54,0,0,0-2.26,1.94q-.54-1.73-1.62-1.73-1.62,0-1.62,1.73a11.31,11.31,0,0,0,.11,1.29,11.83,11.83,0,0,1,.11,1.4l-.43.43a6,6,0,0,0-2.27-1.19h-.21a12.17,12.17,0,0,1-.65,2l-.54.54a2.54,2.54,0,0,0-1-.43v.54a2.35,2.35,0,0,0,1.19,1.83l-.13.13a7.27,7.27,0,0,0,1.69.2h2.1a13.34,13.34,0,0,0,5.17-1.08,17.59,17.59,0,0,1,3.34-1.29q1.51,0,6.36,3.23a4.36,4.36,0,0,0-.05-.81A2,2,0,0,0,299,157.58Z"/><path class="cls-1" d="M205.28,161.14a14.55,14.55,0,0,0-.65-1.35q-.43-.81-1.08-1.89l-.92-.75c-.25-.22-.52-.47-.81-.75-.86-.65-1.29-1.15-1.29-1.51a3.22,3.22,0,0,1,.16-.86,3.14,3.14,0,0,0,.16-.75.32.32,0,0,0-.11-.21,5.33,5.33,0,0,1-2.16-.86,7,7,0,0,1-.86-2.69q-.32-2.16-1.08-2.16t-1.94,1.94q-1,1.94-1.83,1.94a1.89,1.89,0,0,1-1.24-.75c-.47-.5-.81-.76-1-.76a.44.44,0,0,0-.32.11,11.78,11.78,0,0,0-.75,3.23,2.87,2.87,0,0,1-1.73.65,1.68,1.68,0,0,0-.65.22,8,8,0,0,0-.38,1.29c-.11.5-.23,1.12-.38,1.83l-.43.54a2.56,2.56,0,0,0-1.08-.32h-.21a2.2,2.2,0,0,0-.11.86,8.92,8.92,0,0,0,.16,1.45,8.53,8.53,0,0,1,.16,1.35l-.54.43a4.12,4.12,0,0,0-1.29.22v.54a3.81,3.81,0,0,0,1.29,2.69,6.86,6.86,0,0,1,2.8-1.51,4.34,4.34,0,0,0,2.59-1.62q2.69-4.53,6.58-4.53.54,0,2.48,1.73a6.66,6.66,0,0,0,4.74,1.62A2.87,2.87,0,0,1,205.28,161.14Z"/><path class="cls-1" d="M223.82,153.38v.11l-.75.75q0-3.77-2-3.77-.11,0-.75.75,0-3.88-2.69-3.88h-.11a.46.46,0,0,0-.22.05.47.47,0,0,1-.22.05l-.21.43-.54.43a4.45,4.45,0,0,0-2.91-1,6.42,6.42,0,0,0-.92.05,2.65,2.65,0,0,0-.81.27,3.43,3.43,0,0,0-.22.86l-.43.54a9.32,9.32,0,0,0-1.4-.32.1.1,0,0,1-.11.11.49.49,0,0,0-.22.05.46.46,0,0,1-.21.05,4.13,4.13,0,0,0-.54,2.37,4.49,4.49,0,0,1-2.59,1.51,7.7,7.7,0,0,0,.75.86,8.49,8.49,0,0,1,.75.86,2.56,2.56,0,0,1,1,1.94,1.87,1.87,0,0,1-.43,1.19,12.43,12.43,0,0,1,5-1.19c.86,0,1.9.75,3.13,2.26s2.16,2.16,2.8,2.16,2.48-1,5.5-2.91l.65-2.91A1.68,1.68,0,0,0,223.82,153.38Z"/><path class="cls-1" d="M177,129.66a2.56,2.56,0,0,0-1.29.22,3.24,3.24,0,0,0,1.19-1.94,3.94,3.94,0,0,0-.7-2,2,2,0,0,0-1.67-1.13l-.11.11V125l-.22.11-.86.86a3,3,0,0,0,.32-.86h-.11a2,2,0,0,0,.43-1.29q0-1.72-2.16-1.72-1.83,0-2.16,1.4l-.75.65q-.32-1.83-1.4-1.83-2.16,0-2.16,2.7l-.54.54q-1.08-2.69-2.37-2.69-1.62,0-1.62,2.91a6.71,6.71,0,0,0,.05.86c0,.29.09.61.16,1l-.43.43q-3.45,0-3.45,2.8a2.86,2.86,0,0,0,1.19,2.26q3.34-2.59,6-2.59,1.62,0,3,2t2.37,1.94,5.93-1.29l.65-.54.54-.22a3.26,3.26,0,0,0,.54-1.94,2.25,2.25,0,0,0-.11-.86Z"/><path class="cls-2" d="M98.88,104.72l1.4-8.95h12.07l1.4,8.95h19l-14.88-67h.22a9.25,9.25,0,0,0,4-.86q2.37-1.08,2.37-2.8,0-2.16-1.83-2.16h-.11a9.08,9.08,0,0,0,.22-1.62,4.82,4.82,0,0,0-1.51-3.4A4.47,4.47,0,0,0,118,25.37a.87.87,0,0,0-.65.22,4.19,4.19,0,0,0-1.81-3.51,8.61,8.61,0,0,1-.41.84,4.6,4.6,0,0,1,1.36,3.65V27l.86-.75a.62.62,0,0,1,.43-.11,3.9,3.9,0,0,1,3,1.35,4.19,4.19,0,0,1,1.24,2.86,7.73,7.73,0,0,1-.65,2.8,2.87,2.87,0,0,1,1.29-.54q1.08,0,1.08,1.62t-1.94,2.16a5.26,5.26,0,0,1-3.23.65H118l-.32.32a9.46,9.46,0,0,0-6.36-2.69,6.13,6.13,0,0,0-2,.54l-3.5,1.4q-4.1,1.83-5.82,1.83a10.16,10.16,0,0,1-5.61-2h-.22l-.22-.21-.11.21a7.36,7.36,0,0,1-3.67-1.83,4.62,4.62,0,0,1-1.83-3.45q0-1.62,2.16-2.16L91,28.5a4.92,4.92,0,0,1-1.08-2.8q0-1.94,3.13-2.26l.43-.54q-.22-2.48,1.94-2.48a3.1,3.1,0,0,1,.45,0c-.06-.22-.12-.44-.17-.66a3,3,0,0,0-1.95.62,2.56,2.56,0,0,0-1,2.37q-3.56.43-3.56,3A4.29,4.29,0,0,0,90,28.39q-2.48.76-2.48,2.91a5.48,5.48,0,0,0,2,3.88,6.63,6.63,0,0,0,4.1,1.94l-13.8,67.6Zm6.9-53.48Q107,60.84,107.93,68t1.73,12q-1-1.83-1.51-1.83t-1.62,2L106,80q-.43-.54-.81-1a4,4,0,0,1-.59-.86l-.54.54v.11a1.73,1.73,0,0,1-.86-.75c-.07-.14-.15-.3-.22-.49a1.9,1.9,0,0,1-.11-.7Zm-3.34,27.06q.65,1.3,1.4,1.29.11,0,.65-.54Q105.78,81,106.21,81q.21,0,1.62-2l.54.11,1,1.35a7.8,7.8,0,0,1,.65,1l-4.2,1.08L102,81.43Z"/><path class="cls-2" d="M162.59,73.56a6.38,6.38,0,0,1,1.78.43l3.4,1.19h.11V56.42l.22-.21a3.61,3.61,0,0,0-1.94-1.94,8,8,0,0,0-2.91-.65,2.8,2.8,0,0,0-1.35.27,2.11,2.11,0,0,1-.59.27,1.31,1.31,0,0,1-.48-.11,1.36,1.36,0,0,0-.49-.11q-1.08,0-1.08,1.19a3.23,3.23,0,0,0,.05.54,3.4,3.4,0,0,1,.05.54,7.73,7.73,0,0,1-1,.32,3.47,3.47,0,0,0-.65.21,14.49,14.49,0,0,0-1.73,3q-.54.54-.81.86a3,3,0,0,0-.38.54v-4.1a1.86,1.86,0,0,0,.65-1.29,5.73,5.73,0,0,0-.27-1.56,8.63,8.63,0,0,0-.75-1.78,8.22,8.22,0,0,0-1.08-1.51,3.28,3.28,0,0,0-1.13-.86,2,2,0,0,0-2.16-2,3.53,3.53,0,0,0-2.16,1.29q-2-3.66-3.88-3.67t-3.45,3c-.36-.36-.65-.54-.86-.54q-1.62,0-2,3.67a2.19,2.19,0,0,0-1.89.43,2.1,2.1,0,0,0-.81,1.73,3.63,3.63,0,0,0,1.62,2.8l.22-.11v48.09h18v-22a10.56,10.56,0,0,1,.54-3.56,12.74,12.74,0,0,1,1.4-2.8A7,7,0,0,1,162.59,73.56Zm-8.41-17a11.24,11.24,0,0,1-1.4.43,12.41,12.41,0,0,0-2,.75l-2.26,1q-1,0-2.48-1.83A5.13,5.13,0,0,0,142.54,55a16.35,16.35,0,0,0-5.39,1.19,3,3,0,0,1-1.4-2.37,2.4,2.4,0,0,1,.22-1.08,1.58,1.58,0,0,1,1-.32,3.48,3.48,0,0,1,1,.22l.43-.54A5.84,5.84,0,0,1,139.2,49a.44.44,0,0,1,.32-.11q.54,0,.86.86.21-.21,1.51-2.16a2.29,2.29,0,0,1,2-1.29q1.62,0,3.77,4.1a3.79,3.79,0,0,0,.86-1.19,2.86,2.86,0,0,1,1.29-.32q1.62,0,1.62,2,1.19,0,2.16,1.73a7.15,7.15,0,0,1,.65,2.8A3.81,3.81,0,0,1,154.19,56.53Zm.65,7.76v-.75a.87.87,0,0,1,.11.54Zm.54-2.69q0-.54,1.4-1.94a9.15,9.15,0,0,0,.65-1.35,9.81,9.81,0,0,1,.43-1l.65-.22.75-.21q.86-.32.86-1a6.13,6.13,0,0,0,0-1.08h0a2.43,2.43,0,0,1,.49.05,2.09,2.09,0,0,0,.38.05,1.88,1.88,0,0,0,.75-.32,2.7,2.7,0,0,1,1.4-.32q3.13,0,4.21,2a20.74,20.74,0,0,0-2,1.08,5.7,5.7,0,0,1-1.83.54,5.43,5.43,0,0,1-1.46-.27,5.59,5.59,0,0,0-1.46-.27q-2,0-5,5.39A5.84,5.84,0,0,1,155.37,61.6Z"/><path class="cls-2" d="M176.29,98.58a17,17,0,0,0,7.12,5.5,25.44,25.44,0,0,0,9.7,1.73,27.37,27.37,0,0,0,12.4-2.8,17.4,17.4,0,0,0,5.23-4.09,14.52,14.52,0,0,0,2.86-5.28l1.29-4.74L212,88.52a18.65,18.65,0,0,1-2.1-.38A7.39,7.39,0,0,0,207,87.5a3.09,3.09,0,0,0-2,.65,2.43,2.43,0,0,1-1.46.65,6.39,6.39,0,0,1-2.16-.48,6.19,6.19,0,0,0-1.94-.49,3.09,3.09,0,0,0-1.78.65,3.51,3.51,0,0,1-1.13.65,1.74,1.74,0,0,1-1.29-.86c-.14,0-.23,0-.27-.05a.23.23,0,0,0-.16-.05h-.11q-3.56,0-4.85,1.51a10.33,10.33,0,0,1-.54-3.66c0-.14,0-.45.05-.91s.05-.84.05-1.13h26.31q0-13.67-4.74-20.24,1.83-1.08,1.83-4c0-1.79-.4-2.66-1.19-2.58h-.11a6.16,6.16,0,0,0-.54-2.91q-.65-1.94-1.94-1.94a1.55,1.55,0,0,0-1.08.54,10.18,10.18,0,0,0-1.29-3.75q-1.29-2.25-2.7-2.26a2.65,2.65,0,0,0-1.62,1q-.32-4.64-4.31-4.64a1.74,1.74,0,0,0-1.08.32,2.69,2.69,0,0,1-1.13.65c-.47.14-.93.27-1.4.38s-.9.2-1.29.27a1.18,1.18,0,0,0-.81.43,5,5,0,0,0-.75.86q-.54-.43-1.08-.81c-.36-.25-.72-.52-1.08-.81a4.9,4.9,0,0,0-2.48-.86q-1.19,0-3.13,1.73c-.15.43-.27.83-.38,1.19s-.2.65-.27.86A3.81,3.81,0,0,1,181,48h-.65c-.15,0-.23,0-.27-.05a.23.23,0,0,0-.16-.05h-.11q-2.16,0-2.91,3a5.92,5.92,0,0,1-1.13.11,7.51,7.51,0,0,0-1.24.11,2,2,0,0,0-1.29,2,3.31,3.31,0,0,0,.27,1.13c.18.46.38.93.59,1.39l.59,1.29a2.43,2.43,0,0,1,.27.91,2.63,2.63,0,0,1-1,1.61,2.7,2.7,0,0,0-1,1.82q0,1.28,2.91,2-4.85,6.47-4.85,17.25Q171.11,92,176.29,98.58Zm18.22-9.81h.32q1,1.08,1.51,1.08a2.84,2.84,0,0,0,1.19-.59,3,3,0,0,1,1.72-.59,7,7,0,0,1,2,.43,6.81,6.81,0,0,0,1.94.43,2.64,2.64,0,0,0,1.67-.65,3.09,3.09,0,0,1,2-.65,3.86,3.86,0,0,1,1.08.11,9.52,9.52,0,0,0-2.16,2.16,3.71,3.71,0,0,1-2.69,1.4,6.74,6.74,0,0,1-4.1-1.19q-1.29,1.83-5.5,1.83a2.94,2.94,0,0,1-2.48-.86c-.14,0-.5-.57-1.08-1.73A8,8,0,0,1,194.51,88.77Zm3.34-14.34h-8.73V73.35a7.37,7.37,0,0,1,1.08-4,3.88,3.88,0,0,1,3.34-1.94,3.76,3.76,0,0,1,3.23,2.16,7.55,7.55,0,0,1,1.08,3.88Zm-24-13.36a3,3,0,0,1,1-1.71q1-1.07,1-1.61a2.93,2.93,0,0,0-.27-1.07c-.18-.43-.4-.87-.65-1.34a14.09,14.09,0,0,1-.65-1.34,2.86,2.86,0,0,1-.27-1.07,1.59,1.59,0,0,1,.43-1.18.44.44,0,0,0,.27-.05.22.22,0,0,1,.16-.05H175q2.37,0,2.48-.43a6.06,6.06,0,0,0,.32-1.07,6,6,0,0,1,.32-1.07,1.8,1.8,0,0,1,1-.43c.47-.07,1-.12,1.51-.16s1.06-.09,1.56-.16a1.9,1.9,0,0,0,1.08-.43,15.46,15.46,0,0,0,1.19-2.27,2.32,2.32,0,0,1,2.26-1.29,5.16,5.16,0,0,1,2.69,1l2.26,1.62.54-.54a.73.73,0,0,1,.05-.32l.16-.32a1.47,1.47,0,0,1,.75-.32q.54-.11,1.29-.22a3.1,3.1,0,0,0,2.26-1,1.94,1.94,0,0,1,1.19-.32q3.34,0,3.88,5.17a9.36,9.36,0,0,1,1.94-1.5q1.62,0,2.59,2.46a10.82,10.82,0,0,1,.75,4A3,3,0,0,1,209,53q1.83,0,1.83,3.64a9,9,0,0,1-.22,1.6,1.35,1.35,0,0,1,1-.43h.32a4.14,4.14,0,0,1,.32,1.82,4.83,4.83,0,0,1-1,3.32.42.42,0,0,0-.43.32,9.42,9.42,0,0,0-7.65-3.75h-.54a6.72,6.72,0,0,0-1.08.11,3.61,3.61,0,0,1-1.89-.64,8.76,8.76,0,0,1-2.21-2.25q-2.37-3-4.42-3-3.34,0-8.19,5.46-1.08,1.28-4.1,1.6-3.34.54-4.2,1.71Q173.81,62.25,173.81,61.07Z"/><path class="cls-2" d="M218.44,71.41h5.17v33.31h18V71.62h6V57.5l.32-.32q-.86-1.18-1.4-2a15.52,15.52,0,0,0-1-1.4c-1.44.36-2.23.54-2.37.54q-1.29,0-1.29-2.8l-.22.21V42.84h.11q1.72,0,1.73-2.8,0-3.56-1.4-3.56a5.2,5.2,0,0,0-1.51-2.53,3.61,3.61,0,0,0-2.48-1.35,1.55,1.55,0,0,0-1.08.54q-.54-2.48-2.26-2.48a1.48,1.48,0,0,0-1,.54q-.54-2.8-2.59-2.8-2.48,0-4.31,3.45a5.55,5.55,0,0,0-2.48-.65,2,2,0,0,0-2.26,2.26v.43q-1.84.32-1.83,2.69a5.07,5.07,0,0,1-.54,2.48,4.18,4.18,0,0,0-.54,1.19q0,2.59,4.31,2.91v9.16a6.46,6.46,0,0,0-1,1.83,6.51,6.51,0,0,1-1.4-.32l-.43.54a10.33,10.33,0,0,0-1.35.32,1,1,0,0,0-.7,1.08V57l-.22.11-1,1.19a3.6,3.6,0,0,0,.86-.54Zm24.69-16.5a6.8,6.8,0,0,0,1.94-.43,13.92,13.92,0,0,0,1,1.46c.32.4.56.7.7.92a12.57,12.57,0,0,0-3.23-.54h-.92a4.91,4.91,0,0,0-.92.11v-2A1.68,1.68,0,0,0,243.13,54.91Zm-23-14.66A2,2,0,0,1,220.7,39a2.28,2.28,0,0,0,.54-1.51,8.31,8.31,0,0,1,.22-2.69,3.53,3.53,0,0,1,1.08-.22l.54-.43a2.21,2.21,0,0,1,.11-1.83,1.48,1.48,0,0,1,1.08-.32,6.19,6.19,0,0,1,2.7.75l.43-.43q1.51-3.13,3.77-3.13,1.62,0,2.16,3.23a2.08,2.08,0,0,1,1.51-.86q1.62,0,1.62,2.26a1.51,1.51,0,0,1-.11.65l.32.32.43-.43a3.49,3.49,0,0,1,.22-.86h.75a2.84,2.84,0,0,1,2.43,1.29,4.76,4.76,0,0,1,.92,2.8v.32l.65-.65.11.11a4.73,4.73,0,0,1,.65,2.8,5,5,0,0,1-.32,1.94h-.86l-.11.11q-.54.22-1.46.49t-2.21.7a19.68,19.68,0,0,1-2.37.75q-1,0-2.8-1.94Q230.84,40,229.11,40a10.14,10.14,0,0,0-5.5,2.16Q220.16,42.08,220.17,40.25Zm-.65,16.28V55.34a11,11,0,0,0,1.72-.65,6.36,6.36,0,0,0,1.08.21q.65,0,1.29-1.4v2.8a7.71,7.71,0,0,0-4.2.54A.44.44,0,0,0,219.52,56.53Z"/><path class="cls-2" d="M250.41,67.63a5.07,5.07,0,0,0,.27.75,14.41,14.41,0,0,0-.32,3,12.68,12.68,0,0,0,4.1,9.59,39.38,39.38,0,0,0,7.76,4.74q4.42,2.16,4.74,3.45a21.59,21.59,0,0,1-3.67,2.48,6.93,6.93,0,0,0-4.85-2.37,1.34,1.34,0,0,0-1,.43l-1.67-1.51a8.66,8.66,0,0,1-1-1.08l-6.9,13.15q2,1,4.1,2t4.2,1.89a25.39,25.39,0,0,0,9.16,1.83q8.84,0,13.8-4.31,5.28-4.85,5.28-13.37a11.39,11.39,0,0,0-4.1-9.16,52.41,52.41,0,0,0-7.65-4.42q-4.1-2-4.1-4.31t2.7-2.16a7.19,7.19,0,0,1,3.67,1.08,14.09,14.09,0,0,1,3.67,3.34l6.47-12.61.43-.43a23.55,23.55,0,0,0-.54-4.42q-.76-3.34-1.94-3.34a1.16,1.16,0,0,0-.86.54Q281,49.2,279.79,49.2a3.16,3.16,0,0,0-1.73.86q-1.94-3.23-2.8-3.23a1.2,1.2,0,0,0-1,.65q-1-3.34-3.34-3.34-1.62,0-1.94,2.48A23.7,23.7,0,0,0,263.07,45q-2.16,0-2.16,2a4.27,4.27,0,0,0,.05.59,5,5,0,0,1,.05.7A2.41,2.41,0,0,0,258.65,50l-.54,2a5.1,5.1,0,0,1-2,.86q-1.19.11-1.4,1.94-3.56,0-3.56,1.83a1.51,1.51,0,0,0,.49.86q.49.54.48.75l-.86.43a3.53,3.53,0,0,0-1.29,2.16,3.76,3.76,0,0,0,.16.92,3.83,3.83,0,0,1,.16.81,1.83,1.83,0,0,1-.48.81,1.83,1.83,0,0,0-.49,1.13,6.88,6.88,0,0,0,.54,1.83A6.49,6.49,0,0,1,250.41,67.63Zm15.8,25a2.92,2.92,0,0,1-2.48,1.4q-1.08,0-5.28-3.56a10.9,10.9,0,0,1,4.64,2q1.08,0,4-2.8A5.14,5.14,0,0,1,266.2,92.65ZM250.51,63.16a2.49,2.49,0,0,0,.49-.7,3,3,0,0,0-.22-.92,2.9,2.9,0,0,1-.22-.92,2.37,2.37,0,0,1,.54-1.29q1.72-.75,1.73-1.19a1.86,1.86,0,0,0-.49-.81,1.72,1.72,0,0,1-.49-.92A.62.62,0,0,1,252,56a2.16,2.16,0,0,1,1.51-.32H255l.43-.54a3.67,3.67,0,0,1,.22-1.51,10.17,10.17,0,0,0,2.59-1.08,2.72,2.72,0,0,0,.92-1.67,4.43,4.43,0,0,1,.27-1.35,4.43,4.43,0,0,1,2.16-.43l.43-.43a5.92,5.92,0,0,1-.32-1.08,4.61,4.61,0,0,1-.11-.86,1,1,0,0,1,.22-.75,2.68,2.68,0,0,1,1.19-.22,10,10,0,0,1,2.1.43q1.56.43,4.26,1.4l.43-.54a3.88,3.88,0,0,1,.43-1.94h.43a.1.1,0,0,0,.11-.11q2.59,0,3,3.88l.76-.75.22-.54h.22q.65,0,1.62,1.4a4.17,4.17,0,0,0,.54,1,11.29,11.29,0,0,1,.65,1,3,3,0,0,1,1.83-1q.86,0,2.16,3.67a4,4,0,0,0,.75-1,.63.63,0,0,1,.43-.11q1.4,0,1.83,7-2.48-.65-4.37-1.08t-3.07-.65a4.69,4.69,0,0,1-1.24-.81c-.47-.4-1.06-.88-1.78-1.46a5.57,5.57,0,0,0-3.45-1.73q-1.94,0-4.21,2.91t-4,2.91a9.58,9.58,0,0,1-2.1-.38,9.82,9.82,0,0,0-2.32-.38,2.59,2.59,0,0,0-1.51.54A14.25,14.25,0,0,0,251.11,67,10.33,10.33,0,0,1,250,64.4,1.94,1.94,0,0,1,250.51,63.16Z"/><path class="cls-2" d="M10.46,211.17a18.48,18.48,0,0,1-2.8,9.7A16.38,16.38,0,0,1,0,227.77H18.65A14.69,14.69,0,0,0,26.2,221a15.62,15.62,0,0,0,2.16-4.74,20,20,0,0,0,.65-5.07V157.48H10.46Z"/><path class="cls-2" d="M29.54,133.76a11.92,11.92,0,0,0-.65-3.77q-1-2.59-2.37-2.59a1.44,1.44,0,0,0-.86.32q.21-4.09-3.88-4.1a5.47,5.47,0,0,0-4,1.73q-.54-2.48-2.59-2.48a2.47,2.47,0,0,0-2.59,2.37,4.43,4.43,0,0,0-2.75,1.46,3.14,3.14,0,0,0-1.13,3.72q-2.7.75-2.7,2.91a10.4,10.4,0,0,0,1.62,4.31,13.13,13.13,0,0,1,1.51,4.64,3.56,3.56,0,0,1-.22,1.08l.65-.65a9.76,9.76,0,0,0,3.13,7.39,10.57,10.57,0,0,0,7.55,3,9.3,9.3,0,0,0,7.17-3.13,10.66,10.66,0,0,0,2.86-7.44,9.85,9.85,0,0,0-1.62-5.5A5.11,5.11,0,0,0,29.54,133.76Zm-2.48,1.51q-2.16-2.16-3.56-2.16a3.56,3.56,0,0,0-2.69,1.62q-1.29,1.51-2.16,1.51a6.15,6.15,0,0,1-2.32-.65,6.17,6.17,0,0,0-2.32-.65q-2.8,0-4.1,5.5c-.15-.29-.34-.74-.59-1.35a22.82,22.82,0,0,0-1.24-2.43,6.88,6.88,0,0,1-1.29-3.45q0-1.72,2.48-2.26l.43-.43a2.46,2.46,0,0,1-.54-1.4A2.82,2.82,0,0,1,10.3,127a3.54,3.54,0,0,1,2.32-1h.32l.54-.43q0-1.94,1.51-1.94,1.94,0,2.16,3.13,2.27-2.37,4.42-2.37,3.34,0,3.34,3.45a3.79,3.79,0,0,1-.11,1.08,3.39,3.39,0,0,1,1.62-.75q1.29,0,1.94,2.48a12,12,0,0,1,.54,3.34,6,6,0,0,1-.54,2.7A4.72,4.72,0,0,0,27.06,135.27Z"/><path class="cls-2" d="M77.52,153.27v-.54a6.46,6.46,0,0,0-.54-2.48q-.75-1.4-1.73-1.4a1.24,1.24,0,0,0-.86.43,2.08,2.08,0,0,0-1.94-1.4,3.6,3.6,0,0,0-1.4.86q-1.19-2.16-2.8-2.16-1.84,0-2.91,2.48a5.93,5.93,0,0,0-1.19-.32,1.28,1.28,0,0,0-1.24.81,9,9,0,0,0-.59,1.67H62a1.31,1.31,0,0,1-.59-.22,1.45,1.45,0,0,0-.7-.22c-.21,0-.63.31-1.24.92s-.92,1.1-.92,1.46a1.89,1.89,0,0,0,.75,1.24,1.9,1.9,0,0,1,.76,1.24,4.11,4.11,0,0,1-.76,1.45,10.53,10.53,0,0,0-1,1.67l.86-.75v28.14a18.35,18.35,0,0,0-1.45,1.4c-.4.43-.74.79-1,1.08a1.46,1.46,0,0,1-1.08.43,1.63,1.63,0,0,1-1.29-.65,7.65,7.65,0,0,0-1-.32,3.23,3.23,0,0,1-.65-.22q-.22-.21,0-1.29a2.37,2.37,0,0,0-.76-1.73L51.85,158q1.84-.65,1.84-1.29,0-.43-.76-.86l-1.41-2.26a5.21,5.21,0,0,1-.65-1.29,1,1,0,0,0-.76-.32,1.89,1.89,0,0,0-.54.21q-.54-.54-.76-.54-.44,0-2.38,2.69l-.22-.11-1.73-3.45q-1.3-2.69-2.49-2.69-.76,0-1.41,1.29a2.66,2.66,0,0,0-1.84-1.08q-2.06,0-2.06,2.37v2.7q-1.19-.22-1.52,1.51l-.65,2.26a3.18,3.18,0,0,1-.7.7,1.89,1.89,0,0,0-.59.7,2.65,2.65,0,0,1,1-.54v29.11q0,9.92,5.85,15.2a17.12,17.12,0,0,0,6.72,3.77,30.49,30.49,0,0,0,8.88,1.19q21.24,0,21.24-20.16V158a3.88,3.88,0,0,0,1.62-3.13A1.75,1.75,0,0,0,77.52,153.27Zm-26.28,4.64q-3.34.86-4.91,1.29c-1,.29-1.49.43-1.35.43q-.65,0-1.94-1.94a3.49,3.49,0,0,0-3-1.94,9.81,9.81,0,0,0-4.88,1.51,10.68,10.68,0,0,0,.49-1.67q.16-.81.27-1.45a2.9,2.9,0,0,1,.87.11l.43-.43a4.42,4.42,0,0,0,.22-1.4,10.07,10.07,0,0,1,.22-3.13,1.46,1.46,0,0,1,.87-.32q1.19,0,1.84,1.62L41,150a3.29,3.29,0,0,1,.22-.65,1.7,1.7,0,0,1,.32-.43.22.22,0,0,0,.16-.05.22.22,0,0,1,.16-.05H42q.65,0,2.16,3.13t2.16,3.13h.11a27.76,27.76,0,0,0,1.83-2.59l.54-.11.32.65a1.42,1.42,0,0,1,.86-.32.63.63,0,0,1,.43.11,13,13,0,0,0,.43,1.29c.14.36.28.68.43,1q.75.87,1.08,1.29a5,5,0,0,1,.43.65,1.7,1.7,0,0,1-.59.27,2,2,0,0,0-.49.16ZM59.08,192a2.4,2.4,0,0,1-1.73,1q-5.51,0-5.51-4.42v-2.59a1.65,1.65,0,0,1,.22.65v1.72a4.63,4.63,0,0,0,1.19.59l.87.27a2.06,2.06,0,0,0,1.29.75q.75,0,3.77-3.34a6.51,6.51,0,0,0,.38,1.83,6.6,6.6,0,0,1,.38,1.72A2.85,2.85,0,0,1,59.08,192Zm17.79-34.5c-.07.07-.13.11-.16.11s-.09,0-.16.11a9,9,0,0,0-5.39-2.26q-1.08,0-2.91,2.16a4.1,4.1,0,0,1-3.45,2,12.35,12.35,0,0,1-5.61-1.73,2.71,2.71,0,0,1,.75-1.35,2,2,0,0,0,.65-1.13,1.8,1.8,0,0,0-.65-1.19,1.79,1.79,0,0,1-.65-1.19,1.6,1.6,0,0,1,1.08-1.62,1.46,1.46,0,0,1,.65.27,1.42,1.42,0,0,0,.65.27,1.13,1.13,0,0,0,1.08-.86l.54-1.51a.47.47,0,0,0,.22-.05.46.46,0,0,1,.22-.05h.11c.07,0,.58.14,1.51.43l.54-.54q.43-2,2.15-2T70.51,150a2.26,2.26,0,0,0,1-1.19,4.58,4.58,0,0,1,.75-.21c.58,0,1.15.54,1.73,1.62q.43-.75,1-.75,1.73,0,1.73,3.23a5.93,5.93,0,0,1-.21,1.29,2.66,2.66,0,0,1,1,.11,1.31,1.31,0,0,1,.32,1A4,4,0,0,1,76.87,157.48Z"/><path class="cls-2" d="M101.67,128.9a1.74,1.74,0,0,0,.32-1.08,4,4,0,0,0-.86-2.37q-1-1.4-1.94-1.4h-.11v-.32q0-2.37-2.8-2.37a3.26,3.26,0,0,0-2.48,1.51,1.94,1.94,0,0,0-1.73-1.29q-1.83,0-2.91,2.26-1-1.72-2.16-1.72a2.08,2.08,0,0,0-1.94,1.4,4.21,4.21,0,0,0-.75,2.48,5.85,5.85,0,0,0,.21,1.29A4.38,4.38,0,0,0,82,128.58,3,3,0,0,0,80.86,131a4.21,4.21,0,0,0,1.51,2.8l.32-.43V206h18.22V133.22a2.69,2.69,0,0,0,1.62-2.8A1.43,1.43,0,0,0,101.67,128.9Zm-.43,3.56-.54.22-.65.54q-5.82,1.3-5.93,1.29-1,0-2.37-1.94t-3-2q-2.7,0-6,2.59a2.86,2.86,0,0,1-1.19-2.26q0-2.8,3.45-2.8l.43-.43c-.07-.36-.13-.68-.16-1a6.71,6.71,0,0,1-.05-.86q0-2.91,1.62-2.91,1.29,0,2.37,2.69l.54-.54q0-2.69,2.16-2.7,1.08,0,1.4,1.83l.75-.65q.32-1.4,2.16-1.4,2.16,0,2.16,1.72a2,2,0,0,1-.43,1.29H98a3,3,0,0,1-.32.86l.86-.86.22-.11v-.11l.11-.11a2,2,0,0,1,1.67,1.13,3.94,3.94,0,0,1,.7,2,3.24,3.24,0,0,1-1.19,1.94,2.56,2.56,0,0,1,1.29-.22h.32a2.25,2.25,0,0,1,.11.86A3.26,3.26,0,0,1,101.24,132.46Z"/><path class="cls-2" d="M152.77,158.12l.11.11.65-.65a2.46,2.46,0,0,1-2.16-2.69,8.4,8.4,0,0,0-.32-3.13l-.54-.21a1.32,1.32,0,0,0-.75.32q-1.4-2-2.16-2t-2,1.51h-.11q-1.3-1.29-1.83-1.29t-2.16,2.16h-.22a1.52,1.52,0,0,1-.86-.49,1.63,1.63,0,0,0-1.08-.48q-.87,0-2.91,2.91A13.3,13.3,0,0,1,133,157.8L131.86,159c.29-.14.52-.25.7-.32a3.27,3.27,0,0,0,.59-.32l-2.48,5.82q-.32,1.73-.54,3.13c-.15.93-.29,1.8-.43,2.59h-.32q-1.19,0-2.7,2.48a1,1,0,0,1-.43.11h-.11a1.81,1.81,0,0,1-.54-.22.62.62,0,0,1-.11-.43.1.1,0,0,0-.11-.11,1.36,1.36,0,0,1,.43-.81,1.43,1.43,0,0,0,.43-.92,5.25,5.25,0,0,0-1.19-1.73l-.32.43.11-35.37,1.19.16.54.05q1.62,0,1.62-2a3.72,3.72,0,0,0-1.72-3.56,2.64,2.64,0,0,0-.76-2,2.56,2.56,0,0,0-1.94-1,1.5,1.5,0,0,0-.65.11,7,7,0,0,0-2.48-3.67q-1.19-.86-2-1.4a2.84,2.84,0,0,0-1.56-.54,1.48,1.48,0,0,0-.86.54,1.85,1.85,0,0,0-1.4-.75c-1.15,0-1.83.65-2,1.94a2.87,2.87,0,0,0-1.4.43c-.58.36-.86.75-.86,1.19,0,.22,0,.32.11.32a2.61,2.61,0,0,0-1.29,1.94,3.62,3.62,0,0,0,.54,1.72,5.63,5.63,0,0,0-3.13,1.19,3.58,3.58,0,0,0-1.51,2.91,4.19,4.19,0,0,0,1.19,2.91l.11-.11V206h18.33V182.81l8.63,23.07h20.38L140.7,180.22Zm-34.93-23.4c-.5,0-1.37-.61-2.59-1.83s-2.19-1.83-2.91-1.83a13,13,0,0,0-5.71,1.83,3.63,3.63,0,0,1-.65-2q0-3.45,4.31-3.45l.54-.43a5.8,5.8,0,0,1-.75-2.16c0-.5.32-.9,1-1.19l.43-.54a.73.73,0,0,1-.21-.54.62.62,0,0,1,.11-.43,1.93,1.93,0,0,1,1.19-.32.87.87,0,0,1,.54.11l.43-.54a1.09,1.09,0,0,1,.32-1.19,1,1,0,0,1,.75-.32,1.82,1.82,0,0,1,1.51,1.08l.54-.65v-.11h.21q1.51,0,3.45,1.94a5.79,5.79,0,0,1,2.16,3.34,5,5,0,0,0-.65,1.94,4.45,4.45,0,0,0,.92-1,3.75,3.75,0,0,0,.38-.76h.43q2.16,0,2.15,2.27v.86q1.73-.21,1.73,2.91a3.86,3.86,0,0,1-.11,1.08h-.54a6.43,6.43,0,0,1-1-.11,6.49,6.49,0,0,0-1-.11l-.54.43a2.25,2.25,0,0,0-.86-.11,9.4,9.4,0,0,0-3.56.86A22.6,22.6,0,0,1,117.84,134.73Zm10,39.79q-2,.22-3,4.1-1.83-.32-1.83-4.74a10.94,10.94,0,0,1,1.62-5.17,4.11,4.11,0,0,1,1,1.51,1.52,1.52,0,0,1-.49.86c-.32.36-.48.61-.48.75q0,1.4,1.29,1.4.65,0,1.62-1.29.75-1.29,1.62-1.29h.43Q128.84,174.51,127.87,174.51Zm8.95-15.31a25.24,25.24,0,0,1-3.23-1.19,60.74,60.74,0,0,0,5-5.82.84.84,0,0,1,.32-.11.31.31,0,0,0,.21-.11,1.56,1.56,0,0,1,1.08.54q.54.54.75.54t2-2l.43-.22a1.63,1.63,0,0,1,1.13.65q.59.65.81.65t.86-.75a1.73,1.73,0,0,1,1.19-.75,1.5,1.5,0,0,1,1.19.75l1,1.29a1.19,1.19,0,0,1,.75-.43l.22.11a3.81,3.81,0,0,1,.21,1.19,7.41,7.41,0,0,0,.32,3,5.73,5.73,0,0,0-2.8-.86q-.65,0-3.56,2a9.19,9.19,0,0,1-5.07,1.94A10.28,10.28,0,0,1,136.82,159.2Z"/><path class="cls-2" d="M177.35,128.9a1.74,1.74,0,0,0,.32-1.08,4,4,0,0,0-.86-2.37q-1-1.4-1.94-1.4h-.11v-.32q0-2.37-2.8-2.37a3.26,3.26,0,0,0-2.48,1.51,1.94,1.94,0,0,0-1.73-1.29q-1.83,0-2.91,2.26-1-1.72-2.16-1.72a2.08,2.08,0,0,0-1.94,1.4A4.21,4.21,0,0,0,160,126a5.85,5.85,0,0,0,.21,1.29,4.38,4.38,0,0,0-2.48,1.29,3,3,0,0,0-1.19,2.37,4.21,4.21,0,0,0,1.51,2.8l.32-.43V206H176.6V133.22a2.69,2.69,0,0,0,1.62-2.8A1.43,1.43,0,0,0,177.35,128.9Zm-.43,3.56-.54.22-.65.54q-5.82,1.3-5.93,1.29-1,0-2.37-1.94t-3-2q-2.7,0-6,2.59a2.86,2.86,0,0,1-1.19-2.26q0-2.8,3.45-2.8l.43-.43c-.07-.36-.13-.68-.16-1a6.71,6.71,0,0,1-.05-.86q0-2.91,1.62-2.91,1.29,0,2.37,2.69l.54-.54q0-2.69,2.16-2.7,1.08,0,1.4,1.83l.75-.65q.32-1.4,2.16-1.4,2.16,0,2.16,1.72a2,2,0,0,1-.43,1.29h.11a3,3,0,0,1-.32.86l.86-.86.22-.11v-.11l.11-.11a2,2,0,0,1,1.67,1.13,3.94,3.94,0,0,1,.7,2,3.24,3.24,0,0,1-1.19,1.94,2.56,2.56,0,0,1,1.29-.22h.32a2.25,2.25,0,0,1,.11.86A3.26,3.26,0,0,1,176.92,132.46Z"/><path class="cls-2" d="M224.14,152.73c-.22,0-.32,0-.32.11a3.53,3.53,0,0,0-1-1.83q-.65-1.29-1.51-1.29a.62.62,0,0,0-.43.11,4.53,4.53,0,0,0-1.13-2.21,2.66,2.66,0,0,0-2-1,2.9,2.9,0,0,0-1.51.75,4.47,4.47,0,0,0-2.69-.86,2.92,2.92,0,0,0-2.8,1.72,4.08,4.08,0,0,0-1-.11,1.34,1.34,0,0,0-1.46,1.08q-.27,1.08-.49,2.26a5.2,5.2,0,0,1-1.4.54,2.94,2.94,0,0,0-1.4.75,4.62,4.62,0,0,0,.38.59,8.88,8.88,0,0,0,.92,1,3.57,3.57,0,0,1,1.4,2.48,2.08,2.08,0,0,1-.43,1l.21.21.22-.11v5.71a7.4,7.4,0,0,1-.54-.75,7,7,0,0,1-1.62-2.64,8.28,8.28,0,0,0-1.62-2.75q-.87-.86-1.46-1.4c-.4-.36-.77-.68-1.13-1a1,1,0,0,1-.11-.43,3.85,3.85,0,0,1,.11-.81,3.69,3.69,0,0,0,.11-.7q0-.86-1-1c-.86-.21-1.33-.32-1.4-.32a5.64,5.64,0,0,0-.21-.81c-.15-.47-.32-1.2-.54-2.21q-.54-2.26-1.62-2.26c-.51,0-1.15.5-1.94,1.51a10.72,10.72,0,0,0-1.19,2.16.63.63,0,0,0-.43.11,1.78,1.78,0,0,1-1.19-.65,1.79,1.79,0,0,0-1.19-.65q-1.29,0-1.94,4h-.21q-1.84,0-2.27,1.08-.22,0-.54,2.59a4.53,4.53,0,0,0-.75-.22q-1.3,0-1.29,1.83c0,.14,0,.4.05.75s.09.86.16,1.51q-1.83.32-1.83,1.73a4.47,4.47,0,0,0,1.83,3.23q-2.91,6.14-2.91,15.85,0,9.92,2.48,16.49,3.45,9.38,11.75,9.38a12.11,12.11,0,0,0,7.76-2.48q2.37-1.83,4.64-6.79v8.09h17V158l.32-.32a8,8,0,0,1,.32-1.51,2.88,2.88,0,0,0,.32-1.29,2.63,2.63,0,0,0-.54-1.35Q224.68,152.73,224.14,152.73Zm-27.82,4.42q-3.88,0-6.58,4.53a4.34,4.34,0,0,1-2.59,1.62,6.86,6.86,0,0,0-2.8,1.51,3.81,3.81,0,0,1-1.29-2.69v-.54a4.12,4.12,0,0,1,1.29-.22l.54-.43a8.53,8.53,0,0,0-.16-1.35,8.92,8.92,0,0,1-.16-1.45,2.2,2.2,0,0,1,.11-.86h.21a2.56,2.56,0,0,1,1.08.32l.43-.54c.14-.72.27-1.33.38-1.83a8,8,0,0,1,.38-1.29,1.68,1.68,0,0,1,.65-.22,2.87,2.87,0,0,0,1.73-.65,11.78,11.78,0,0,1,.75-3.23.44.44,0,0,1,.32-.11c.21,0,.56.25,1,.76a1.89,1.89,0,0,0,1.24.75q.86,0,1.83-1.94,1.18-1.94,1.94-1.94t1.08,2.16a7,7,0,0,0,.86,2.69,5.33,5.33,0,0,0,2.16.86.32.32,0,0,1,.11.21,3.14,3.14,0,0,1-.16.75,3.22,3.22,0,0,0-.16.86c0,.36.43.86,1.29,1.51.29.29.56.54.81.75l.92.75q.65,1.08,1.08,1.89a14.55,14.55,0,0,1,.65,1.35,2.87,2.87,0,0,0-1.73-.65,6.66,6.66,0,0,1-4.74-1.62Q196.87,157.15,196.33,157.15Zm6.58,35.26q-2.7,0-3.56-4a.43.43,0,0,1,.32-.11.31.31,0,0,1,.21.11q1.19,1.51,1.62,1.51,1.29,0,1.19-3l.32.11q1.08,2.05,1.62,2c.29,0,.65-.36,1.08-1.08a2.15,2.15,0,0,1,1.51-1.19Q206.46,192.41,202.91,192.41Zm4.42-9.06v2.8a3.78,3.78,0,0,0-2.37,2.15.74.74,0,0,1-.59-.38q-.27-.38-.49-.75a5,5,0,0,0-.49-.7.87.87,0,0,0-.7-.32h-.22l-.54.43a5.9,5.9,0,0,1-.22,2.48q-.54,0-1.08-.76c-.36-.5-.68-.75-1-.75a.22.22,0,0,0-.16.05,1.19,1.19,0,0,1-.27.16,22.11,22.11,0,0,1-.32-4.21q0-12.29,5-12.29,1.83,0,2.8,2.8a8,8,0,0,1,.54,2.16q.11,1.08.11,2.27Zm17-25.34q-4.53,2.91-5.5,2.91t-2.8-2.16c-1.22-1.51-2.26-2.26-3.13-2.26a12.43,12.43,0,0,0-5,1.19,1.87,1.87,0,0,0,.43-1.19,2.56,2.56,0,0,0-1-1.94,8.49,8.49,0,0,0-.75-.86,7.7,7.7,0,0,1-.75-.86,4.49,4.49,0,0,0,2.59-1.51,4.13,4.13,0,0,1,.54-2.37.46.46,0,0,0,.21-.05.49.49,0,0,1,.22-.05.1.1,0,0,0,.11-.11,9.32,9.32,0,0,1,1.4.32l.43-.54a3.43,3.43,0,0,1,.22-.86,2.65,2.65,0,0,1,.81-.27,6.42,6.42,0,0,1,.92-.05,4.45,4.45,0,0,1,2.91,1l.54-.43.21-.43a.47.47,0,0,0,.22-.05.46.46,0,0,1,.22-.05h.11q2.69,0,2.69,3.88.65-.75.75-.75,2,0,2,3.77l.75-.75v-.11A1.68,1.68,0,0,1,225,155.1Z"/><path class="cls-3" d="M254.57,189.58s0,0,0,0"/><path class="cls-2" d="M272.84,165.54a4.77,4.77,0,0,0,1.33-3.1c0-1-.4-1.51-1.19-1.51a5.94,5.94,0,0,0,1.08-3,1.68,1.68,0,0,0-1.08-1.73,8.13,8.13,0,0,1-2-.75v-.11a4.48,4.48,0,0,1,.49-1.62,4.45,4.45,0,0,0,.49-1.62c0-1.22-.51-1.83-1.51-1.83a1.45,1.45,0,0,0-1.29.65,5.56,5.56,0,0,0-.75-2c-.43-.75-.94-1.13-1.51-1.13-.29,0-.61.25-1,.75q-1.08-1.08-1.62-1.08a2.15,2.15,0,0,0-1.83,1.29A5.21,5.21,0,0,0,262,150a3.38,3.38,0,0,0-2-.92,2.53,2.53,0,0,0-2.37,1.94,2.49,2.49,0,0,0-1.51-.75,1.35,1.35,0,0,0-1.45,1.13l-.49,2a1,1,0,0,1-.43.11h-.11q-2.48,0-2.48,1.62a6.7,6.7,0,0,0,.48,2,7.21,7.21,0,0,1,.48,1.89,23.07,23.07,0,0,0-3.55,5.61l.54-5.71q-4.85-3.23-6.36-3.23a17.59,17.59,0,0,0-3.34,1.29,13.34,13.34,0,0,1-5.17,1.08h-2.1a7.27,7.27,0,0,1-1.69-.2l.13-.13a2.35,2.35,0,0,1-1.19-1.83v-.54a2.54,2.54,0,0,1,1,.43l.54-.54a12.17,12.17,0,0,0,.65-2h.21a6,6,0,0,1,2.27,1.19l.43-.43a11.83,11.83,0,0,0-.11-1.4,11.31,11.31,0,0,1-.11-1.29q0-1.73,1.62-1.73,1.08,0,1.62,1.73a24.54,24.54,0,0,1,2.26-1.94q.75,0,1.4,2.37.32,0,1.51-2.16a2.58,2.58,0,0,1,2.16-1.19q1.94,0,1.94,1.83a2.58,2.58,0,0,1-.86,1.83l-.21.21a3,3,0,0,1,2.15,1.56,5.15,5.15,0,0,1,1,2.86,1.06,1.06,0,0,1-.21.76l.32.21a2,2,0,0,1,.16.49,4.37,4.37,0,0,1,.05.81l.75.11c0-1.15-.25-1.87-.75-2.16l.32.22a.42.42,0,0,1,.05-.27.22.22,0,0,0,.05-.16.31.31,0,0,1,.11-.21,5.15,5.15,0,0,0-1-2.64,7.05,7.05,0,0,0-1.89-2.1,2.38,2.38,0,0,0,.75-1.73,2.32,2.32,0,0,0-.86-1.67,2.56,2.56,0,0,0-1.73-.81q-1.73,0-3.34,2.8c-.58-1.15-1.12-1.73-1.62-1.73s-1.19.54-2,1.62a2.34,2.34,0,0,0-1.83-1.29,2.58,2.58,0,0,0-1.83.86,2.49,2.49,0,0,0-.86,1.73,4.18,4.18,0,0,0,.05.59l.16,1.13a5.19,5.19,0,0,0-1.62-.75q-.87,0-1.62,2.37a.88.88,0,0,0-.32-.11.3.3,0,0,1-.22-.11q-1.19,0-1.19,1.4a2.58,2.58,0,0,0,1.4,2.26l.32-.32v69.76H248.4V200.17q4.31,7.12,12,7.12,8.3,0,12.61-8.52a28.42,28.42,0,0,0,2.48-7.44,46.6,46.6,0,0,0,.75-8.63q0-10.13-3.23-16.93Zm-25,18.79q-.06-1.3-.05-2.8,0-10.46,4.74-10.46,3.45,0,4.31,6.36a27.64,27.64,0,0,1,.22,2.86q.11,2.32.32,6.41-2.7.75-2.91,2.16a8.34,8.34,0,0,1-1.08-.43,6.83,6.83,0,0,1-.75-.43l-.43.43v.11a7.26,7.26,0,0,1-1.24.59c-.32.11-.63.2-.92.27q-.43-3-1.4-3h-.22l-.32.43A17.82,17.82,0,0,1,247.81,184.32Zm4.47,8.19q-3.13,0-4.1-4.85l.21-.22.11-.32q.54.11.75,3.23a14,14,0,0,0,2.1-.86,10.15,10.15,0,0,0,1.24-.75,12.28,12.28,0,0,1,2,.83l.51-.51a1.32,1.32,0,0,1,.32-1,9.37,9.37,0,0,1,2-.54Q257.46,192.52,252.28,192.52Zm18.11-29.65c-.58-.29-1.06-.54-1.46-.75l-1-.54a2.82,2.82,0,0,0-.75-.43,18.83,18.83,0,0,1-2-3,3.8,3.8,0,0,0-3.56-1.62,3.6,3.6,0,0,0-3.13,1.51q-1.19,1.3-1.83,1.29a3.25,3.25,0,0,1-1.51-.59,3.29,3.29,0,0,0-1.51-.59,1.58,1.58,0,0,0-.77.27,6.44,6.44,0,0,0-.47-1.72,5.72,5.72,0,0,1-.49-1.78v-.11a1.2,1.2,0,0,1,.11-.54l.43-.11q2.48-.22,2.48-.86a1.58,1.58,0,0,0-.05-.32,1.7,1.7,0,0,1-.05-.43,2,2,0,0,1,.65-1.4.22.22,0,0,0,.16-.05.23.23,0,0,1,.16-.05h.11a4,4,0,0,1,1.83,1l.54-.54q.22-.86.32-1.19l.11-.11a1.74,1.74,0,0,1,1.08-.32,3.65,3.65,0,0,1,2.48,1.29l.43-.54a3.33,3.33,0,0,1,.65-2c.07-.14.32-.21.75-.21s1.22.47,1.94,1.4l.43-.43.11-.75q1.72.32,1.73,3v.65a3,3,0,0,1,1.94-1.08.31.31,0,0,0,.22.11h.54a3.32,3.32,0,0,1,.11,1,4.54,4.54,0,0,1-.48,1.73,4.47,4.47,0,0,0-.49,1.62q0,.43,1.72,1t1.62,1.51a9.64,9.64,0,0,1-1.51,3.88,2,2,0,0,1,1.4-.11,4.58,4.58,0,0,1,.21.75,3.82,3.82,0,0,1-.38,1.72,6.93,6.93,0,0,1-.54.87A5.55,5.55,0,0,0,270.4,162.87Z"/><path class="cls-2" d="M323,165.54a4.77,4.77,0,0,0,1.33-3.1c0-1-.4-1.51-1.19-1.51a5.94,5.94,0,0,0,1.08-3,1.68,1.68,0,0,0-1.08-1.73,8.13,8.13,0,0,1-2-.75v-.11a4.48,4.48,0,0,1,.49-1.62,4.45,4.45,0,0,0,.49-1.62c0-1.22-.51-1.83-1.51-1.83a1.45,1.45,0,0,0-1.29.65,5.56,5.56,0,0,0-.75-2c-.43-.75-.94-1.13-1.51-1.13-.29,0-.61.25-1,.75q-1.08-1.08-1.62-1.08a2.15,2.15,0,0,0-1.83,1.29,5.21,5.21,0,0,0-.44,1.24,3.38,3.38,0,0,0-2-.92A2.53,2.53,0,0,0,307.7,151a2.49,2.49,0,0,0-1.51-.75,1.35,1.35,0,0,0-1.45,1.13l-.49,2a1,1,0,0,1-.43.11h-.11q-2.48,0-2.48,1.62a6.7,6.7,0,0,0,.48,2,7.2,7.2,0,0,1,.48,1.89,23.07,23.07,0,0,0-3.55,5.61l.54-5.71q-4.85-3.23-6.36-3.23a17.59,17.59,0,0,0-3.34,1.29A13.34,13.34,0,0,1,284.3,158h-2.1a7.27,7.27,0,0,1-1.69-.2l.13-.13a2.35,2.35,0,0,1-1.19-1.83v-.54a2.54,2.54,0,0,1,1,.43l.54-.54a12.17,12.17,0,0,0,.65-2h.21a6,6,0,0,1,2.27,1.19l.43-.43a11.83,11.83,0,0,0-.11-1.4,11.31,11.31,0,0,1-.11-1.29q0-1.73,1.62-1.73,1.08,0,1.62,1.73a24.54,24.54,0,0,1,2.26-1.94q.75,0,1.4,2.37.32,0,1.51-2.16a2.58,2.58,0,0,1,2.16-1.19q1.94,0,1.94,1.83a2.58,2.58,0,0,1-.86,1.83l-.21.21a3,3,0,0,1,2.15,1.56,5.15,5.15,0,0,1,1,2.86,1.06,1.06,0,0,1-.21.76l.32.21a2,2,0,0,1,.16.49,4.36,4.36,0,0,1,.05.81l.75.11c0-1.15-.25-1.87-.75-2.16l.32.22a.42.42,0,0,1,.05-.27.22.22,0,0,0,.05-.16.31.31,0,0,1,.11-.21,5.15,5.15,0,0,0-1-2.64,7.05,7.05,0,0,0-1.89-2.1,2.38,2.38,0,0,0,.75-1.73,2.32,2.32,0,0,0-.86-1.67,2.56,2.56,0,0,0-1.73-.81q-1.73,0-3.34,2.8c-.58-1.15-1.12-1.73-1.62-1.73s-1.19.54-2,1.62a2.34,2.34,0,0,0-1.83-1.29,2.58,2.58,0,0,0-1.83.86,2.49,2.49,0,0,0-.86,1.73,4.18,4.18,0,0,0,.05.59l.16,1.13a5.19,5.19,0,0,0-1.62-.75q-.87,0-1.62,2.37a.88.88,0,0,0-.32-.11.3.3,0,0,1-.22-.11q-1.19,0-1.19,1.4a2.58,2.58,0,0,0,1.4,2.26l.32-.32v69.76h18.11V200.17q4.31,7.12,12,7.12,8.3,0,12.61-8.52a28.42,28.42,0,0,0,2.48-7.44,46.59,46.59,0,0,0,.75-8.63q0-10.13-3.23-16.93Zm-25,18.79q-.06-1.3-.05-2.8,0-10.46,4.74-10.46,3.45,0,4.31,6.36a27.64,27.64,0,0,1,.22,2.86q.11,2.32.32,6.41-2.7.75-2.91,2.16a8.34,8.34,0,0,1-1.08-.43,6.84,6.84,0,0,1-.75-.43l-.43.43v.11a7.26,7.26,0,0,1-1.24.59c-.32.11-.63.2-.92.27q-.43-3-1.4-3h-.22l-.32.43A17.82,17.82,0,0,1,297.94,184.32Zm4.47,8.19q-3.13,0-4.1-4.85l.21-.22.11-.32q.54.11.75,3.23a14,14,0,0,0,2.1-.86,10.15,10.15,0,0,0,1.24-.75,12.28,12.28,0,0,1,2,.83l.51-.51a1.32,1.32,0,0,1,.32-1,9.37,9.37,0,0,1,2-.54Q307.59,192.52,302.42,192.52Zm18.11-29.65c-.58-.29-1.06-.54-1.46-.75l-1-.54a2.82,2.82,0,0,0-.75-.43,18.83,18.83,0,0,1-2-3,3.8,3.8,0,0,0-3.56-1.62,3.6,3.6,0,0,0-3.13,1.51q-1.19,1.3-1.83,1.29a3.25,3.25,0,0,1-1.51-.59,3.29,3.29,0,0,0-1.51-.59,1.58,1.58,0,0,0-.77.27,6.44,6.44,0,0,0-.47-1.72,5.72,5.72,0,0,1-.49-1.78v-.11a1.2,1.2,0,0,1,.11-.54l.43-.11q2.48-.22,2.48-.86a1.58,1.58,0,0,0-.05-.32,1.7,1.7,0,0,1-.05-.43,2,2,0,0,1,.65-1.4.22.22,0,0,0,.16-.05.23.23,0,0,1,.16-.05H306a4,4,0,0,1,1.83,1l.54-.54q.22-.86.32-1.19l.11-.11a1.74,1.74,0,0,1,1.08-.32,3.65,3.65,0,0,1,2.48,1.29l.43-.54a3.33,3.33,0,0,1,.65-2c.07-.14.32-.21.75-.21s1.22.47,1.94,1.4l.43-.43.11-.75q1.72.32,1.73,3v.65a3,3,0,0,1,1.94-1.08.31.31,0,0,0,.22.11h.54a3.32,3.32,0,0,1,.11,1,4.54,4.54,0,0,1-.48,1.73,4.47,4.47,0,0,0-.49,1.62q0,.43,1.72,1t1.62,1.51A9.64,9.64,0,0,1,322,161.9a2,2,0,0,1,1.4-.11,4.58,4.58,0,0,1,.21.75,3.82,3.82,0,0,1-.38,1.72,6.93,6.93,0,0,1-.54.87A5.55,5.55,0,0,0,320.53,162.87Z"/><path class="cls-3" d="M304.71,189.58s0,0,0,0"/><path class="cls-2" d="M98.71,25.12a10.11,10.11,0,0,0,6.9,2.8,11.12,11.12,0,0,0,7.6-2.7,8.6,8.6,0,0,0,2.29-3.15,10.63,10.63,0,0,0,.78-4.18,9.21,9.21,0,0,0-.43-2.91l.22-.11a7.69,7.69,0,0,1,.11-1.13c.07-.47.16-.93.27-1.4s.22-.92.32-1.35a4.58,4.58,0,0,0,.16-1.08,2,2,0,0,0-.54-1.51,8.9,8.9,0,0,1-1-2.59q-.54-1.62-1.51-1.62c-.65,0-1,0-1-.11a1.7,1.7,0,0,1-.22-.75V1.19A1.35,1.35,0,0,0,111.21,0a3.17,3.17,0,0,0-2.16.86q-1,.86-1.29.86a2.68,2.68,0,0,1-.81-.16,2.59,2.59,0,0,0-.7-.16q-.22,0-.92.65a3.63,3.63,0,0,1-1,.75c-.15,0-.49-.31-1-.92A2.17,2.17,0,0,0,101.83,1q-1.29,0-1.94,1.62c-.14.43-.29.85-.43,1.24s-.29.81-.43,1.24a9.74,9.74,0,0,1-1.62.43,3.38,3.38,0,0,0-1.08,2A4.18,4.18,0,0,1,96,9.38a3.76,3.76,0,0,1-1.19.22q-.76.75-.76,1.19a4,4,0,0,0,.22,1.13A4.14,4.14,0,0,1,94.5,13a1.57,1.57,0,0,1-.32.81,1.57,1.57,0,0,0-.32.81,10.24,10.24,0,0,0,1.62,3.45,10.55,10.55,0,0,0,.23,1.67c0,.22.11.44.17.66A10.79,10.79,0,0,0,98.71,25.12ZM95.47,16.5a4.7,4.7,0,0,1-.86-2,1.57,1.57,0,0,1,.32-.81,1.57,1.57,0,0,0,.32-.81,4,4,0,0,0-.22-1,4,4,0,0,1-.22-1.13.44.44,0,0,1,.11-.32q1.72-.43,2-1.67t.49-2.43A2.9,2.9,0,0,0,100,3.67q.43-1.94,1.72-1.94.54,0,1.35.92c.54.61.88.92,1,.92s.76-.43,1.62-1.29l.22-.11a4,4,0,0,1,.81.11,3.54,3.54,0,0,0,.7.11A3,3,0,0,0,109,1.56a3.24,3.24,0,0,1,2-.81,1.91,1.91,0,0,1,.86.22A3.56,3.56,0,0,1,112.08,2V4.28a.82.82,0,0,0,.22.3,1.37,1.37,0,0,0,.7.32,5.16,5.16,0,0,0,.75.05h.49a6.18,6.18,0,0,1,.49,1.73,3.76,3.76,0,0,0,.81,1.94,2.19,2.19,0,0,1,.65,1.62q0-.11-.65,3.45a14.09,14.09,0,0,0-2.16-3.23q-2.59-3-3.77-3A4.38,4.38,0,0,0,107,8.52,4.73,4.73,0,0,1,104.1,9.6q-.54,0-1.67-.11c-.75-.07-1.31-.11-1.67-.11q-2.16,0-3.77,2.48A9.09,9.09,0,0,0,95.47,16.5Z"/><path class="cls-2" d="M112.07,4.28a1.17,1.17,0,0,1-.07-.2C112,4.37,112.07,4.44,112.07,4.28Z"/><path class="cls-2" d="M112,4.09l0-.31A1.24,1.24,0,0,0,112,4.09Z"/><path class="cls-2" d="M361.5,184.9q-.54-1.62-1.51-1.62c-.65,0-1,0-1-.11a1.69,1.69,0,0,1-.22-.75v-2.16a1.35,1.35,0,0,0-1.51-1.19,3.17,3.17,0,0,0-2.16.86q-1,.86-1.29.86a2.68,2.68,0,0,1-.81-.16,2.59,2.59,0,0,0-.7-.16c-.14,0-.45.22-.92.65a3.62,3.62,0,0,1-1,.75q-.22,0-1-.92a2.17,2.17,0,0,0-1.46-.92q-1.29,0-1.94,1.62c-.14.43-.29.85-.43,1.24s-.29.81-.43,1.24a9.76,9.76,0,0,1-1.62.43,3.38,3.38,0,0,0-1.08,2,4.17,4.17,0,0,1-.32,1.83,3.76,3.76,0,0,1-1.19.22q-.75.75-.75,1.19a4,4,0,0,0,.22,1.13,4.14,4.14,0,0,1,.21,1.13,1.57,1.57,0,0,1-.32.81,1.58,1.58,0,0,0-.32.81,10.25,10.25,0,0,0,1.62,3.45,10.44,10.44,0,0,0,3.23,7,10.11,10.11,0,0,0,6.9,2.8,11.12,11.12,0,0,0,7.6-2.7,10.22,10.22,0,0,0,2.64-10.24l.21-.11a7.58,7.58,0,0,1,.11-1.13c.07-.47.16-.93.27-1.4s.21-.92.32-1.35A4.63,4.63,0,0,0,363,189a2,2,0,0,0-.54-1.51A8.94,8.94,0,0,1,361.5,184.9Zm.11,7.87a14.09,14.09,0,0,0-2.16-3.23q-2.59-3-3.77-3a4.38,4.38,0,0,0-2.59,1.08,4.73,4.73,0,0,1-2.91,1.08q-.54,0-1.67-.11c-.75-.07-1.31-.11-1.67-.11q-2.16,0-3.77,2.48a9.07,9.07,0,0,0-1.51,4.63,4.69,4.69,0,0,1-.86-2,1.58,1.58,0,0,1,.32-.81,1.57,1.57,0,0,0,.32-.81,4,4,0,0,0-.21-1,4,4,0,0,1-.22-1.13.44.44,0,0,1,.11-.32q1.73-.43,2-1.67t.49-2.43a2.9,2.9,0,0,0,2.59-2.59q.43-1.94,1.73-1.94c.36,0,.81.31,1.35.92s.88.92,1,.92.76-.43,1.62-1.29l.22-.11a4,4,0,0,1,.81.11,3.53,3.53,0,0,0,.7.11,3,3,0,0,0,1.56-.81,3.24,3.24,0,0,1,2-.81,1.92,1.92,0,0,1,.86.22,3.59,3.59,0,0,1,.21,1.08v2.23a.81.81,0,0,0,.22.3,1.37,1.37,0,0,0,.7.32,5.17,5.17,0,0,0,.75.05h.49a6.11,6.11,0,0,1,.49,1.73,3.76,3.76,0,0,0,.81,1.94,2.2,2.2,0,0,1,.65,1.62Q362.25,189.21,361.6,192.77Z"/><path class="cls-2" d="M358.15,183.36a1.16,1.16,0,0,1-.07-.2C358.13,183.44,358.15,183.51,358.15,183.36Z"/><path class="cls-2" d="M358.09,183.16l0-.31A1.24,1.24,0,0,0,358.09,183.16Z"/><path class="cls-2" d="M341.37,107.09l.22-.32v67.06h19.08V105.48l.43-.43a3.92,3.92,0,0,0-1.29-3.34,3.83,3.83,0,0,0,.43-1.72q0-1.62-1.19-1.94A3.37,3.37,0,0,0,358,95.67a1.94,1.94,0,0,0,.32-1.19,4.19,4.19,0,0,0-.54-1.72q-.86-1-1.4-1a.45.45,0,0,0-.32.11,6.72,6.72,0,0,0-.54-2.26q-.65-1.62-1.4-1.62a.44.44,0,0,0-.32.11,3.28,3.28,0,0,0-1.73-2c-.14.07-.48,0-1-.21a4,4,0,0,0-1-.32,2.16,2.16,0,0,0-1.4.7,1.89,1.89,0,0,0-.75,1.24,2.89,2.89,0,0,0,.21.92,3,3,0,0,1,.22.81q0,.43-2.16,2.26t-2.37,3.23c-.86.43-1.29.94-1.29,1.51v1.4a6.21,6.21,0,0,0-3.67,6.15c0,1,.25,1.62.75,1.83a4.85,4.85,0,0,0,1.62.75A4.63,4.63,0,0,1,341.37,107.09Zm-1.83-3.45A8.27,8.27,0,0,1,341,98.79a11,11,0,0,0,1.62-.75,1.4,1.4,0,0,0,.75-1.29V95.56l.65-.32.43-.54q0-1.51,2.26-3.23T349.13,89a2.52,2.52,0,0,0-.27-.81,2.46,2.46,0,0,1-.27-.92c0-.65.39-1,1.19-1a2.85,2.85,0,0,1,1,.32,3,3,0,0,0,.92.32h.11a3.15,3.15,0,0,1,1.29,2.37,1.24,1.24,0,0,1,.86-.43q1.08,0,1.08,3.23a8.08,8.08,0,0,1-.11,1.51l1-.86.22-.11c.93,0,1.4.68,1.4,2q0,.75-1.29,2a3.37,3.37,0,0,1,1.29-.32.44.44,0,0,1,.32.11,5.78,5.78,0,0,1,.54,2.37,1,1,0,0,1,.75-.11,3.6,3.6,0,0,1,.22,1.08,4.26,4.26,0,0,1-1.29,3.13,7.71,7.71,0,0,1,1.51-.54h.22a5.8,5.8,0,0,1,.54,2.91,23.29,23.29,0,0,1-3,1.19,8.89,8.89,0,0,1-2.59.43q-2.26,0-4-3t-3.34-3.13q-3.13,0-5.5,5.17a5.64,5.64,0,0,0-2-1A2.07,2.07,0,0,1,339.54,103.64Z"/></svg>