<?xml version="1.0" encoding="utf-8"?>
<!-- Generator: Adobe Illustrator 20.1.0, SVG Export Plug-In . SVG Version: 6.00 Build 0)  -->
<!DOCTYPE svg PUBLIC "-//W3C//DTD SVG 1.1//EN" "http://www.w3.org/Graphics/SVG/1.1/DTD/svg11.dtd">
<svg version="1.1" id="Layer_1" xmlns="http://www.w3.org/2000/svg" xmlns:xlink="http://www.w3.org/1999/xlink" x="0px" y="0px"
	 viewBox="0 0 595.5 126.5" style="enable-background:new 0 0 595.5 126.5;" xml:space="preserve">
<style type="text/css">
	.st0{fill:#FFFFFF;}
	.st1{fill:#E62F3C;}
	.st2{fill:none;}
</style>
<title>Artboard 1</title>
<path class="st0" d="M25.8,27.9c-2.6,0-5-1-6.9-2.8c-1.3-1.3-2.3-2.9-2.8-4.7c-0.1,0-0.3,0-0.4,0c-1.4,0-2.1,0.8-1.9,2.5l-0.4,0.5
	c-2.1,0.2-3.1,1-3.1,2.3c0.1,1,0.4,2,1.1,2.8l-0.5,0.4c-1.4,0.4-2.2,1.1-2.2,2.2c0.1,1.4,0.7,2.6,1.8,3.4c1,0.9,2.3,1.6,3.7,1.8
	l0.1-0.2l0.2,0.2h0.2c1.6,1.2,3.6,1.9,5.6,2c1.1,0,3.1-0.6,5.8-1.8l3.5-1.4c0.6-0.3,1.3-0.5,2-0.5c2.4,0.1,4.7,1,6.4,2.7l0.4-0.3
	h0.5c1.1,0.1,2.3-0.1,3.2-0.7c1.3-0.4,1.9-1.2,1.9-2.2c0-1-0.4-1.5-1.1-1.6c-0.5,0.1-0.9,0.3-1.3,0.5c0.4-0.9,0.6-1.8,0.7-2.8
	c0-1.1-0.5-2.1-1.2-2.9c-0.8-0.9-1.8-1.4-3-1.4c-0.2,0-0.3,0-0.4,0.1L36.6,27v-0.4c0.1-1.4-0.4-2.7-1.4-3.6
	c-0.5,0.9-1.1,1.7-1.9,2.3C31.3,27,28.6,28,25.8,27.9z"/>
<path class="st0" d="M30.2,81.4c-0.2-0.3-0.4-0.7-0.7-1l-1-1.3L28,79c-0.9,1.4-1.5,2-1.6,2c-0.3,0-0.9-0.6-1.7-1.9
	c-0.4,0.4-0.6,0.5-0.7,0.5c-0.5,0-1-0.4-1.4-1.3l-0.4,3.2l3.8,1.1L30.2,81.4z"/>
<path class="st0" d="M23.4,78.1c0.2,0.3,0.5,0.6,0.9,0.8v-0.1l0.5-0.5c0.2,0.3,0.4,0.6,0.6,0.9c0.3,0.3,0.5,0.6,0.8,1l0.5,0.1
	c0.8-1.3,1.3-2,1.6-2s0.8,0.6,1.5,1.8c-0.5-3.2-1.1-7.2-1.7-12c-0.6-4.8-1.4-10.3-2.2-16.7L23,76.9c0,0.2,0,0.5,0.1,0.7
	C23.2,77.8,23.3,78,23.4,78.1z"/>
<path class="st0" d="M20.9,9.4c0.4,0,0.9,0,1.7,0.1s1.3,0.1,1.7,0.1c1.1,0,2.1-0.4,2.9-1.1c0.7-0.6,1.6-1,2.6-1.1c0.8,0,2,1,3.8,3
	c0.9,1,1.6,2.1,2.2,3.2c0.4-2.4,0.7-3.5,0.7-3.4c0-0.6-0.2-1.2-0.7-1.6C35.3,8,35,7.4,34.9,6.7c-0.1-0.6-0.2-1.1-0.5-1.7h-0.5
	c-0.3,0-0.5,0-0.8-0.1c-0.3,0-0.5-0.1-0.7-0.3c-0.1-0.1-0.2-0.2-0.2-0.3c0,0.2,0,0.1-0.1-0.2c0-0.1,0-0.2,0-0.3v0.3
	c0,0.1,0,0.1,0.1,0.2V2c0-0.3-0.1-0.7-0.2-1c-0.3-0.2-0.6-0.2-0.9-0.2c-0.7,0-1.4,0.3-2,0.8c-0.4,0.4-1,0.7-1.6,0.8
	c-0.2,0-0.5-0.1-0.7-0.1c-0.3-0.1-0.5-0.1-0.8-0.1l-0.2,0.1c-0.9,0.9-1.4,1.3-1.6,1.3c-0.1,0-0.5-0.3-1-0.9s-1-0.9-1.3-0.9
	c-0.9,0-1.4,0.6-1.7,1.9C20.1,5,19,6.1,17.6,6.2c-0.1,0.8-0.3,1.6-0.5,2.4c-0.2,0.8-0.8,1.4-2,1.7C15,10.4,15,10.5,15,10.7
	c0,0.4,0.1,0.8,0.2,1.2c0.1,0.3,0.2,0.7,0.2,1c0,0.3-0.1,0.6-0.3,0.8s-0.3,0.5-0.3,0.8c0.1,0.7,0.4,1.4,0.9,2
	c0.1-1.6,0.6-3.2,1.6-4.6C18.2,10.2,19.5,9.4,20.9,9.4z"/>
<path class="st0" d="M75,64.3l0.1-0.2c0-0.2,0-0.4-0.1-0.5V64.3z"/>
<path class="st0" d="M71.7,50.9c0-1.3-0.5-2-1.6-2c-0.4,0-0.9,0.1-1.3,0.3c-0.2,0.4-0.5,0.9-0.9,1.2c-1.4-2.7-2.7-4.1-3.8-4.1
	c-0.9,0-1.6,0.5-2,1.3c-0.9,1.3-1.4,2-1.5,2.2c-0.2-0.6-0.5-0.9-0.9-0.9c-0.1,0-0.2,0-0.3,0.1c-0.6,0.9-0.9,2-0.9,3.1l-0.4,0.5
	c-0.3-0.1-0.7-0.2-1-0.2c-0.4,0-0.7,0.1-1,0.3c-0.2,0.3-0.2,0.7-0.2,1.1c0.1,1,0.6,1.9,1.4,2.4c1.7-0.7,3.5-1.1,5.4-1.2
	c1.4,0.1,2.6,0.8,3.5,1.8c1,1.2,1.8,1.8,2.5,1.8l2.3-1c0.6-0.3,1.3-0.6,2-0.8c0.5-0.1,0.9-0.3,1.4-0.4c0.1-0.4,0.1-0.7,0.1-1.1
	c0-1-0.2-1.9-0.6-2.8C73.2,51.5,72.5,50.9,71.7,50.9z"/>
<path class="st0" d="M113.7,67.4c-1.4,0-2.7,0.7-3.3,1.9c-0.7,1.2-1.1,2.6-1.1,4v1.1h8.7v-1c0-1.4-0.4-2.7-1.1-3.9
	C116.4,68.3,115.1,67.5,113.7,67.4z"/>
<path class="st0" d="M161.9,56.4c0.3-0.1,0.6-0.1,0.9-0.1h0.9c1.1,0,2.2,0.2,3.2,0.5c-0.1-0.2-0.4-0.5-0.7-0.9c-0.4-0.5-0.7-1-1-1.5
	c-0.6,0.2-1.3,0.4-1.9,0.4c-0.5,0-1-0.2-1.4-0.5L161.9,56.4z"/>
<path class="st0" d="M143.8,56.3v-2.8c-0.4,0.9-0.9,1.4-1.3,1.4c-0.4,0-0.7-0.1-1.1-0.2c-0.6,0.3-1.1,0.5-1.7,0.7v1.2
	c0,0.1,0,0.2-0.1,0.3C140.9,56.3,142.4,56.1,143.8,56.3z"/>
<path class="st0" d="M149.3,40c1.1,0,2.3,0.7,3.6,2.2c1.2,1.3,2.2,1.9,2.8,1.9c0.8-0.2,1.6-0.5,2.4-0.8c0.9-0.3,1.6-0.5,2.2-0.7
	s1.1-0.3,1.5-0.5l0.1-0.1h0.9c0.2-0.6,0.3-1.3,0.3-1.9c0.1-1-0.1-2-0.6-2.8l-0.1-0.1l-0.6,0.7v-0.3c0-1-0.3-2-0.9-2.8
	c-0.5-0.8-1.5-1.3-2.4-1.3h-0.8c-0.1,0.3-0.2,0.6-0.2,0.9l-0.4,0.4l-0.3-0.3c0.1-0.2,0.1-0.4,0.1-0.7c0-1.5-0.5-2.3-1.6-2.3
	c-0.6,0.1-1.2,0.4-1.5,0.9c-0.4-2.2-1.1-3.2-2.2-3.2c-1.5,0-2.8,1-3.8,3.1l-0.4,0.4c-0.8-0.5-1.8-0.7-2.7-0.7
	c-0.4,0-0.8,0.1-1.1,0.3c-0.3,0.6-0.3,1.2-0.1,1.8l-0.5,0.4c-0.4,0-0.7,0.1-1.1,0.2c-0.2,0.9-0.3,1.8-0.2,2.7c0,0.6-0.1,1.1-0.5,1.6
	c-0.3,0.4-0.5,0.8-0.5,1.3c0,1.2,1.1,1.9,3.4,1.9C145.4,41,147.3,40.2,149.3,40z"/>
<path class="st0" d="M178.6,90.5c2.8,2.3,4.6,3.5,5.3,3.5c1,0,2-0.5,2.5-1.4c0.6-0.9,0.9-1.9,0.9-2.9c-1.9,1.9-3.3,2.8-4,2.8
	C181.9,91.5,180.3,90.8,178.6,90.5z"/>
<path class="st0" d="M176.9,59.4c0.4-0.3,1-0.5,1.5-0.5c0.8,0,1.6,0.2,2.3,0.4c0.7,0.2,1.4,0.3,2.1,0.4c1.1,0,2.4-1,4-2.9
	s3-2.9,4.2-2.9c1.3,0.1,2.5,0.8,3.5,1.7c0.7,0.6,1.3,1.1,1.8,1.5c0.4,0.3,0.8,0.6,1.2,0.8c0.8,0.1,1.8,0.4,3.1,0.7s2.7,0.6,4.4,1.1
	c-0.3-4.7-0.9-7-1.8-7c-0.2,0-0.3,0-0.4,0.1c-0.2,0.4-0.4,0.7-0.8,1c-0.9-2.5-1.6-3.7-2.2-3.7c-0.7,0.1-1.4,0.5-1.8,1
	c-0.2-0.3-0.4-0.7-0.6-1c-0.2-0.3-0.4-0.6-0.5-1c-0.7-0.9-1.2-1.4-1.6-1.4h-0.2l-0.2,0.5l-0.8,0.8c-0.3-2.6-1.3-3.9-3-3.9
	c0,0.1,0,0.1-0.1,0.1c0,0,0,0,0,0h-0.4c-0.3,0.6-0.5,1.3-0.4,1.9l-0.4,0.5c-1.8-0.7-3.2-1.1-4.3-1.4c-0.7-0.2-1.4-0.4-2.1-0.4
	c-0.4,0-0.8,0.1-1.2,0.2c-0.2,0.2-0.3,0.5-0.2,0.8c0,0.3,0,0.6,0.1,0.9c0.1,0.4,0.2,0.7,0.3,1.1l-0.4,0.4c-0.7,0-1.5,0.1-2.2,0.4
	c-0.2,0.4-0.3,0.9-0.3,1.3c-0.1,0.6-0.4,1.2-0.9,1.7c-0.8,0.5-1.7,0.8-2.6,1.1c-0.2,0.5-0.3,1-0.2,1.5l-0.4,0.5h-1.5
	c-0.5-0.1-1,0-1.5,0.3c-0.1,0.1-0.1,0.3-0.1,0.4c0.1,0.3,0.2,0.7,0.5,0.9c0.2,0.2,0.4,0.5,0.5,0.8c0,0.3-0.6,0.7-1.7,1.2
	c-0.3,0.4-0.5,0.8-0.5,1.3c0,0.3,0.1,0.6,0.2,0.9c0.1,0.3,0.2,0.6,0.2,0.9c-0.1,0.3-0.3,0.5-0.5,0.7c-0.3,0.3-0.5,0.8-0.6,1.2
	c0.2,0.9,0.6,1.8,1.1,2.6C172.2,63.9,174.2,61.3,176.9,59.4z"/>
<path class="st0" d="M100.9,60.9c2-0.2,3.4-0.7,4.1-1.6c3.2-3.6,6-5.5,8.2-5.5c1.3,0,2.8,1,4.4,3c0.6,0.9,1.3,1.6,2.2,2.2
	c0.6,0.4,1.2,0.6,1.9,0.6c0.4-0.1,0.7-0.1,1.1-0.1h0.5c3,0,5.8,1.4,7.6,3.8c0-0.2,0.2-0.3,0.4-0.3c0.7-0.9,1.1-2.1,1-3.3
	c0-0.6-0.1-1.2-0.3-1.8h-0.3c-0.4,0-0.7,0.2-1,0.4c0.1-0.5,0.2-1.1,0.2-1.6c0-2.4-0.6-3.7-1.8-3.7c-0.7,0.1-1.4,0.5-1.8,1
	c0-1.4-0.2-2.7-0.8-4c-0.7-1.6-1.5-2.5-2.6-2.5c-0.7,0.4-1.4,0.9-1.9,1.5c-0.4-3.5-1.7-5.2-3.9-5.2c-0.4,0-0.8,0.1-1.2,0.3
	c-0.6,0.6-1.4,1-2.3,1c-0.5,0.1-0.9,0.1-1.3,0.2c-0.3,0-0.5,0.1-0.8,0.3l-0.2,0.3c0,0.1-0.1,0.2-0.1,0.3l-0.5,0.5l-2.3-1.6
	c-0.8-0.6-1.7-0.9-2.7-1c-0.9-0.1-1.8,0.4-2.3,1.3c-0.3,0.8-0.7,1.5-1.2,2.3c-0.3,0.3-0.7,0.4-1.1,0.4c-0.5,0.1-1,0.1-1.6,0.2
	c-0.5,0-1,0.1-1.5,0.2c-0.4,0-0.7,0.2-1,0.4c-0.1,0.3-0.2,0.7-0.3,1.1c-0.1,0.4-0.2,0.7-0.3,1.1c-0.1,0.3-0.9,0.4-2.5,0.4h-0.1
	c-0.1,0-0.1,0-0.2,0c-0.1,0-0.2,0.1-0.3,0c-0.3,0.3-0.5,0.7-0.4,1.2c0,0.4,0.1,0.7,0.3,1.1c0.2,0.5,0.4,0.9,0.6,1.3
	c0.2,0.5,0.5,0.9,0.6,1.3c0.2,0.3,0.2,0.7,0.3,1.1c0,0.4-0.3,0.9-1,1.6c-0.5,0.4-0.9,1-1,1.7c0,0.8,0.9,1.3,2.7,1.5
	C97.3,61.8,98.7,61.2,100.9,60.9z"/>
<path class="st0" d="M80.7,57.4c0.5,0,1,0.1,1.5,0.3c0.5,0.2,1,0.2,1.5,0.3c0.6-0.1,1.3-0.3,1.8-0.5c0.6-0.4,1.3-0.8,2-1.1
	c-0.7-1.3-2.1-2-4.2-2c-0.5,0-1,0.1-1.4,0.3c-0.2,0.2-0.5,0.3-0.8,0.3c-0.1,0-0.3,0-0.4,0c-0.2,0-0.3,0-0.5,0l0,0c0,0.4,0,0.7,0,1.1
	c0,0.4-0.3,0.8-0.9,1l-0.8,0.2L78,57.4c-0.2,0.3-0.3,0.7-0.4,1c-0.2,0.5-0.4,0.9-0.6,1.3c-0.9,0.9-1.4,1.6-1.4,1.9
	c0,0.4,0.1,0.8,0.2,1.2C77.7,59.2,79.4,57.4,80.7,57.4z"/>
<path class="st0" d="M111.2,91.7c0.6,0.7,1.6,1,2.5,0.9c2.8,0,4.6-0.6,5.5-1.8c1.2,0.8,2.6,1.2,4.1,1.2c1.1-0.1,2-0.6,2.7-1.4
	c0.6-0.8,1.3-1.6,2.2-2.2c-0.4-0.1-0.7-0.1-1.1-0.1c-0.7,0-1.4,0.2-2,0.7c-0.5,0.4-1.1,0.6-1.7,0.7c-0.7,0-1.3-0.2-1.9-0.4
	c-0.6-0.2-1.3-0.4-2-0.4c-0.6,0-1.2,0.2-1.7,0.6c-0.3,0.3-0.8,0.5-1.2,0.6c-0.4,0-0.9-0.4-1.5-1.1h-0.3c-1.6-0.1-3.2,0.4-4.6,1.2
	C110.7,91.1,111.1,91.7,111.2,91.7z"/>
<path class="st1" d="M19.1,104.7l1.4-8.9h12.1l1.4,8.9h19l-14.9-67h0.2c1.4,0,2.7-0.3,4-0.9c1.6-0.7,2.4-1.7,2.4-2.8
	c0-1.4-0.6-2.2-1.8-2.2h-0.1c0.1-0.5,0.2-1.1,0.2-1.6c0-1.3-0.6-2.5-1.5-3.4c-0.8-0.9-2-1.5-3.2-1.5c-0.2,0-0.5,0.1-0.7,0.2
	c0-1.4-0.7-2.7-1.8-3.5c-0.1,0.3-0.3,0.6-0.4,0.8c1,1,1.5,2.3,1.4,3.6V27l0.9-0.8c0.1-0.1,0.3-0.1,0.4-0.1c1.2,0,2.2,0.5,3,1.4
	c0.8,0.8,1.2,1.8,1.2,2.9c0,1-0.3,1.9-0.7,2.8c0.4-0.3,0.8-0.5,1.3-0.5c0.7,0,1.1,0.5,1.1,1.6c0,1.1-0.6,1.8-1.9,2.2
	c-1,0.6-2.1,0.8-3.2,0.7h-0.6l-0.3,0.3c-1.7-1.7-4-2.6-6.4-2.7c-0.7,0.1-1.4,0.2-2,0.5L26,36.6c-2.7,1.2-4.7,1.8-5.8,1.8
	c-2-0.1-4-0.8-5.6-2h-0.2l-0.2-0.2L14,36.4c-1.4-0.2-2.6-0.9-3.7-1.8c-1.1-0.8-1.8-2.1-1.8-3.4c0-1.1,0.7-1.8,2.2-2.2l0.5-0.5
	c-0.6-0.8-1-1.8-1.1-2.8c0-1.3,1-2,3.1-2.3l0.4-0.5c-0.1-1.7,0.5-2.5,1.9-2.5c0.1,0,0.3,0,0.4,0c-0.1-0.2-0.1-0.4-0.2-0.7
	c-0.7,0-1.4,0.2-1.9,0.6c-0.7,0.6-1.1,1.5-1,2.4c-2.4,0.3-3.6,1.3-3.6,3c0,0.9,0.3,1.9,0.8,2.6c-1.7,0.5-2.5,1.5-2.5,2.9
	c0.1,1.5,0.8,2.9,2,3.9c1.1,1.1,2.5,1.8,4.1,1.9L0,104.7H19.1z M26,51.2c0.8,6.4,1.5,12,2.2,16.8c0.6,4.8,1.2,8.8,1.7,12
	c-0.7-1.2-1.2-1.8-1.5-1.8c-0.3,0-0.9,0.7-1.6,2L26.2,80c-0.3-0.4-0.6-0.7-0.8-1c-0.2-0.3-0.4-0.5-0.6-0.9l-0.5,0.5v0.1
	c-0.4-0.1-0.7-0.4-0.9-0.8c-0.1-0.1-0.2-0.3-0.2-0.5c-0.1-0.2-0.1-0.5-0.1-0.7L26,51.2z M22.6,78.3c0.4,0.9,0.9,1.3,1.4,1.3
	c0.1,0,0.3-0.2,0.7-0.5c0.9,1.3,1.4,1.9,1.7,1.9c0.1,0,0.7-0.7,1.6-2l0.5,0.1l1,1.3c0.2,0.3,0.5,0.7,0.7,1L26,82.5l-3.8-1.1
	L22.6,78.3z"/>
<path class="st1" d="M82.8,73.6c0.6,0.1,1.2,0.2,1.8,0.4l3.4,1.2h0.1V56.4l0.2-0.2c-0.4-0.9-1.1-1.6-1.9-1.9
	c-0.9-0.4-1.9-0.6-2.9-0.7c-0.5,0-0.9,0.1-1.4,0.3c-0.2,0.1-0.4,0.2-0.6,0.3c-0.2,0-0.3,0-0.5-0.1c-0.2-0.1-0.3-0.1-0.5-0.1
	c-0.7,0-1.1,0.4-1.1,1.2c0,0.2,0,0.4,0.1,0.5c0,0.2,0,0.4,0.1,0.5c-0.3,0.1-0.7,0.2-1,0.3c-0.2,0-0.4,0.1-0.6,0.2
	c-0.7,0.9-1.3,1.9-1.7,3c-0.4,0.4-0.6,0.6-0.8,0.9c-0.1,0.2-0.3,0.3-0.4,0.5V57c0.4-0.3,0.6-0.8,0.6-1.3c0-0.5-0.1-1.1-0.3-1.6
	c-0.2-0.6-0.4-1.2-0.8-1.8c-0.3-0.5-0.7-1-1.1-1.5c-0.3-0.4-0.7-0.7-1.1-0.9c0-1.1-0.9-2-2-2c-0.1,0-0.1,0-0.2,0
	c-0.9,0.2-1.6,0.6-2.2,1.3c-1.3-2.4-2.6-3.7-3.9-3.7c-1.3,0-2.4,1-3.4,3c-0.4-0.4-0.6-0.5-0.9-0.5c-1.1,0-1.7,1.2-2,3.7
	c-0.7-0.2-1.4,0-1.9,0.4c-0.5,0.4-0.8,1.1-0.8,1.7c0.1,1.1,0.7,2.2,1.6,2.8l0.2-0.1v48.1h18v-22c0-1.2,0.2-2.4,0.5-3.6
	c0.3-1,0.8-1.9,1.4-2.8C78.3,74.5,80.5,73.5,82.8,73.6z M74.4,56.6c-0.5,0.2-0.9,0.3-1.4,0.4c-0.7,0.2-1.4,0.4-2,0.8l-2.3,1
	c-0.7,0-1.5-0.6-2.5-1.8c-0.9-1.1-2.1-1.8-3.5-1.9c-1.9,0.1-3.7,0.5-5.4,1.2c-0.8-0.5-1.3-1.4-1.4-2.4c0-0.4,0.1-0.7,0.2-1.1
	c0.3-0.2,0.6-0.3,1-0.3c0.3,0,0.7,0.1,1,0.2l0.4-0.5c0-1.1,0.2-2.2,0.8-3.1c0.1-0.1,0.2-0.1,0.3-0.1c0.4,0,0.6,0.3,0.9,0.9
	c0.1-0.1,0.6-0.9,1.5-2.2c0.4-0.8,1.1-1.3,2-1.3c1.1,0,2.3,1.4,3.8,4.1c0.4-0.3,0.7-0.7,0.9-1.2c0.4-0.2,0.8-0.3,1.3-0.3
	c1.1,0,1.6,0.7,1.6,2c0.8,0,1.5,0.6,2.2,1.7c0.4,0.9,0.6,1.8,0.6,2.8C74.5,55.8,74.4,56.2,74.4,56.6L74.4,56.6z M75,64.3v-0.8
	c0.1,0.2,0.1,0.4,0.1,0.5L75,64.3z M75.5,61.6c0-0.4,0.5-1,1.4-1.9c0.3-0.4,0.5-0.9,0.6-1.3c0.1-0.3,0.3-0.7,0.4-1l0.6-0.2l0.8-0.2
	c0.6-0.2,0.9-0.5,0.9-1c0-0.4,0-0.7,0-1.1l0,0c0.2,0,0.3,0,0.5,0c0.1,0,0.3,0,0.4,0c0.3-0.1,0.5-0.2,0.8-0.3
	c0.4-0.2,0.9-0.3,1.4-0.3c2.1,0,3.5,0.7,4.2,2c-0.7,0.3-1.4,0.7-2,1.1c-0.6,0.3-1.2,0.5-1.8,0.5c-0.5,0-1-0.1-1.5-0.3
	c-0.5-0.2-1-0.2-1.5-0.3c-1.3,0-3,1.8-5,5.4C75.7,62.4,75.6,62,75.5,61.6L75.5,61.6z"/>
<path class="st1" d="M96.5,98.6c1.8,2.4,4.3,4.3,7.1,5.5c3.1,1.2,6.4,1.8,9.7,1.7c4.3,0.1,8.5-0.9,12.4-2.8c2-1,3.8-2.4,5.2-4.1
	c1.3-1.5,2.3-3.3,2.9-5.3l1.3-4.7l-2.9-0.4c-0.7-0.1-1.4-0.2-2.1-0.4c-0.9-0.4-1.9-0.6-2.9-0.6c-0.7,0-1.4,0.2-2,0.7
	c-0.4,0.4-0.9,0.6-1.5,0.7c-0.7,0-1.5-0.2-2.2-0.5c-0.6-0.3-1.3-0.4-1.9-0.5c-0.6,0-1.3,0.3-1.8,0.7c-0.3,0.3-0.7,0.5-1.1,0.7
	c-0.5-0.1-1-0.4-1.3-0.9c-0.1,0-0.2,0-0.3-0.1c0,0-0.1-0.1-0.2-0.1h-0.1c-2.4,0-4,0.5-4.9,1.5c-0.4-1.2-0.6-2.4-0.5-3.7
	c0-0.1,0-0.4,0.1-0.9s0.1-0.8,0.1-1.1h26.3c0-9.1-1.6-15.9-4.7-20.2c1.2-0.7,1.8-2.1,1.8-4c0-1.8-0.4-2.7-1.2-2.6h-0.1
	c0.1-1-0.1-2-0.5-2.9c-0.4-1.3-1.1-1.9-1.9-1.9c-0.4,0-0.8,0.2-1.1,0.5c-0.2-1.3-0.6-2.6-1.3-3.8c-0.9-1.5-1.8-2.3-2.7-2.3
	c-0.6,0.1-1.2,0.5-1.6,1c-0.2-3.1-1.7-4.6-4.3-4.6c-0.4,0-0.8,0.1-1.1,0.3c-0.3,0.3-0.7,0.5-1.1,0.7c-0.5,0.1-0.9,0.3-1.4,0.4
	s-0.9,0.2-1.3,0.3c-0.3,0-0.6,0.2-0.8,0.4c-0.3,0.3-0.5,0.5-0.8,0.9c-0.4-0.3-0.7-0.6-1.1-0.8c-0.4-0.2-0.7-0.5-1.1-0.8
	c-0.7-0.5-1.6-0.8-2.5-0.9c-0.8,0-1.8,0.6-3.1,1.7c-0.1,0.4-0.3,0.8-0.4,1.2s-0.2,0.7-0.3,0.9c-0.6,0.4-1.4,0.6-2.1,0.6h-0.6
	c-0.1,0-0.2,0-0.3,0c0,0-0.1-0.1-0.2,0H100c-1.4,0-2.4,1-2.9,3C96.7,51,96.3,51,95.9,51c-0.4,0-0.8,0-1.2,0.1
	c-0.8,0.3-1.3,1.1-1.3,2c0,0.4,0.1,0.8,0.3,1.1c0.2,0.5,0.4,0.9,0.6,1.4l0.6,1.3c0.1,0.3,0.2,0.6,0.3,0.9c-0.1,0.6-0.5,1.2-1,1.6
	c-0.6,0.4-0.9,1.1-1,1.8c0,0.9,1,1.5,2.9,2c-3.2,4.3-4.9,10.1-4.9,17.2C91.3,88.2,93,94.2,96.5,98.6z M114.7,88.8h0.3
	c0.7,0.7,1.2,1.1,1.5,1.1c0.4-0.1,0.8-0.3,1.2-0.6c0.5-0.4,1.1-0.6,1.7-0.6c0.7,0,1.4,0.2,2,0.4c0.6,0.2,1.3,0.4,1.9,0.4
	c0.6,0,1.2-0.2,1.7-0.7c0.6-0.4,1.3-0.7,2-0.7c0.4,0,0.7,0,1.1,0.1c-0.8,0.6-1.6,1.3-2.2,2.2c-0.7,0.8-1.6,1.3-2.7,1.4
	c-1.5,0.1-2.9-0.4-4.1-1.2c-0.9,1.2-2.7,1.8-5.5,1.8c-0.9,0.1-1.8-0.2-2.5-0.9c-0.1,0-0.5-0.6-1.1-1.7
	C111.5,89.1,113.1,88.7,114.7,88.8z M118,74.4h-8.7v-1.1c0-1.4,0.3-2.8,1.1-4c0.7-1.2,2-1.9,3.3-1.9c1.4,0.1,2.6,0.9,3.2,2.2
	c0.7,1.2,1.1,2.5,1.1,3.9V74.4z M94,61.1c0.1-0.7,0.5-1.3,1-1.7c0.7-0.7,1-1.3,1-1.6c0-0.4-0.1-0.7-0.3-1.1
	c-0.2-0.4-0.4-0.9-0.6-1.3c-0.2-0.4-0.5-0.9-0.6-1.3c-0.2-0.3-0.3-0.7-0.3-1.1c0-0.4,0.1-0.9,0.4-1.2c0.1,0,0.2,0,0.3,0
	c0,0,0.1-0.1,0.2,0h0.1c1.6,0,2.4-0.1,2.5-0.4c0.1-0.3,0.2-0.7,0.3-1.1c0.1-0.4,0.2-0.7,0.3-1.1c0.3-0.2,0.6-0.4,1-0.4
	c0.5-0.1,1-0.1,1.5-0.2s1.1-0.1,1.6-0.2c0.4,0,0.8-0.2,1.1-0.4c0.5-0.7,0.9-1.5,1.2-2.3c0.4-0.9,1.3-1.4,2.3-1.3
	c1,0.1,1.9,0.4,2.7,1l2.3,1.6l0.5-0.5c0-0.1,0-0.2,0.1-0.3l0.2-0.3c0.2-0.2,0.5-0.3,0.8-0.3c0.4-0.1,0.8-0.1,1.3-0.2
	c0.9,0,1.7-0.4,2.3-1c0.4-0.2,0.8-0.3,1.2-0.3c2.2,0,3.5,1.7,3.9,5.2c0.6-0.6,1.2-1.1,1.9-1.5c1.1,0,1.9,0.8,2.6,2.5
	c0.5,1.3,0.8,2.6,0.8,4c0.5-0.6,1.2-1,1.9-1.1c1.2,0,1.8,1.2,1.8,3.6c0,0.5-0.1,1.1-0.2,1.6c0.3-0.3,0.6-0.4,1-0.4h0.3
	c0.2,0.6,0.4,1.2,0.3,1.8c0.1,1.2-0.3,2.4-1,3.3c-0.2,0-0.4,0.1-0.4,0.3c-1.8-2.4-4.6-3.8-7.6-3.8h-0.5c-0.4,0-0.7,0-1.1,0.1
	c-0.7,0-1.3-0.3-1.9-0.6c-0.9-0.6-1.6-1.4-2.2-2.2c-1.6-2-3.1-3-4.4-3c-2.2,0-5,1.8-8.2,5.5c-0.7,0.9-2.1,1.4-4.1,1.6
	c-2.2,0.4-3.6,0.9-4.2,1.7C94.9,62.3,94,61.9,94,61.1L94,61.1z"/>
<path class="st1" d="M138.6,71.4h5.2v33.3h18V71.6h6V57.5l0.3-0.3c-0.6-0.8-1-1.5-1.4-2c-0.3-0.5-0.6-1-1-1.4
	c-1.4,0.4-2.2,0.5-2.4,0.5c-0.9,0-1.3-0.9-1.3-2.8l-0.2,0.2v-8.9h0.1c1.1,0,1.7-0.9,1.7-2.8c0-2.4-0.5-3.6-1.4-3.6
	c-0.2-1-0.8-1.8-1.5-2.5c-0.6-0.8-1.5-1.3-2.5-1.3c-0.4,0-0.8,0.2-1.1,0.5c-0.4-1.7-1.1-2.5-2.3-2.5c-0.4,0-0.8,0.2-1,0.5
	c-0.4-1.9-1.2-2.8-2.6-2.8c-1.7,0-3.1,1.1-4.3,3.5c-0.8-0.4-1.6-0.6-2.5-0.6c-1.1-0.2-2.1,0.6-2.3,1.7c0,0.2,0,0.4,0,0.6v0.4
	c-1.2,0.2-1.8,1.1-1.8,2.7c0,0.9-0.2,1.7-0.5,2.5c-0.2,0.4-0.4,0.8-0.5,1.2c0,1.7,1.4,2.7,4.3,2.9v9.2c-0.4,0.6-0.8,1.2-1,1.8
	c-0.5-0.1-0.9-0.2-1.4-0.3l-0.4,0.5c-0.5,0.1-0.9,0.2-1.4,0.3c-0.5,0.1-0.8,0.6-0.7,1.1V57l-0.2,0.1l-1,1.2c0.3-0.1,0.6-0.3,0.9-0.5
	L138.6,71.4z M163.3,54.9c0.7,0,1.3-0.2,1.9-0.4c0.3,0.5,0.6,1,1,1.5c0.3,0.4,0.6,0.7,0.7,0.9c-1-0.3-2.1-0.5-3.2-0.5h-0.9
	c-0.3,0-0.6,0-0.9,0.1v-2C162.3,54.8,162.8,55,163.3,54.9z M140.3,40.3c0-0.5,0.2-0.9,0.6-1.3c0.4-0.4,0.5-1,0.5-1.5
	c-0.1-0.9,0-1.8,0.2-2.7c0.3-0.1,0.7-0.2,1.1-0.2l0.5-0.4c-0.2-0.6-0.2-1.3,0.1-1.8c0.3-0.2,0.7-0.4,1.1-0.3c0.9,0,1.9,0.3,2.7,0.8
	l0.4-0.4c1-2.1,2.3-3.1,3.8-3.1c1.1,0,1.8,1.1,2.2,3.2c0.4-0.5,0.9-0.8,1.5-0.9c1.1,0,1.6,0.8,1.6,2.3c0,0.2,0,0.4-0.1,0.7l0.3,0.3
	l0.4-0.4c0-0.3,0.1-0.6,0.2-0.9h0.8c1,0,1.9,0.5,2.4,1.3c0.6,0.8,0.9,1.8,0.9,2.8v0.3l0.6-0.7l0.1,0.1c0.5,0.8,0.7,1.8,0.6,2.8
	c0,0.7-0.1,1.3-0.3,1.9h-0.9l-0.1,0.1c-0.4,0.1-0.8,0.3-1.5,0.5s-1.4,0.4-2.2,0.7c-0.8,0.3-1.6,0.6-2.4,0.8c-0.7,0-1.6-0.6-2.8-1.9
	c-1.2-1.5-2.4-2.2-3.6-2.2c-2,0.2-3.9,0.9-5.5,2.2C141.5,42.1,140.3,41.5,140.3,40.3L140.3,40.3z M139.7,56.5v-1.2
	c0.6-0.2,1.2-0.4,1.7-0.7c0.4,0.1,0.7,0.2,1.1,0.2c0.4,0,0.9-0.5,1.3-1.4v2.8c-1.4-0.2-2.9,0-4.2,0.5
	C139.6,56.8,139.7,56.7,139.7,56.5L139.7,56.5z"/>
<path class="st1" d="M170.6,67.6c0.1,0.3,0.2,0.5,0.3,0.8c-0.2,1-0.3,2-0.3,3c-0.1,3.6,1.4,7.1,4.1,9.6c2.4,1.9,5,3.5,7.8,4.7
	c2.9,1.4,4.5,2.6,4.7,3.4c-1.1,1-2.4,1.8-3.7,2.5c-1.2-1.4-3-2.3-4.9-2.4c-0.4,0-0.7,0.2-1,0.4l-1.7-1.5c-0.4-0.3-0.7-0.7-1-1.1
	l-6.9,13.2c1.3,0.7,2.7,1.3,4.1,2c1.4,0.7,2.8,1.3,4.2,1.9c2.9,1.2,6,1.8,9.2,1.8c5.9,0,10.5-1.4,13.8-4.3c3.5-3.2,5.3-7.7,5.3-13.4
	c0.1-3.5-1.4-6.9-4.1-9.2c-2.4-1.7-5-3.2-7.6-4.4c-2.7-1.3-4.1-2.8-4.1-4.3s0.9-2.3,2.7-2.2c1.3,0,2.6,0.4,3.7,1.1
	c1.4,0.9,2.7,2,3.7,3.3l6.5-12.6l0.4-0.4c0-1.5-0.2-3-0.5-4.4c-0.5-2.2-1.2-3.3-1.9-3.3c-0.4,0-0.7,0.2-0.9,0.5
	c-0.8-2.1-1.6-3.2-2.4-3.2c-0.7,0.1-1.3,0.4-1.7,0.9c-1.3-2.2-2.2-3.2-2.8-3.2c-0.4,0-0.8,0.3-1,0.7c-0.7-2.2-1.8-3.3-3.3-3.3
	c-1.1,0-1.7,0.8-1.9,2.5c-1.9-0.8-3.9-1.3-5.9-1.6c-1.4,0-2.2,0.7-2.2,2c0,0.2,0,0.4,0,0.6c0,0.2,0,0.5,0,0.7c-1.1,0-2,0.7-2.4,1.7
	l-0.5,2c-0.6,0.4-1.3,0.7-2,0.9c-0.8,0.1-1.3,0.7-1.4,1.9c-2.4,0-3.6,0.6-3.6,1.8c0.1,0.3,0.2,0.6,0.5,0.9c0.3,0.4,0.5,0.6,0.5,0.8
	l-0.9,0.4c-0.7,0.5-1.1,1.3-1.3,2.2c0,0.3,0.1,0.6,0.2,0.9c0.1,0.3,0.1,0.5,0.2,0.8c-0.1,0.3-0.3,0.6-0.5,0.8
	c-0.3,0.3-0.5,0.7-0.5,1.1c0.1,0.6,0.3,1.2,0.5,1.8C170.3,66.7,170.5,67.2,170.6,67.6z M186.4,92.6c-0.5,0.9-1.5,1.4-2.5,1.4
	c-0.7,0-2.5-1.2-5.3-3.6c1.7,0.3,3.3,1,4.6,2c0.7,0,2.1-0.9,4-2.8C187.3,90.7,187,91.8,186.4,92.6L186.4,92.6z M170.7,63.2
	c0.2-0.2,0.4-0.4,0.5-0.7c0-0.3-0.1-0.6-0.2-0.9c-0.1-0.3-0.2-0.6-0.2-0.9c0-0.5,0.2-0.9,0.5-1.3c1.1-0.5,1.7-0.9,1.7-1.2
	c-0.1-0.3-0.3-0.6-0.5-0.8c-0.3-0.2-0.4-0.6-0.5-0.9c0-0.2,0.1-0.3,0.2-0.4c0.4-0.3,1-0.4,1.5-0.3h1.5l0.4-0.5c0-0.5,0-1,0.2-1.5
	c0.9-0.2,1.8-0.6,2.6-1.1c0.5-0.4,0.8-1,0.9-1.7c0-0.5,0.1-0.9,0.3-1.3c0.7-0.3,1.4-0.5,2.2-0.4l0.4-0.4c-0.1-0.3-0.2-0.7-0.3-1.1
	c-0.1-0.3-0.1-0.6-0.1-0.9c0-0.3,0-0.5,0.2-0.8c0.4-0.2,0.8-0.2,1.2-0.2c0.7,0.1,1.4,0.2,2.1,0.4c1,0.3,2.5,0.8,4.3,1.4l0.4-0.5
	c0-0.7,0.1-1.3,0.4-1.9h0.4c0.1,0,0.1,0,0.1-0.1c0,0,0,0,0,0c1.7,0,2.7,1.3,3,3.9l0.8-0.8l0.2-0.5h0.2c0.4,0,1,0.5,1.6,1.4
	c0.1,0.4,0.3,0.7,0.5,1c0.2,0.3,0.5,0.7,0.6,1c0.5-0.5,1.1-0.9,1.8-1c0.6,0,1.3,1.2,2.2,3.7c0.3-0.3,0.6-0.6,0.8-1
	c0.1-0.1,0.3-0.1,0.4-0.1c0.9,0,1.5,2.3,1.8,7c-1.7-0.4-3.1-0.8-4.4-1.1s-2.3-0.5-3.1-0.7c-0.5-0.2-0.9-0.5-1.2-0.8
	c-0.5-0.4-1.1-0.9-1.8-1.5c-0.9-1-2.1-1.6-3.5-1.7c-1.3,0-2.7,1-4.2,2.9c-1.5,1.9-2.8,2.9-4,2.9c-0.7,0-1.4-0.2-2.1-0.4
	c-0.8-0.2-1.5-0.3-2.3-0.4c-0.5,0-1.1,0.2-1.5,0.5c-2.7,1.8-4.7,4.5-5.6,7.6c-0.5-0.8-0.9-1.7-1.1-2.6
	C170.2,63.9,170.4,63.5,170.7,63.2z"/>
<path class="st1" d="M18.9,25.1c1.9,1.8,4.3,2.8,6.9,2.8c2.8,0.1,5.5-0.9,7.6-2.7c1-0.9,1.8-1.9,2.3-3.1c0.5-1.3,0.8-2.7,0.8-4.2
	c0-1-0.1-2-0.4-2.9l0.2-0.1c0-0.4,0-0.8,0.1-1.1c0.1-0.5,0.2-0.9,0.3-1.4s0.2-0.9,0.3-1.4c0.1-0.4,0.1-0.7,0.2-1.1
	c0-0.6-0.2-1.1-0.5-1.5c-0.5-0.8-0.8-1.7-1-2.6c-0.4-1.1-0.9-1.6-1.5-1.6c-0.7,0-1,0-1-0.1c-0.1-0.2-0.2-0.5-0.2-0.8V1.2
	c-0.1-0.7-0.7-1.2-1.4-1.2c-0.8,0-1.6,0.3-2.2,0.9c-0.7,0.6-1.1,0.9-1.3,0.9c-0.3,0-0.5-0.1-0.8-0.2c-0.2-0.1-0.5-0.1-0.7-0.2
	c-0.1,0-0.5,0.2-0.9,0.6c-0.3,0.3-0.6,0.6-1,0.8c-0.2,0-0.5-0.3-1-0.9C23.2,1.4,22.6,1.1,22,1c-0.9,0-1.5,0.5-1.9,1.6
	c-0.1,0.4-0.3,0.8-0.4,1.2s-0.3,0.8-0.4,1.2c-0.5,0.2-1.1,0.3-1.6,0.4c-0.6,0.5-1,1.2-1.1,2c0,0.6-0.1,1.3-0.3,1.8
	c-0.4,0.1-0.8,0.2-1.2,0.2c-0.5,0.5-0.8,0.9-0.8,1.2c0,0.4,0.1,0.8,0.2,1.1c0.1,0.3,0.2,0.7,0.2,1.1c0,0.3-0.1,0.6-0.3,0.8
	s-0.3,0.5-0.3,0.8c0.3,1.2,0.9,2.4,1.6,3.5c0,0.6,0.1,1.1,0.2,1.7c0,0.2,0.1,0.4,0.2,0.7C16.6,22.2,17.6,23.8,18.9,25.1z M15.7,16.5
	c-0.4-0.6-0.7-1.3-0.9-2c0-0.3,0.1-0.6,0.3-0.8s0.3-0.5,0.3-0.8c0-0.3-0.1-0.7-0.2-1c-0.1-0.4-0.2-0.7-0.2-1.1c0-0.1,0-0.2,0.1-0.3
	c1.1-0.3,1.8-0.8,2-1.7c0.2-0.8,0.3-1.6,0.5-2.4c1.4-0.1,2.5-1.3,2.6-2.7c0.3-1.3,0.9-1.9,1.7-1.9c0.4,0,0.8,0.3,1.3,0.9
	c0.5,0.6,0.9,0.9,1,0.9s0.8-0.4,1.6-1.3l0.2-0.1c0.3,0,0.5,0,0.8,0.1c0.2,0.1,0.5,0.1,0.7,0.1c0.6-0.1,1.1-0.4,1.6-0.8
	c0.6-0.5,1.3-0.8,2-0.8c0.3,0,0.6,0.1,0.9,0.2c0.1,0.3,0.2,0.7,0.2,1v2.3c0,0.1,0.1,0.2,0.2,0.3c0.2,0.2,0.4,0.3,0.7,0.3
	c0.2,0,0.5,0.1,0.8,0.1h0.5c0.2,0.5,0.4,1.1,0.5,1.7c0.1,0.7,0.4,1.4,0.8,1.9c0.4,0.4,0.7,1,0.7,1.6c0-0.1-0.2,1.1-0.7,3.4
	c-0.6-1.2-1.3-2.3-2.2-3.2c-1.7-2-3-3-3.8-3c-1,0.1-1.9,0.4-2.6,1.1c-0.8,0.7-1.8,1.1-2.9,1.1c-0.4,0-0.9,0-1.7-0.1
	c-0.8-0.1-1.3-0.1-1.7-0.1c-1.4,0-2.7,0.8-3.8,2.5C16.2,13.2,15.7,14.8,15.7,16.5z"/>
<path class="st1" d="M32.3,4.3c0-0.1-0.1-0.1-0.1-0.2C32.2,4.4,32.3,4.4,32.3,4.3z"/>
<path class="st1" d="M32.2,4.1V3.8C32.2,3.9,32.2,4,32.2,4.1z"/>
<path class="st0" d="M333.8,28.4c-0.4,0-0.9,0-1.3,0.2c0.6-0.5,1-1.2,1.2-1.9c0-0.7-0.3-1.4-0.7-2c-0.3-0.7-1-1.1-1.7-1.1l-0.1,0.1
	v0.1l-0.2,0.1l-0.9,0.9c0.2-0.3,0.3-0.6,0.3-0.9h-0.1c0.3-0.4,0.4-0.8,0.4-1.3c0-1.1-0.7-1.7-2.2-1.7c-1.2,0-1.9,0.5-2.2,1.4
	l-0.8,0.7c-0.2-1.2-0.7-1.8-1.4-1.8c-1.4,0-2.2,0.9-2.2,2.7l-0.5,0.5c-0.7-1.8-1.5-2.7-2.4-2.7c-1.1,0-1.6,1-1.6,2.9
	c0,0.3,0,0.6,0.1,0.9c0,0.3,0.1,0.6,0.2,1l-0.4,0.4c-2.3,0-3.4,0.9-3.4,2.8c0,0.9,0.5,1.7,1.2,2.3c2.2-1.7,4.2-2.6,6-2.6
	c1.1,0,2.1,0.7,3,2c0.9,1.3,1.7,2,2.4,1.9s2.6-0.5,5.9-1.3l0.6-0.5l0.5-0.2c0.4-0.6,0.6-1.3,0.5-1.9c0-0.3,0-0.6-0.1-0.9L333.8,28.4
	z"/>
<path class="st0" d="M360,70.6c-0.7,0.9-1.2,1.3-1.6,1.3c-0.9,0-1.3-0.5-1.3-1.4c0-0.1,0.2-0.4,0.5-0.8c0.3-0.2,0.4-0.5,0.5-0.9
	c-0.2-0.6-0.6-1.1-1-1.5c-1,1.6-1.5,3.3-1.6,5.2c0,2.9,0.6,4.5,1.8,4.7c0.7-2.6,1.7-4,3-4.1c0.7,0,1.2-1.3,1.7-3.9h-0.4
	C361.1,69.4,360.5,69.8,360,70.6z"/>
<path class="st0" d="M356.8,31.7l0.5-0.4c0.3,0,0.7,0,1,0.1c0.3,0.1,0.7,0.1,1,0.1h0.5c0.1-0.4,0.1-0.7,0.1-1.1
	c0-2.1-0.6-3.1-1.7-2.9v-0.9c0-1.5-0.7-2.3-2.1-2.3h-0.4c-0.1,0.3-0.2,0.5-0.4,0.8c-0.3,0.4-0.6,0.7-0.9,1c0.1-0.7,0.3-1.3,0.6-1.9
	c-0.3-1.3-1.1-2.5-2.2-3.3c-1.3-1.3-2.4-1.9-3.5-1.9h-0.2V19l-0.5,0.7c-0.3-0.6-0.8-1-1.5-1.1c-0.3,0-0.6,0.1-0.8,0.3
	c-0.3,0.3-0.5,0.8-0.3,1.2l-0.4,0.5c-0.2-0.1-0.4-0.1-0.5-0.1c-0.4,0-0.8,0.1-1.2,0.3c-0.1,0.1-0.1,0.3-0.1,0.4
	c0,0.2,0.1,0.4,0.2,0.5l-0.4,0.5c-0.6,0.3-1,0.7-1,1.2c0.1,0.8,0.4,1.5,0.8,2.2l-0.5,0.4c-2.9,0-4.3,1.1-4.3,3.4
	c0,0.7,0.2,1.4,0.6,2c1.7-1,3.7-1.7,5.7-1.8c0.7,0,1.7,0.6,2.9,1.8c1.2,1.2,2.1,1.8,2.6,1.8c0.7-0.3,1.4-0.6,2-1
	c1.1-0.5,2.3-0.8,3.6-0.9C356.2,31.6,356.5,31.6,356.8,31.7z"/>
<path class="st0" d="M308.9,52.7c0.1-0.4,0.2-0.9,0.2-1.3c0-2.2-0.6-3.2-1.7-3.2c-0.4,0-0.7,0.2-1,0.8c-0.6-1.1-1.2-1.6-1.7-1.6
	c-0.3,0-0.5,0.1-0.8,0.2c-0.2,0.5-0.5,0.9-1,1.2c-0.4-1.8-1.3-2.7-2.5-2.7s-1.9,0.7-2.1,2l-0.5,0.5c-0.9-0.3-1.4-0.4-1.5-0.4h-0.1
	c-0.1,0-0.2,0-0.2,0.1c-0.1,0-0.1,0.1-0.2,0.1l-0.5,1.5c-0.1,0.5-0.6,0.9-1.1,0.9c-0.2,0-0.5-0.1-0.7-0.3c-0.2-0.1-0.4-0.2-0.6-0.3
	c-0.7,0.2-1.1,0.9-1.1,1.6c0.1,0.5,0.3,0.9,0.6,1.2c0.4,0.3,0.6,0.7,0.6,1.2c-0.1,0.4-0.3,0.8-0.6,1.1c-0.4,0.4-0.6,0.8-0.8,1.4
	c1.7,1,3.6,1.6,5.6,1.7c1.4,0,2.7-0.8,3.5-2c1.2-1.4,2.2-2.2,2.9-2.2c2,0.1,3.9,0.9,5.4,2.3c0.1-0.1,0.1-0.1,0.2-0.1
	c0,0,0.1,0,0.2-0.1c0.5-0.7,0.8-1.5,0.9-2.4c0-0.4-0.1-0.7-0.3-1C309.5,52.7,309.2,52.7,308.9,52.7z"/>
<path class="st0" d="M380.7,54.4c1,0,2,0.3,2.8,0.9c-0.3-1-0.4-2-0.3-3c0-0.4-0.1-0.8-0.2-1.2l-0.2-0.1c-0.3,0-0.6,0.2-0.8,0.4
	l-1-1.3c-0.2-0.4-0.7-0.7-1.2-0.8c-0.5,0.1-0.9,0.3-1.2,0.8c-0.4,0.5-0.7,0.8-0.9,0.8c-0.1,0-0.4-0.2-0.8-0.6
	c-0.3-0.4-0.7-0.6-1.1-0.6l-0.4,0.2c-1.2,1.4-1.8,2-2,2c-0.2,0-0.4-0.2-0.8-0.5c-0.3-0.3-0.7-0.5-1.1-0.5c-0.1,0.1-0.1,0.1-0.2,0.1
	c-0.1,0-0.2,0.1-0.3,0.1c-1.5,2-3.2,4-5,5.8c1,0.5,2.1,0.9,3.2,1.2c0.9,0.3,1.9,0.4,2.8,0.4c1.8-0.1,3.6-0.8,5.1-1.9
	C379.1,55,380.3,54.4,380.7,54.4z"/>
<path class="st0" d="M291.7,85.3c-2,2.2-3.3,3.3-3.8,3.3c-0.5-0.1-1-0.3-1.3-0.8l-0.9-0.3c-0.4-0.1-0.8-0.3-1.2-0.6v-1.7
	c0-0.2-0.1-0.5-0.2-0.6v2.6c0,2.9,1.8,4.4,5.5,4.4c0.7-0.1,1.3-0.4,1.7-1c0.5-0.5,0.8-1.1,0.9-1.8c0-0.6-0.2-1.2-0.4-1.7
	C291.8,86.5,291.7,85.9,291.7,85.3z"/>
<path class="st0" d="M285.2,55.7c-0.1-0.2-0.3-0.4-0.4-0.6c-0.2-0.2-0.6-0.7-1.1-1.2c-0.1-0.3-0.3-0.6-0.4-1
	c-0.2-0.4-0.3-0.9-0.4-1.3c-0.1-0.1-0.3-0.1-0.4-0.1c-0.3,0-0.6,0.1-0.9,0.3l-0.3-0.6l-0.5,0.1c-0.6,0.9-1.2,1.8-1.8,2.6h-0.1
	c-0.4,0-1.2-1-2.2-3.1c-1-2.1-1.7-3.1-2.1-3.1h-0.1c-0.1,0-0.1,0-0.2,0.1s-0.1,0.1-0.2,0.1c-0.1,0.1-0.2,0.3-0.3,0.4
	c-0.1,0.2-0.2,0.4-0.2,0.6l-0.6,0.5c-0.4-1-1-1.5-1.8-1.5c-0.3,0-0.6,0.1-0.9,0.3c-0.2,1-0.3,2.1-0.2,3.1c0,0.5-0.1,0.9-0.2,1.4
	l-0.4,0.4c-0.3-0.1-0.6-0.1-0.9-0.1c-0.1,0.4-0.2,0.9-0.3,1.4c-0.1,0.6-0.3,1.1-0.5,1.7c1.5-0.9,3.1-1.5,4.9-1.5
	c1.3,0,2.4,0.8,3,1.9c0.9,1.3,1.5,1.9,1.9,1.9c-0.1,0,0.3-0.1,1.4-0.4c1-0.3,2.7-0.7,4.9-1.3l0.4-0.4c0.2-0.1,0.3-0.1,0.5-0.2
	C284.8,56,285.1,55.9,285.2,55.7z"/>
<path class="st0" d="M260.8,29.4c-0.4-1.7-1.1-2.5-1.9-2.5c-0.6,0.1-1.2,0.4-1.6,0.8c0.1-0.4,0.1-0.7,0.1-1.1c0-2.3-1.1-3.4-3.3-3.4
	c-1.4,0-2.9,0.8-4.4,2.4c-0.1-2.1-0.9-3.1-2.2-3.1c-1,0-1.5,0.6-1.5,1.9l-0.5,0.4h-0.3c-0.9,0-1.7,0.4-2.3,1
	c-0.7,0.5-1.1,1.3-1.1,2.2c0,0.5,0.2,1,0.5,1.4l-0.4,0.4c-1.7,0.4-2.5,1.1-2.5,2.3c0.1,1.2,0.6,2.4,1.3,3.4c0.5,0.8,0.9,1.6,1.2,2.4
	c0.2,0.6,0.4,1.1,0.6,1.4c0.9-3.7,2.2-5.5,4.1-5.5c0.8,0.1,1.6,0.3,2.3,0.6c0.7,0.4,1.5,0.6,2.3,0.6c0.6,0,1.3-0.5,2.2-1.5
	c0.6-0.9,1.6-1.5,2.7-1.6c0.9,0,2.1,0.7,3.6,2.2c0.5,0.4,1,0.9,1.3,1.4c0.4-0.8,0.6-1.8,0.5-2.7C261.4,31.6,261.2,30.4,260.8,29.4z"
	/>
<path class="st0" d="M593.3,104.5c-0.1-0.6-0.2-1.2-0.5-1.7h-0.5c-0.3,0-0.5,0-0.8-0.1c-0.3,0-0.5-0.1-0.7-0.3
	c-0.1-0.1-0.2-0.2-0.2-0.3c0,0.1,0,0.1-0.1-0.2c0-0.1,0-0.2,0-0.3v0.3c0,0.1,0,0.1,0.1,0.2v-2.2c0-0.4-0.1-0.7-0.2-1.1
	c-0.3-0.1-0.6-0.2-0.9-0.2c-0.7,0-1.4,0.3-2,0.8c-0.4,0.4-1,0.7-1.6,0.8c-0.2,0-0.5,0-0.7-0.1c-0.3-0.1-0.5-0.1-0.8-0.1l-0.2,0.1
	c-0.9,0.9-1.4,1.3-1.6,1.3c-0.1,0-0.5-0.3-1-0.9c-0.5-0.6-1-0.9-1.3-0.9c-0.9,0-1.4,0.6-1.7,1.9c-0.1,1.4-1.2,2.5-2.6,2.6
	c-0.1,0.8-0.3,1.6-0.5,2.4c-0.2,0.8-0.8,1.4-2,1.7c-0.1,0.1-0.1,0.2-0.1,0.3c0,0.4,0.1,0.8,0.2,1.1c0.1,0.3,0.2,0.7,0.2,1
	c0,0.3-0.1,0.6-0.3,0.8c-0.2,0.2-0.3,0.5-0.3,0.8c0.1,0.7,0.4,1.4,0.9,2c0.1-1.7,0.6-3.3,1.5-4.6c1.1-1.7,2.3-2.5,3.8-2.5
	c0.4,0,0.9,0,1.7,0.1s1.3,0.1,1.7,0.1c1.1,0,2.1-0.4,2.9-1.1c0.7-0.6,1.6-1,2.6-1.1c0.8,0,2,1,3.8,3c0.9,1,1.6,2.1,2.2,3.2
	c0.4-2.4,0.7-3.5,0.7-3.4c0-0.6-0.2-1.2-0.7-1.6C593.7,105.8,593.4,105.2,593.3,104.5z"/>
<path class="st0" d="M481.3,56.3l-0.3-0.2c0.2-0.2,0.2-0.5,0.2-0.8c0-1-0.4-2-1-2.9c-0.4-0.8-1.2-1.4-2.1-1.6l0.2-0.2
	c0.5-0.5,0.8-1.1,0.9-1.8c0-1.2-0.6-1.8-1.9-1.8c-0.9,0-1.7,0.5-2.2,1.2c-0.8,1.4-1.3,2.2-1.5,2.2c-0.4-1.6-0.9-2.4-1.4-2.4
	c-0.8,0.6-1.5,1.2-2.3,1.9c-0.4-1.2-0.9-1.7-1.6-1.7c-1.1,0-1.6,0.6-1.6,1.7c0,0.4,0,0.9,0.1,1.3c0.1,0.5,0.1,0.9,0.1,1.4l-0.4,0.4
	c-0.7-0.6-1.4-1-2.3-1.2h-0.2c-0.2,0.7-0.4,1.4-0.6,2l-0.5,0.5c-0.3-0.2-0.6-0.4-1-0.4v0.5c0.1,0.8,0.5,1.5,1.2,1.8l-0.1,0.1
	c0.6,0.1,1.1,0.2,1.7,0.2h2.1c1.8,0,3.5-0.4,5.2-1.1c1.1-0.5,2.2-1,3.3-1.3c1,0,3.1,1.1,6.4,3.2c0-0.3,0-0.5-0.1-0.8
	C481.4,56.6,481.4,56.5,481.3,56.3z"/>
<path class="st0" d="M556.1,61.3c0-0.3-0.1-0.5-0.2-0.8c-0.5-0.1-1-0.1-1.4,0.1c0.8-1.2,1.3-2.5,1.5-3.9c0-0.7-0.5-1.2-1.6-1.5
	s-1.7-0.7-1.7-1c0.1-0.6,0.2-1.1,0.5-1.6c0.3-0.5,0.4-1.1,0.5-1.7c0-0.3,0-0.7-0.1-1H553c-0.1,0-0.2,0-0.2-0.1
	c-0.8,0.1-1.5,0.5-1.9,1.1v-0.6c0-1.8-0.6-2.8-1.7-3L549,48l-0.4,0.4c-0.7-0.9-1.4-1.4-1.9-1.4c-0.4,0-0.7,0.1-0.8,0.2
	c-0.4,0.6-0.7,1.3-0.7,2l-0.4,0.5c-0.6-0.7-1.5-1.2-2.5-1.3c-0.4,0-0.8,0.1-1.1,0.3l-0.1,0.1c-0.1,0.2-0.2,0.6-0.3,1.2l-0.5,0.5
	c-0.5-0.5-1.1-0.8-1.8-1h-0.1c-0.1,0-0.1,0-0.2,0.1c0,0-0.1,0.1-0.2,0.1c-0.4,0.4-0.6,0.9-0.6,1.4c0,0.1,0,0.3,0,0.4
	c0,0.1,0,0.2,0,0.3c0,0.4-0.8,0.7-2.5,0.9l-0.4,0.1c-0.1,0.2-0.1,0.4-0.1,0.5v0.1c0.1,0.6,0.2,1.2,0.5,1.8c0.2,0.5,0.4,1.1,0.5,1.7
	c0.2-0.2,0.5-0.2,0.8-0.3c0.5,0.1,1.1,0.3,1.5,0.6c0.4,0.3,1,0.5,1.5,0.6c0.4,0,1-0.4,1.8-1.3c0.7-1,1.9-1.6,3.1-1.5
	c1.4-0.2,2.8,0.5,3.6,1.6c0.6,1.1,1.2,2.1,2,3c0.3,0.1,0.5,0.2,0.8,0.4l1,0.5c0.4,0.2,0.9,0.5,1.5,0.8c0.9,0.5,1.7,1.3,2.2,2.3
	c0.2-0.3,0.4-0.6,0.5-0.9C555.9,62.3,556.1,61.8,556.1,61.3z"/>
<path class="st0" d="M579.9,33.6c1,0,2.1,1,3.3,3.1c1.2,2.1,2.6,3.1,4,3c0.9,0,1.8-0.2,2.6-0.4c1-0.3,2-0.7,3-1.2
	c0.1-1-0.1-2-0.5-2.9h-0.2c-0.5,0.1-1,0.3-1.5,0.5c0.8-0.8,1.3-2,1.3-3.1c0-0.4-0.1-0.7-0.2-1.1c-0.3-0.1-0.5,0-0.8,0.1
	c0-0.8-0.2-1.6-0.5-2.4c-0.1-0.1-0.2-0.1-0.3-0.1c-0.4,0-0.9,0.1-1.3,0.3c0.9-0.9,1.3-1.5,1.3-2c0-1.4-0.5-2-1.4-2l-0.2,0.1l-1,0.9
	c0.1-0.5,0.1-1,0.1-1.5c0-2.2-0.4-3.2-1.1-3.2c-0.3,0-0.6,0.2-0.9,0.4c-0.1-0.9-0.5-1.8-1.3-2.4h-0.1c-0.3-0.1-0.6-0.2-0.9-0.3
	c-0.3-0.2-0.6-0.3-1-0.3c-0.8,0-1.2,0.3-1.2,1c0,0.3,0.1,0.6,0.3,0.9c0.1,0.3,0.2,0.5,0.3,0.8c0,0.5-0.8,1.3-2.4,2.5
	s-2.3,2.2-2.3,3.2l-0.4,0.5l-0.6,0.3v1.2c0,0.5-0.3,1-0.8,1.3c-0.5,0.3-1.1,0.5-1.6,0.8c-1,1.4-1.5,3.1-1.5,4.8
	c-0.1,0.5,0,1,0.3,1.4c0.7,0.2,1.4,0.5,2,1C576,35.3,577.8,33.6,579.9,33.6z"/>
<path class="st0" d="M506,61.3c0-0.3-0.1-0.5-0.2-0.8c-0.5-0.1-1-0.1-1.4,0.1c0.8-1.2,1.3-2.5,1.5-3.9c0-0.7-0.5-1.2-1.6-1.5
	c-1.1-0.3-1.7-0.7-1.7-1c0.1-0.6,0.2-1.1,0.5-1.6c0.3-0.5,0.4-1.1,0.5-1.7c0-0.3,0-0.7-0.1-1h-0.5c-0.1,0-0.2,0-0.2-0.1
	c-0.8,0.1-1.5,0.5-1.9,1.1v-0.6c0-1.8-0.6-2.8-1.7-3l-0.1,0.8l-0.4,0.4c-0.7-0.9-1.4-1.4-1.9-1.4c-0.4,0-0.7,0.1-0.8,0.2
	c-0.4,0.6-0.7,1.3-0.6,2l-0.4,0.5c-0.6-0.7-1.5-1.2-2.5-1.3c-0.4,0-0.8,0.1-1.1,0.3l-0.1,0.1c-0.1,0.2-0.2,0.6-0.3,1.2l-0.5,0.5
	c-0.5-0.5-1.1-0.8-1.8-1h-0.1c-0.1,0-0.1,0-0.2,0.1c0,0-0.1,0.1-0.2,0.1c-0.4,0.4-0.6,0.9-0.6,1.4c0,0.1,0,0.3,0.1,0.4
	c0,0.1,0,0.2,0,0.3c0,0.4-0.8,0.7-2.5,0.9l-0.4,0.1c-0.1,0.2-0.1,0.4-0.1,0.5v0.1c0.1,0.6,0.2,1.2,0.5,1.8c0.2,0.5,0.4,1.1,0.5,1.7
	c0.2-0.2,0.5-0.2,0.8-0.3c0.5,0.1,1.1,0.3,1.5,0.6c0.4,0.3,1,0.5,1.5,0.6c0.4,0,1-0.4,1.8-1.3c0.7-1,1.9-1.6,3.1-1.5
	c1.4-0.2,2.8,0.5,3.6,1.6c0.6,1.1,1.2,2.1,2,3c0.3,0.1,0.5,0.2,0.8,0.4l1,0.5c0.4,0.2,0.9,0.5,1.5,0.8c0.9,0.5,1.7,1.3,2.2,2.3
	c0.2-0.3,0.4-0.6,0.5-0.9C505.8,62.3,506,61.8,506,61.3z"/>
<path class="st0" d="M537.7,87.8l-0.5,0.5l0,0l0,0c-0.6-0.3-1.3-0.6-2-0.8c-0.4,0.3-0.8,0.5-1.2,0.8c-0.7,0.3-1.4,0.6-2.1,0.9
	c-0.1-2.1-0.4-3.2-0.8-3.2l-0.1,0.3l-0.2,0.2c0.7,3.2,2,4.9,4.1,4.9c3.4,0,5.2-1.7,5.2-5c-0.7,0.1-1.4,0.3-2,0.5
	C537.8,87.1,537.7,87.4,537.7,87.8z"/>
<path class="st0" d="M487.6,87.8l-0.5,0.5l0,0l0,0c-0.6-0.3-1.3-0.6-2-0.8c-0.4,0.3-0.8,0.5-1.2,0.8c-0.7,0.3-1.4,0.6-2.1,0.9
	c-0.1-2.1-0.4-3.2-0.8-3.2l-0.1,0.3l-0.2,0.2c0.7,3.2,2,4.9,4.1,4.9c3.4,0,5.2-1.7,5.2-5c-0.7,0.1-1.4,0.3-2,0.5
	C487.7,87.1,487.5,87.4,487.6,87.8z"/>
<path class="st0" d="M438.2,86.7c-0.4,0.7-0.8,1.1-1.1,1.1s-0.9-0.7-1.6-2l-0.3-0.1c0.1,2-0.3,3-1.2,3c-0.3,0-0.8-0.5-1.6-1.5
	c-0.1-0.1-0.1-0.1-0.2-0.1c-0.1,0-0.2,0-0.3,0.1c0.6,2.7,1.8,4,3.6,4c2.4,0,3.8-1.9,4.3-5.6C439.1,85.7,438.5,86.1,438.2,86.7z"/>
<path class="st0" d="M531.5,56.3l-0.3-0.2c0.2-0.2,0.2-0.5,0.2-0.8c0-1-0.4-2-1-2.9c-0.4-0.8-1.2-1.4-2.1-1.6l0.2-0.2
	c0.5-0.5,0.8-1.1,0.9-1.8c0-1.2-0.6-1.8-1.9-1.8c-0.9,0-1.7,0.5-2.2,1.2c-0.8,1.4-1.3,2.2-1.5,2.2c-0.4-1.6-0.9-2.4-1.4-2.4
	c-0.8,0.6-1.5,1.2-2.3,1.9c-0.4-1.2-0.9-1.7-1.6-1.7c-1.1,0-1.6,0.6-1.6,1.7c0,0.4,0,0.9,0.1,1.3c0.1,0.5,0.1,0.9,0.1,1.4l-0.4,0.4
	c-0.7-0.6-1.4-1-2.3-1.2h-0.2c-0.2,0.7-0.4,1.4-0.6,2l-0.5,0.5c-0.3-0.2-0.6-0.4-1-0.4v0.5c0.1,0.8,0.5,1.5,1.2,1.8l-0.1,0.1
	c0.6,0.1,1.1,0.2,1.7,0.2h2.1c1.8,0,3.5-0.4,5.2-1.1c1.1-0.5,2.2-1,3.3-1.3c1,0,3.1,1.1,6.4,3.2c0-0.3,0-0.5,0-0.8
	C531.6,56.6,531.5,56.5,531.5,56.3z"/>
<path class="st0" d="M437.8,59.9c-0.2-0.5-0.4-0.9-0.6-1.4c-0.3-0.5-0.6-1.2-1.1-1.9l-0.9-0.8c-0.2-0.2-0.5-0.5-0.8-0.8
	c-0.9-0.6-1.3-1.1-1.3-1.5c0-0.3,0.1-0.6,0.2-0.9c0.1-0.2,0.1-0.5,0.2-0.8c0-0.1,0-0.2-0.1-0.2c-0.8-0.1-1.5-0.4-2.2-0.9
	c-0.5-0.8-0.8-1.7-0.9-2.7c-0.2-1.4-0.6-2.2-1.1-2.2c-0.5,0-1.2,0.6-1.9,1.9c-0.7,1.3-1.3,1.9-1.8,1.9c-0.5-0.1-0.9-0.3-1.2-0.8
	c-0.5-0.5-0.8-0.8-1-0.8c-0.1,0-0.2,0-0.3,0.1c-0.4,1-0.7,2.1-0.8,3.2c-0.5,0.4-1.1,0.6-1.7,0.6c-0.2,0-0.5,0.1-0.6,0.2
	c-0.2,0.4-0.3,0.9-0.4,1.3c-0.1,0.5-0.2,1.1-0.4,1.8l-0.4,0.5c-0.3-0.2-0.7-0.3-1.1-0.3h-0.2c-0.1,0.3-0.1,0.6-0.1,0.9
	c0,0.5,0.1,1,0.2,1.4c0.1,0.4,0.1,0.9,0.2,1.4l-0.5,0.4c-0.4,0-0.9,0.1-1.3,0.2v0.5c0,1,0.5,2,1.3,2.7c0.8-0.7,1.8-1.2,2.8-1.5
	c1-0.2,2-0.8,2.6-1.6c1.8-3,4-4.5,6.6-4.5c0.4,0,1.2,0.6,2.5,1.7c1.3,1.1,3,1.7,4.7,1.6C436.7,59.3,437.3,59.5,437.8,59.9z"/>
<path class="st0" d="M456.3,52.1v0.1l-0.8,0.8c0-2.5-0.7-3.8-2-3.8c-0.1,0-0.3,0.2-0.8,0.8c0-2.6-0.9-3.9-2.7-3.9H450
	c-0.1,0-0.2,0-0.2,0.1c-0.1,0-0.1,0.1-0.2,0.1l-0.2,0.4l-0.5,0.4c-0.8-0.7-1.9-1-2.9-1c-0.3,0-0.6,0-0.9,0.1c-0.3,0-0.6,0.1-0.8,0.3
	c-0.1,0.3-0.2,0.6-0.2,0.9l-0.4,0.5c-0.5-0.1-0.9-0.2-1.4-0.3c0,0.1,0,0.1-0.1,0.1c0,0,0,0,0,0c-0.1,0-0.2,0-0.2,0.1
	c-0.1,0-0.1,0.1-0.2,0.1c-0.4,0.7-0.6,1.5-0.5,2.4c-0.7,0.8-1.6,1.3-2.6,1.5c0.2,0.3,0.5,0.6,0.8,0.9c0.3,0.3,0.5,0.6,0.8,0.9
	c0.6,0.5,1,1.2,1,1.9c0,0.4-0.2,0.9-0.4,1.2c1.6-0.7,3.3-1.1,5-1.2c0.9,0,1.9,0.8,3.1,2.3s2.2,2.2,2.8,2.2c0.6,0,2.5-1,5.5-2.9
	l0.6-2.9C457.6,53,457.1,52.3,456.3,52.1z"/>
<path class="st0" d="M409.5,28.4c-0.4,0-0.9,0-1.3,0.2c0.6-0.5,1-1.2,1.2-1.9c0-0.7-0.3-1.4-0.7-2c-0.3-0.7-1-1.1-1.7-1.1l-0.1,0.1
	v0.1l-0.2,0.1l-0.9,0.9c0.2-0.3,0.3-0.6,0.3-0.9H406c0.3-0.4,0.4-0.8,0.4-1.3c0-1.1-0.7-1.7-2.2-1.7c-1.2,0-1.9,0.5-2.2,1.4
	l-0.8,0.7c-0.2-1.2-0.7-1.8-1.4-1.8c-1.4,0-2.2,0.9-2.2,2.7l-0.5,0.5c-0.7-1.8-1.5-2.7-2.4-2.7c-1.1,0-1.6,1-1.6,2.9
	c0,0.3,0,0.6,0,0.9c0,0.3,0.1,0.6,0.2,1l-0.4,0.4c-2.3,0-3.4,0.9-3.4,2.8c0,0.9,0.5,1.7,1.2,2.3c2.2-1.7,4.2-2.6,6-2.6
	c1.1,0,2.1,0.7,3,2c0.9,1.3,1.7,2,2.4,1.9c0.7,0,2.6-0.5,5.9-1.3l0.6-0.5l0.5-0.2c0.4-0.6,0.6-1.3,0.5-1.9c0-0.3,0-0.6-0.1-0.9
	L409.5,28.4z"/>
<path class="st1" d="M242.9,109.9c0,3.4-1,6.8-2.8,9.7c-1.7,3.1-4.4,5.5-7.7,6.9h18.6c3.2-1.3,5.9-3.7,7.6-6.8
	c1-1.4,1.7-3.1,2.2-4.7c0.4-1.7,0.7-3.4,0.6-5.1V56.2h-18.6V109.9z"/>
<path class="st1" d="M262,32.5c0-1.3-0.2-2.6-0.6-3.8c-0.7-1.7-1.5-2.6-2.4-2.6c-0.3,0-0.6,0.1-0.9,0.3c0.1-2.7-1.2-4.1-3.9-4.1
	c-1.5,0-3,0.6-4,1.7c-0.4-1.7-1.2-2.5-2.6-2.5c-1.4-0.1-2.5,1-2.6,2.3c0,0,0,0,0,0c-1.1,0.1-2,0.7-2.8,1.5c-1.2,0.8-1.7,2.4-1.1,3.7
	c-1.8,0.5-2.7,1.5-2.7,2.9c0.2,1.5,0.8,3,1.6,4.3c0.8,1.4,1.3,3,1.5,4.6c0,0.4-0.1,0.7-0.2,1.1l0.7-0.6c-0.1,2.8,1.1,5.5,3.1,7.4
	c2,2,4.7,3,7.6,3c2.7,0.1,5.4-1.1,7.2-3.1c1.9-2,2.9-4.7,2.9-7.4c0-2-0.5-3.9-1.6-5.5C261.8,34.8,262.1,33.6,262,32.5z M259.5,34
	c-1.4-1.4-2.6-2.2-3.6-2.2c-1.1,0.1-2.1,0.7-2.7,1.6c-0.9,1-1.6,1.5-2.2,1.5c-0.8-0.1-1.6-0.3-2.3-0.6c-0.7-0.4-1.5-0.6-2.3-0.6
	c-1.9,0-3.2,1.8-4.1,5.5c-0.1-0.3-0.3-0.7-0.6-1.4c-0.4-0.8-0.8-1.6-1.2-2.4c-0.7-1-1.2-2.2-1.3-3.4c0-1.1,0.8-1.9,2.5-2.3l0.4-0.4
	c-0.3-0.4-0.5-0.9-0.5-1.4c0-0.8,0.5-1.6,1.1-2.1c0.6-0.6,1.4-1,2.3-1h0.3l0.5-0.4c0-1.3,0.5-1.9,1.5-1.9c1.3,0,2,1,2.2,3.1
	c1.5-1.6,3-2.4,4.4-2.4c2.2,0,3.3,1.1,3.3,3.4c0,0.4,0,0.7-0.1,1.1c0.5-0.4,1-0.6,1.6-0.8c0.9,0,1.5,0.8,1.9,2.5
	c0.3,1.1,0.5,2.2,0.5,3.3c0,0.9-0.2,1.9-0.5,2.7C260.5,34.9,260.1,34.4,259.5,34L259.5,34z"/>
<path class="st1" d="M310,52v-0.5c0-0.9-0.2-1.7-0.5-2.5c-0.5-0.9-1.1-1.4-1.7-1.4c-0.3,0-0.6,0.2-0.9,0.4c-0.3-0.8-1.1-1.4-1.9-1.4
	c-0.5,0.2-1,0.5-1.4,0.9c-0.8-1.4-1.7-2.2-2.8-2.2c-1.2,0-2.2,0.8-2.9,2.5c-0.4-0.1-0.8-0.3-1.2-0.3c-0.5,0-1,0.3-1.2,0.8
	c-0.3,0.5-0.4,1.1-0.6,1.7h-0.3c-0.2,0-0.4-0.1-0.6-0.2c-0.2-0.1-0.5-0.2-0.7-0.2c-0.2,0-0.6,0.3-1.2,0.9c-0.6,0.6-0.9,1.1-0.9,1.5
	c0.1,0.5,0.3,0.9,0.8,1.2c0.4,0.3,0.7,0.7,0.8,1.2c-0.2,0.5-0.4,1-0.8,1.4c-0.4,0.5-0.7,1.1-1,1.7l0.9-0.8v28.1
	c-0.5,0.4-1,0.9-1.5,1.4c-0.4,0.4-0.7,0.8-1,1.1c-0.3,0.3-0.7,0.4-1.1,0.4c-0.5,0-1-0.2-1.3-0.6c-0.3-0.1-0.7-0.2-1-0.3
	c-0.2-0.1-0.4-0.1-0.6-0.2c-0.1-0.1-0.1-0.6,0-1.3c0-0.7-0.3-1.3-0.8-1.7l-0.1-26.9c1.2-0.4,1.8-0.9,1.8-1.3c0-0.3-0.3-0.6-0.8-0.9
	l-1.4-2.3c-0.3-0.4-0.5-0.8-0.6-1.3c-0.2-0.2-0.5-0.3-0.8-0.3c-0.2,0-0.4,0.1-0.5,0.2c-0.4-0.4-0.6-0.5-0.8-0.5
	c-0.3,0-1.1,0.9-2.4,2.7l-0.2-0.1l-1.7-3.4c-0.9-1.8-1.7-2.7-2.5-2.7c-0.5,0-1,0.4-1.4,1.3c-0.4-0.6-1.1-1-1.8-1.1
	c-1.4,0-2.1,0.8-2.1,2.4v2.7c-0.8-0.1-1.3,0.4-1.5,1.5l-0.6,2.3c-0.2,0.3-0.4,0.5-0.7,0.7c-0.3,0.2-0.5,0.4-0.6,0.7
	c0.3-0.3,0.6-0.4,1-0.5v29.1c0,6.6,1.9,11.7,5.9,15.2c1.9,1.8,4.2,3,6.7,3.8c2.9,0.8,5.9,1.2,8.9,1.2c14.2,0,21.2-6.7,21.2-20.2
	V56.7c1-0.7,1.6-1.9,1.6-3.1C311,52.9,310.6,52.3,310,52z M283.7,56.6c-2.2,0.6-3.9,1-4.9,1.3c-1,0.3-1.5,0.4-1.3,0.4
	c-0.4,0-1.1-0.6-1.9-1.9c-0.6-1.1-1.7-1.9-3-1.9c-1.7,0.1-3.4,0.6-4.9,1.5c0.2-0.5,0.4-1.1,0.5-1.7c0.1-0.5,0.2-1,0.3-1.4
	c0.3,0,0.6,0,0.9,0.1l0.4-0.4c0.1-0.5,0.2-0.9,0.2-1.4c-0.1-1,0-2.1,0.2-3.1c0.2-0.2,0.6-0.3,0.9-0.3c0.8,0,1.4,0.5,1.8,1.6l0.6-0.6
	c0.1-0.2,0.1-0.4,0.2-0.6c0.1-0.2,0.2-0.3,0.3-0.4c0.1,0,0.1,0,0.2-0.1s0.1-0.1,0.2-0.1h0.1c0.4,0,1.2,1,2.2,3.1s1.7,3.1,2.2,3.1
	h0.1c0.7-0.8,1.3-1.7,1.8-2.6l0.5-0.1l0.3,0.6c0.2-0.2,0.5-0.3,0.9-0.3c0.2,0,0.3,0,0.4,0.1c0.1,0.4,0.3,0.9,0.4,1.3
	c0.1,0.4,0.3,0.7,0.4,1c0.5,0.6,0.9,1,1.1,1.3c0.2,0.2,0.3,0.4,0.4,0.6c-0.2,0.1-0.4,0.2-0.6,0.3c-0.2,0-0.3,0.1-0.5,0.2L283.7,56.6
	z M291.6,90.7c-0.4,0.6-1,0.9-1.7,1c-3.7,0-5.5-1.5-5.5-4.4v-2.6c0.1,0.2,0.2,0.4,0.2,0.6v1.7c0.4,0.3,0.8,0.5,1.2,0.6l0.9,0.3
	c0.3,0.4,0.8,0.7,1.3,0.8c0.5,0,1.8-1.1,3.8-3.3c0,0.6,0.2,1.2,0.4,1.8c0.2,0.6,0.3,1.1,0.4,1.7C292.4,89.6,292.1,90.2,291.6,90.7z
	 M309.4,56.2c-0.1,0.1-0.1,0.1-0.2,0.1c0,0-0.1,0-0.2,0.1c-1.5-1.3-3.4-2.1-5.4-2.3c-0.7,0-1.7,0.7-2.9,2.2c-0.7,1.2-2,2-3.5,2
	c-2-0.1-3.9-0.7-5.6-1.7c0.1-0.5,0.4-1,0.8-1.4c0.3-0.3,0.6-0.7,0.6-1.1c-0.1-0.5-0.3-0.9-0.6-1.2c-0.4-0.3-0.6-0.7-0.6-1.2
	c0-0.7,0.4-1.4,1.1-1.6c0.2,0,0.5,0.1,0.6,0.3c0.2,0.1,0.4,0.2,0.7,0.3c0.5,0,1-0.4,1.1-0.9l0.5-1.5c0.1,0,0.2,0,0.2-0.1
	c0.1,0,0.1-0.1,0.2-0.1h0.1c0.1,0,0.6,0.1,1.5,0.4l0.5-0.5c0.3-1.3,1-2,2.1-2s2,0.9,2.5,2.6c0.5-0.3,0.8-0.7,1-1.2
	c0.2-0.1,0.5-0.2,0.8-0.2c0.6,0,1.1,0.5,1.7,1.6c0.3-0.5,0.6-0.8,1-0.8c1.2,0,1.7,1.1,1.7,3.2c0,0.4-0.1,0.9-0.2,1.3
	c0.3,0,0.7,0,1,0.1c0.2,0.3,0.4,0.6,0.3,1C310.3,54.7,309.9,55.5,309.4,56.2L309.4,56.2z"/>
<path class="st1" d="M334.2,27.6c0.2-0.3,0.3-0.7,0.3-1.1c0-0.9-0.3-1.7-0.9-2.4c-0.7-0.9-1.3-1.4-1.9-1.4h-0.1v-0.3
	c0-1.6-0.9-2.4-2.8-2.4c-1,0.1-1.9,0.6-2.5,1.5c-0.3-0.7-0.9-1.3-1.7-1.3c-1.2,0-2.2,0.8-2.9,2.3c-0.7-1.1-1.4-1.7-2.2-1.7
	c-0.9,0-1.7,0.6-1.9,1.4c-0.5,0.7-0.8,1.6-0.8,2.5c0,0.4,0.1,0.9,0.2,1.3c-1,0.1-1.8,0.6-2.5,1.3c-0.7,0.6-1.2,1.5-1.1,2.4
	c0.1,1.1,0.7,2.1,1.5,2.8l0.3-0.4v72.6h18.2V31.9c1.1-0.5,1.8-1.6,1.6-2.8C335.1,28.5,334.8,27.9,334.2,27.6z M333.7,31.2l-0.5,0.2
	l-0.7,0.5c-3.9,0.9-5.9,1.3-5.9,1.3c-0.7,0-1.5-0.6-2.4-1.9c-0.9-1.3-1.9-2-3-2c-1.8,0-3.8,0.9-6,2.6c-0.7-0.5-1.2-1.4-1.2-2.3
	c0-1.9,1.1-2.8,3.4-2.8l0.4-0.4c-0.1-0.4-0.1-0.7-0.2-1c0-0.3-0.1-0.6-0.1-0.9c0-1.9,0.5-2.9,1.6-2.9c0.9,0,1.6,0.9,2.4,2.7l0.5-0.5
	c0-1.8,0.7-2.7,2.2-2.7c0.7,0,1.2,0.6,1.4,1.8l0.8-0.7c0.2-0.9,0.9-1.4,2.2-1.4c1.4,0,2.2,0.6,2.2,1.7c0,0.5-0.1,0.9-0.4,1.3h0
	c-0.1,0.3-0.2,0.6-0.3,0.9l0.9-0.9l0.2-0.1v-0.1l0.1-0.1c0.7,0,1.4,0.5,1.7,1.1c0.4,0.6,0.7,1.3,0.7,2c-0.1,0.8-0.6,1.5-1.2,1.9
	c0.4-0.2,0.8-0.3,1.3-0.2h0.3c0.1,0.3,0.1,0.6,0.1,0.9C334.3,29.9,334.1,30.6,333.7,31.2L333.7,31.2z"/>
<path class="st1" d="M385.3,56.8l0.1,0.1l0.6-0.6c-1.3-0.2-2.3-1.4-2.2-2.7c0.1-1.1,0-2.1-0.3-3.1l-0.5-0.2c-0.3,0-0.5,0.1-0.8,0.3
	c-0.9-1.3-1.7-2-2.2-2s-1.2,0.5-2,1.5H378c-0.9-0.9-1.5-1.3-1.8-1.3s-1.1,0.7-2.2,2.2h-0.2c-0.3-0.1-0.6-0.2-0.9-0.5
	c-0.3-0.3-0.7-0.5-1.1-0.5c-0.6,0-1.6,1-2.9,2.9c-0.9,1.4-2.1,2.6-3.4,3.6l-1.1,1.2c0.3-0.1,0.5-0.2,0.7-0.3
	c0.2-0.1,0.4-0.2,0.6-0.3l-2.5,5.8c-0.2,1.2-0.4,2.2-0.5,3.1c-0.1,0.9-0.3,1.8-0.4,2.6h-0.3c-0.8,0-1.7,0.8-2.7,2.5
	c-0.1,0.1-0.3,0.1-0.4,0.1h-0.1c-0.2,0-0.4-0.1-0.5-0.2c-0.1-0.1-0.1-0.3-0.1-0.4c0-0.1,0-0.1-0.1-0.1c0,0,0,0,0,0
	c0-0.3,0.2-0.6,0.4-0.8c0.3-0.2,0.4-0.6,0.4-0.9c-0.3-0.7-0.7-1.2-1.2-1.7l-0.3,0.4l0.1-35.4l1.2,0.2l0.5,0.1c1.1,0,1.6-0.7,1.6-2
	c0.2-1.4-0.5-2.8-1.7-3.6c0-0.7-0.2-1.5-0.8-2c-0.5-0.6-1.2-1-1.9-1c-0.2,0-0.4,0-0.6,0.1c-0.4-1.5-1.3-2.7-2.5-3.7
	c-0.8-0.6-1.5-1-2-1.4c-0.5-0.3-1-0.5-1.6-0.5c-0.3,0.1-0.6,0.3-0.9,0.5c-0.3-0.4-0.8-0.7-1.4-0.8c-1.2,0-1.8,0.7-2,1.9
	c-0.5,0-1,0.2-1.4,0.4c-0.6,0.4-0.9,0.8-0.9,1.2c0,0.2,0,0.3,0.1,0.3c-0.7,0.4-1.2,1.1-1.3,1.9c0,0.6,0.2,1.2,0.5,1.7
	c-1.1,0.1-2.2,0.5-3.1,1.2c-0.9,0.7-1.5,1.8-1.5,2.9c0,1.1,0.4,2.1,1.2,2.9l0.1-0.1v72.3h18.3V81.5l8.6,23.1h20.4l-13.2-25.7
	L385.3,56.8z M350.3,33.4c-0.5,0-1.4-0.6-2.6-1.8c-1.2-1.2-2.2-1.8-2.9-1.8c-2,0.2-4,0.8-5.7,1.8c-0.4-0.6-0.6-1.3-0.6-2
	c0-2.3,1.4-3.4,4.3-3.4l0.5-0.4c-0.4-0.7-0.6-1.4-0.8-2.2c0-0.5,0.3-0.9,1-1.2l0.4-0.5c-0.1-0.1-0.2-0.3-0.2-0.5
	c0-0.2,0-0.3,0.1-0.4c0.4-0.2,0.8-0.3,1.2-0.3c0.2,0,0.4,0,0.5,0.1l0.4-0.5c-0.1-0.4,0-0.9,0.3-1.2c0.2-0.2,0.5-0.3,0.8-0.3
	c0.7,0.1,1.2,0.5,1.5,1.1l0.5-0.7v-0.1h0.2c1,0,2.2,0.6,3.4,1.9c1.1,0.8,1.9,2,2.2,3.3c-0.3,0.6-0.6,1.3-0.6,1.9
	c0.4-0.3,0.7-0.6,0.9-1c0.2-0.2,0.3-0.5,0.4-0.8h0.4c1.4,0,2.2,0.8,2.2,2.3v0.9c1.2-0.1,1.7,0.8,1.7,2.9c0,0.4,0,0.7-0.1,1.1h-0.5
	c-0.3,0-0.7,0-1-0.1c-0.3-0.1-0.7-0.1-1-0.1l-0.5,0.4c-0.3-0.1-0.6-0.1-0.9-0.1c-1.2,0.1-2.4,0.3-3.6,0.9
	C351.7,32.8,351,33.2,350.3,33.4L350.3,33.4z M360.3,73.2c-1.3,0.1-2.3,1.5-3,4.1c-1.2-0.2-1.8-1.8-1.8-4.7c0.1-1.8,0.7-3.6,1.6-5.2
	c0.4,0.4,0.8,0.9,1,1.5c-0.1,0.3-0.2,0.6-0.5,0.9c-0.3,0.4-0.5,0.6-0.5,0.8c0,0.9,0.4,1.4,1.3,1.4c0.4,0,1-0.4,1.6-1.3
	c0.5-0.9,1-1.3,1.6-1.3h0.4C361.6,71.9,361,73.2,360.3,73.2L360.3,73.2z M369.3,57.9c-1.1-0.3-2.2-0.7-3.2-1.2
	c1.8-1.8,3.5-3.8,5-5.8c0.1-0.1,0.2-0.1,0.3-0.1c0.1,0,0.2,0,0.2-0.1c0.4,0,0.8,0.2,1.1,0.5c0.4,0.4,0.6,0.5,0.8,0.5s0.8-0.7,2-2
	l0.4-0.2c0.5,0.1,0.9,0.3,1.1,0.6c0.4,0.4,0.7,0.6,0.8,0.6s0.4-0.2,0.9-0.8c0.3-0.4,0.7-0.7,1.2-0.8c0.5,0,0.9,0.3,1.2,0.8l1,1.3
	c0.2-0.2,0.5-0.4,0.8-0.4l0.2,0.1c0.1,0.4,0.2,0.8,0.2,1.2c-0.1,1,0,2,0.3,3c-0.8-0.5-1.8-0.8-2.8-0.9c-0.4,0-1.6,0.7-3.6,2
	c-1.5,1.1-3.2,1.8-5.1,1.9C371.1,58.3,370.2,58.2,369.3,57.9L369.3,57.9z"/>
<path class="st1" d="M409.8,27.6c0.2-0.3,0.3-0.7,0.3-1.1c0-0.9-0.3-1.7-0.9-2.4c-0.7-0.9-1.3-1.4-1.9-1.4h-0.1v-0.3
	c0-1.6-0.9-2.4-2.8-2.4c-1,0.1-1.9,0.6-2.5,1.5c-0.3-0.7-0.9-1.2-1.7-1.3c-1.2,0-2.2,0.8-2.9,2.3c-0.7-1.1-1.4-1.7-2.2-1.7
	c-0.9,0-1.7,0.6-1.9,1.4c-0.5,0.7-0.8,1.6-0.7,2.5c0,0.4,0.1,0.9,0.2,1.3c-0.9,0.1-1.8,0.6-2.5,1.3c-0.7,0.6-1.2,1.4-1.2,2.4
	c0.1,1.1,0.7,2.1,1.5,2.8l0.3-0.4v72.7h18.2V31.9c1.1-0.5,1.8-1.6,1.6-2.8C410.8,28.5,410.4,27.9,409.8,27.6z M409.4,31.2l-0.5,0.2
	l-0.6,0.5c-3.9,0.9-5.9,1.3-5.9,1.3c-0.7,0-1.5-0.6-2.4-1.9c-0.9-1.3-1.9-2-3-2c-1.8,0-3.8,0.9-6,2.6c-0.7-0.5-1.2-1.4-1.2-2.3
	c0-1.9,1.1-2.8,3.4-2.8l0.4-0.4c-0.1-0.4-0.1-0.7-0.2-1c0-0.3-0.1-0.6,0-0.9c0-1.9,0.5-2.9,1.6-2.9c0.9,0,1.6,0.9,2.4,2.7l0.5-0.5
	c0-1.8,0.7-2.7,2.2-2.7c0.7,0,1.2,0.6,1.4,1.8l0.8-0.7c0.2-0.9,0.9-1.4,2.2-1.4c1.4,0,2.2,0.6,2.2,1.7c0,0.5-0.1,0.9-0.4,1.3h0.1
	c-0.1,0.3-0.2,0.6-0.3,0.9l0.9-0.9l0.2-0.1v-0.1l0.1-0.1c0.7,0,1.4,0.5,1.7,1.1c0.4,0.6,0.7,1.3,0.7,2c-0.1,0.8-0.6,1.5-1.2,1.9
	c0.4-0.2,0.8-0.3,1.3-0.2h0.3c0.1,0.3,0.1,0.6,0.1,0.9C410,29.9,409.8,30.6,409.4,31.2L409.4,31.2z"/>
<path class="st1" d="M456.6,51.5c-0.2,0-0.3,0-0.3,0.1c-0.1-0.7-0.5-1.3-1-1.8c-0.4-0.9-0.9-1.3-1.5-1.3c-0.2,0-0.3,0-0.4,0.1
	c-0.2-0.8-0.6-1.6-1.1-2.2c-0.5-0.6-1.2-1-2-1c-0.6,0.1-1.1,0.4-1.5,0.8c-0.8-0.6-1.7-0.9-2.7-0.9c-1.2-0.1-2.3,0.6-2.8,1.7
	c-0.3-0.1-0.7-0.1-1-0.1c-0.7-0.1-1.3,0.4-1.5,1.1c-0.2,0.7-0.3,1.5-0.5,2.3c-0.4,0.2-0.9,0.4-1.4,0.5c-0.5,0.1-1,0.4-1.4,0.8
	c0.1,0.2,0.2,0.4,0.4,0.6c0.3,0.4,0.6,0.7,0.9,1c0.8,0.6,1.3,1.5,1.4,2.5c-0.1,0.4-0.2,0.7-0.4,1l0.2,0.2l0.2-0.1v5.7
	c-0.2-0.2-0.4-0.5-0.5-0.8c-0.7-0.7-1.3-1.7-1.6-2.6c-0.4-1-0.9-1.9-1.6-2.8c-0.6-0.6-1.1-1-1.5-1.4c-0.4-0.4-0.8-0.7-1.1-1
	c-0.1-0.1-0.1-0.3-0.1-0.4c0-0.3,0-0.5,0.1-0.8c0.1-0.2,0.1-0.5,0.1-0.7c0-0.6-0.3-0.9-1-1c-0.9-0.2-1.3-0.3-1.4-0.3
	c0-0.3-0.1-0.5-0.2-0.8c-0.1-0.5-0.3-1.2-0.5-2.2c-0.4-1.5-0.9-2.3-1.6-2.3c-0.5,0-1.1,0.5-1.9,1.5c-0.5,0.7-0.9,1.4-1.2,2.2
	c-0.2,0-0.3,0-0.4,0.1c-0.5-0.1-0.9-0.3-1.2-0.6c-0.3-0.4-0.7-0.6-1.2-0.6c-0.9,0-1.5,1.3-1.9,4h-0.2c-1.2,0-2,0.4-2.3,1.1
	c-0.1,0-0.3,0.9-0.5,2.6c-0.2-0.1-0.5-0.2-0.8-0.2c-0.9,0-1.3,0.6-1.3,1.8c0,0.1,0,0.4,0,0.8c0.1,0.4,0.1,0.9,0.2,1.5
	c-1.2,0.2-1.8,0.8-1.8,1.7c0.1,1.3,0.8,2.5,1.8,3.2c-1.9,4.1-2.9,9.4-2.9,15.9c0,6.6,0.8,12.1,2.5,16.5c2.3,6.3,6.2,9.4,11.8,9.4
	c2.8,0.1,5.5-0.8,7.8-2.5c1.6-1.2,3.1-3.5,4.6-6.8v8.1h17V56.7l0.3-0.3c0.1-0.5,0.2-1,0.3-1.5c0.2-0.4,0.3-0.8,0.3-1.3
	c0-0.5-0.2-1-0.5-1.4C457.3,51.7,457,51.5,456.6,51.5z M428.8,55.9c-2.6,0-4.8,1.5-6.6,4.5c-0.6,0.8-1.6,1.4-2.6,1.6
	c-1,0.3-2,0.8-2.8,1.5c-0.8-0.7-1.2-1.7-1.3-2.7v-0.5c0.4-0.1,0.9-0.2,1.3-0.2l0.5-0.4c0-0.5-0.1-0.9-0.2-1.4
	c-0.1-0.5-0.1-1-0.2-1.4c0-0.3,0-0.6,0.1-0.9h0.2c0.4,0,0.7,0.1,1.1,0.3l0.4-0.5c0.1-0.7,0.3-1.3,0.4-1.8c0.1-0.4,0.2-0.9,0.4-1.3
	c0.2-0.1,0.4-0.2,0.6-0.2c0.6,0,1.2-0.2,1.7-0.6c0.1-1.1,0.3-2.2,0.8-3.2c0.1-0.1,0.2-0.1,0.3-0.1c0.2,0,0.6,0.2,1,0.8
	c0.3,0.4,0.7,0.7,1.2,0.8c0.6,0,1.2-0.6,1.8-1.9c0.8-1.3,1.4-1.9,1.9-1.9s0.9,0.7,1.1,2.2c0.1,0.9,0.4,1.9,0.9,2.7
	c0.6,0.4,1.4,0.7,2.2,0.9c0.1,0.1,0.1,0.1,0.1,0.2c0,0.3-0.1,0.5-0.2,0.8c-0.1,0.3-0.1,0.6-0.2,0.9c0,0.4,0.4,0.9,1.3,1.5
	c0.3,0.3,0.6,0.5,0.8,0.8l0.9,0.8c0.4,0.7,0.8,1.3,1.1,1.9c0.2,0.4,0.5,0.9,0.6,1.4c-0.5-0.4-1.1-0.6-1.7-0.6
	c-1.7,0.1-3.4-0.5-4.7-1.6C430,56.4,429.2,55.9,428.8,55.9L428.8,55.9z M435.4,91.1c-1.8,0-3-1.3-3.6-4c0.1-0.1,0.2-0.1,0.3-0.1
	c0.1,0,0.2,0,0.2,0.1c0.8,1,1.3,1.5,1.6,1.5c0.9,0,1.3-1,1.2-3l0.3,0.1c0.7,1.4,1.3,2,1.6,2c0.3,0,0.6-0.4,1.1-1.1
	c0.3-0.6,0.8-1.1,1.5-1.2C439.2,89.3,437.8,91.1,435.4,91.1L435.4,91.1z M439.8,82.1v2.8c-1.1,0.3-1.9,1.1-2.4,2.1
	c-0.2,0-0.5-0.2-0.6-0.4c-0.2-0.3-0.3-0.5-0.5-0.8c-0.1-0.2-0.3-0.5-0.5-0.7c-0.2-0.2-0.4-0.3-0.7-0.3h-0.2l-0.5,0.4
	c0.1,0.8,0,1.7-0.2,2.5c-0.4,0-0.7-0.3-1.1-0.8c-0.4-0.5-0.7-0.8-1-0.8c-0.1,0-0.1,0-0.2,0.1c-0.1,0.1-0.2,0.1-0.3,0.2
	c-0.2-1.4-0.3-2.8-0.3-4.2c0-8.2,1.7-12.3,5-12.3c1.2,0,2.2,0.9,2.8,2.8c0.3,0.7,0.5,1.4,0.5,2.2c0.1,0.7,0.1,1.5,0.1,2.3V82.1z
	 M456.8,56.7c-3,1.9-4.9,2.9-5.5,2.9s-1.6-0.7-2.8-2.2c-1.2-1.5-2.3-2.3-3.1-2.3c-1.7,0-3.4,0.4-5,1.2c0.3-0.3,0.4-0.8,0.4-1.2
	c0-0.8-0.4-1.5-1-1.9c-0.2-0.3-0.5-0.6-0.8-0.9c-0.3-0.3-0.5-0.6-0.8-0.9c1-0.2,1.9-0.7,2.6-1.5c-0.1-0.8,0.1-1.7,0.5-2.4
	c0.1,0,0.1,0,0.2-0.1c0.1,0,0.1-0.1,0.2-0.1c0.1,0,0.1,0,0.1-0.1c0,0,0,0,0,0c0.5,0.1,0.9,0.2,1.4,0.3l0.4-0.5
	c0-0.3,0.1-0.6,0.2-0.9c0.3-0.1,0.5-0.2,0.8-0.3c0.3,0,0.6-0.1,0.9-0.1c1.1,0,2.1,0.3,2.9,1l0.5-0.4l0.2-0.4c0.1,0,0.2,0,0.2-0.1
	c0.1,0,0.1-0.1,0.2-0.1h0.1c1.8,0,2.7,1.3,2.7,3.9c0.4-0.5,0.7-0.8,0.8-0.8c1.3,0,2,1.3,2,3.8l0.8-0.8v-0.1c0.8,0.2,1.3,0.9,1.3,1.7
	L456.8,56.7z"/>
<path class="st2" d="M487.1,88.3L487.1,88.3"/>
<path class="st1" d="M505.3,64.3c0.8-0.8,1.3-1.9,1.3-3.1c0-1-0.4-1.5-1.2-1.5c0.6-0.9,1-1.9,1.1-3c0.1-0.8-0.4-1.5-1.1-1.7
	c-0.7-0.2-1.4-0.4-2-0.8v-0.1c0.1-0.6,0.2-1.1,0.5-1.6c0.3-0.5,0.4-1.1,0.5-1.6c0-1.2-0.5-1.8-1.5-1.8c-0.5,0-1,0.2-1.3,0.6
	c-0.1-0.7-0.4-1.4-0.8-2c-0.4-0.8-0.9-1.1-1.5-1.1c-0.3,0-0.6,0.2-1,0.8c-0.7-0.7-1.3-1.1-1.6-1.1c-0.8,0.1-1.5,0.6-1.8,1.3
	c-0.2,0.4-0.4,0.8-0.4,1.3c-0.5-0.5-1.2-0.8-2-0.9c-1.1,0-2.1,0.8-2.4,1.9c-0.4-0.4-0.9-0.7-1.5-0.8c-0.7-0.1-1.3,0.4-1.4,1.1
	l-0.5,2c-0.1,0.1-0.3,0.1-0.4,0.1h-0.1c-1.7,0-2.5,0.5-2.5,1.6c0.1,0.7,0.2,1.4,0.5,2c0.2,0.6,0.4,1.2,0.5,1.9
	c-1.4,1.7-2.6,3.6-3.5,5.6l0.5-5.7c-3.2-2.2-5.4-3.2-6.4-3.2c-1.2,0.3-2.3,0.7-3.3,1.3c-1.6,0.7-3.4,1.1-5.2,1.1h-2.1
	c-0.6,0-1.1-0.1-1.7-0.2l0.1-0.1c-0.7-0.4-1.1-1.1-1.2-1.8v-0.5c0.4,0.1,0.7,0.2,1,0.4l0.5-0.5c0.3-0.6,0.5-1.3,0.6-2h0.2
	c0.8,0.2,1.6,0.6,2.3,1.2l0.4-0.4c0-0.5,0-0.9-0.1-1.4c-0.1-0.4-0.1-0.9-0.1-1.3c0-1.2,0.5-1.7,1.6-1.7c0.7,0,1.3,0.6,1.6,1.7
	c0.7-0.7,1.5-1.3,2.3-1.9c0.5,0,1,0.8,1.4,2.4c0.2,0,0.7-0.7,1.5-2.2c0.5-0.7,1.3-1.2,2.2-1.2c1.3,0,1.9,0.6,1.9,1.8
	c0,0.7-0.3,1.4-0.9,1.8l-0.2,0.2c0.9,0.2,1.7,0.7,2.1,1.6c0.6,0.8,1,1.8,1,2.9c0,0.3,0,0.5-0.2,0.8l0.3,0.2c0.1,0.2,0.1,0.3,0.2,0.5
	c0,0.3,0.1,0.5,0.1,0.8l0.8,0.1c0-1.1-0.2-1.9-0.8-2.2l0.3,0.2c0-0.1,0-0.2,0-0.3c0,0,0.1-0.1,0.1-0.2c0-0.1,0-0.2,0.1-0.2
	c-0.1-1-0.4-1.9-1-2.6c-0.5-0.8-1.1-1.5-1.9-2.1c0.5-0.4,0.7-1.1,0.8-1.7c0-0.7-0.4-1.3-0.9-1.7c-0.5-0.5-1.1-0.8-1.7-0.8
	c-1.2,0-2.3,0.9-3.3,2.8c-0.6-1.1-1.1-1.7-1.6-1.7s-1.2,0.5-2,1.6c-0.4-0.7-1-1.2-1.8-1.3c-0.7,0-1.4,0.3-1.8,0.9
	c-0.5,0.4-0.8,1.1-0.9,1.7c0,0.2,0,0.4,0.1,0.6l0.2,1.1c-0.5-0.3-1-0.6-1.6-0.8c-0.6,0-1.1,0.8-1.6,2.4c-0.1-0.1-0.2-0.1-0.3-0.1
	c-0.1,0-0.2,0-0.2-0.1c-0.8,0-1.2,0.5-1.2,1.4c0,1,0.6,1.8,1.4,2.3l0.3-0.3v69.8h17.9V98.9c2.9,4.7,6.9,7.1,12,7.1
	c5.5,0,9.7-2.8,12.6-8.5c1.2-2.4,2-4.9,2.5-7.4c0.5-2.8,0.8-5.7,0.8-8.6c0-6.8-1.1-12.4-3.2-16.9L505.3,64.3z M480.3,83.1
	c0-0.9-0.1-1.8,0-2.8c0-7,1.6-10.5,4.7-10.5c2.3,0,3.7,2.1,4.3,6.4c0.1,0.9,0.2,1.9,0.2,2.9c0.1,1.5,0.2,3.7,0.3,6.4
	c-1.8,0.5-2.8,1.2-2.9,2.2c-0.4-0.1-0.7-0.3-1.1-0.4c-0.3-0.1-0.5-0.3-0.8-0.4l-0.4,0.4v0.1c-0.4,0.2-0.8,0.4-1.2,0.6
	c-0.3,0.1-0.6,0.2-0.9,0.3c-0.3-2-0.8-3-1.4-3h-0.2l-0.3,0.4C480.4,84.7,480.3,83.9,480.3,83.1L480.3,83.1z M484.8,91.2
	c-2.1,0-3.5-1.6-4.1-4.9l0.2-0.2l0.1-0.3c0.4,0.1,0.6,1.1,0.8,3.2c0.7-0.2,1.4-0.5,2.1-0.9c0.4-0.2,0.8-0.5,1.2-0.8
	c0.7,0.2,1.4,0.5,2,0.8l0.5-0.5c0-0.4,0.1-0.7,0.3-1c0.6-0.3,1.3-0.4,2-0.5C489.9,89.6,488.2,91.2,484.8,91.2L484.8,91.2z
	 M502.9,61.6c-0.6-0.3-1.1-0.5-1.5-0.8l-1-0.5c-0.2-0.2-0.5-0.3-0.8-0.4c-0.8-0.9-1.4-1.9-2-3c-0.8-1.2-2.2-1.8-3.6-1.6
	c-1.2-0.1-2.4,0.5-3.1,1.5c-0.8,0.9-1.4,1.3-1.8,1.3c-0.5-0.1-1.1-0.3-1.5-0.6c-0.4-0.3-1-0.5-1.5-0.6c-0.3,0-0.5,0.1-0.8,0.3
	c-0.1-0.6-0.2-1.2-0.5-1.7c-0.3-0.6-0.4-1.2-0.5-1.8v-0.1c0-0.2,0-0.4,0.1-0.5l0.4-0.1c1.7-0.1,2.5-0.4,2.5-0.9c0-0.1,0-0.2,0-0.3
	c0-0.1-0.1-0.3-0.1-0.4c0-0.5,0.3-1,0.6-1.4c0.1,0,0.1,0,0.2-0.1c0,0,0.1-0.1,0.2-0.1h0.1c0.7,0.2,1.3,0.5,1.8,1l0.5-0.5
	c0.1-0.6,0.3-1,0.3-1.2l0.1-0.1c0.3-0.2,0.7-0.3,1.1-0.3c1,0.1,1.9,0.5,2.5,1.3l0.4-0.5c0-0.7,0.2-1.4,0.6-2
	c0.1-0.1,0.3-0.2,0.8-0.2s1.2,0.5,1.9,1.4l0.4-0.4l0.1-0.8c1.1,0.2,1.7,1.2,1.7,3V51c0.5-0.6,1.2-1,1.9-1.1c0.1,0.1,0.1,0.1,0.2,0.1
	h0.5c0.1,0.3,0.1,0.7,0.1,1c0,0.6-0.2,1.2-0.5,1.7c-0.3,0.5-0.4,1.1-0.5,1.6c0,0.3,0.6,0.6,1.7,1s1.7,0.9,1.6,1.5
	c-0.2,1.4-0.7,2.7-1.5,3.9c0.4-0.2,0.9-0.2,1.4-0.1c0.1,0.2,0.2,0.5,0.2,0.8c0,0.6-0.1,1.2-0.4,1.7c-0.2,0.3-0.3,0.6-0.5,0.9
	C504.7,63,503.9,62.1,502.9,61.6L502.9,61.6z"/>
<path class="st1" d="M555.5,64.3c0.8-0.8,1.3-1.9,1.3-3.1c0-1-0.4-1.5-1.2-1.5c0.6-0.9,1-1.9,1.1-3c0.1-0.8-0.4-1.5-1.1-1.7
	c-0.7-0.2-1.4-0.4-2-0.8v-0.1c0.1-0.6,0.2-1.1,0.5-1.6c0.3-0.5,0.4-1.1,0.5-1.6c0-1.2-0.5-1.8-1.5-1.8c-0.5,0-1,0.2-1.3,0.6
	c-0.1-0.7-0.4-1.4-0.8-2c-0.4-0.8-0.9-1.1-1.5-1.1c-0.3,0-0.6,0.2-1,0.8c-0.7-0.7-1.3-1.1-1.6-1.1c-0.8,0.1-1.5,0.6-1.8,1.3
	c-0.2,0.4-0.3,0.8-0.4,1.2c-0.5-0.5-1.2-0.8-2-0.9c-1.2,0-2.2,0.8-2.5,1.9c-0.4-0.4-0.9-0.7-1.5-0.8c-0.7-0.1-1.3,0.4-1.5,1.1
	l-0.5,2c-0.1,0.1-0.3,0.1-0.4,0.1h-0.1c-1.7,0-2.5,0.5-2.5,1.6c0.1,0.7,0.2,1.4,0.5,2c0.2,0.6,0.4,1.2,0.5,1.9
	c-1.4,1.7-2.6,3.6-3.5,5.6l0.5-5.7c-3.2-2.2-5.4-3.2-6.4-3.2c-1.2,0.3-2.3,0.7-3.3,1.3c-1.6,0.7-3.4,1-5.2,1h-2.1
	c-0.6,0-1.1-0.1-1.7-0.2l0.1-0.1c-0.7-0.4-1.1-1.1-1.2-1.8V54c0.4,0.1,0.7,0.2,1,0.4l0.5-0.5c0.3-0.6,0.5-1.3,0.6-2h0.2
	c0.8,0.2,1.6,0.6,2.3,1.2l0.4-0.4c0-0.5,0-0.9-0.1-1.4c-0.1-0.4-0.1-0.9-0.1-1.3c0-1.2,0.5-1.7,1.6-1.7c0.7,0,1.3,0.6,1.6,1.7
	c0.7-0.7,1.5-1.3,2.3-1.9c0.5,0,1,0.8,1.4,2.4c0.2,0,0.7-0.7,1.5-2.2c0.5-0.7,1.3-1.2,2.2-1.2c1.3,0,1.9,0.6,1.9,1.8
	c0,0.7-0.3,1.4-0.9,1.8l-0.2,0.2c0.9,0.2,1.7,0.7,2.1,1.6c0.6,0.8,1,1.8,1,2.9c0,0.3,0,0.5-0.2,0.8l0.3,0.2c0.1,0.2,0.1,0.3,0.2,0.5
	c0,0.3,0.1,0.5,0,0.8l0.8,0.1c0-1.1-0.2-1.9-0.8-2.2l0.3,0.2c0-0.1,0-0.2,0-0.3c0,0,0.1-0.1,0-0.2c0-0.1,0-0.2,0.1-0.2
	c-0.1-1-0.4-1.9-1-2.6c-0.5-0.8-1.1-1.5-1.9-2.1c0.5-0.4,0.7-1.1,0.8-1.7c0-0.7-0.4-1.3-0.9-1.7c-0.5-0.5-1.1-0.8-1.7-0.8
	c-1.2,0-2.3,0.9-3.3,2.8c-0.6-1.1-1.1-1.7-1.6-1.7s-1.2,0.5-2,1.6c-0.4-0.7-1-1.2-1.8-1.3c-0.7,0-1.4,0.3-1.8,0.9
	c-0.5,0.4-0.8,1.1-0.9,1.7c0,0.2,0,0.4,0,0.6l0.2,1.1c-0.5-0.3-1-0.6-1.6-0.8c-0.6,0-1.1,0.8-1.6,2.4c-0.1-0.1-0.2-0.1-0.3-0.1
	c-0.1,0-0.2,0-0.2-0.1c-0.8,0-1.2,0.5-1.2,1.4c0,1,0.6,1.8,1.4,2.3l0.3-0.3v69.8h18.1V98.9c2.9,4.7,6.9,7.1,12,7.1
	c5.5,0,9.7-2.8,12.6-8.5c1.2-2.4,2-4.9,2.5-7.4c0.5-2.8,0.8-5.7,0.8-8.6c0-6.8-1.1-12.4-3.2-16.9L555.5,64.3z M530.5,83.1
	c0-0.9-0.1-1.8,0-2.8c0-7,1.6-10.5,4.7-10.5c2.3,0,3.7,2.1,4.3,6.4c0.1,0.9,0.2,1.9,0.2,2.9c0.1,1.5,0.2,3.7,0.3,6.4
	c-1.8,0.5-2.8,1.2-2.9,2.2c-0.4-0.1-0.7-0.3-1.1-0.4c-0.3-0.1-0.5-0.3-0.8-0.4l-0.4,0.4v0.1c-0.4,0.2-0.8,0.4-1.2,0.6
	c-0.3,0.1-0.6,0.2-0.9,0.3c-0.3-2-0.8-3-1.4-3h-0.2l-0.3,0.4C530.6,84.7,530.5,83.9,530.5,83.1L530.5,83.1z M535,91.2
	c-2.1,0-3.5-1.6-4.1-4.9l0.2-0.2l0.1-0.3c0.4,0.1,0.6,1.1,0.8,3.2c0.7-0.2,1.4-0.5,2.1-0.9c0.4-0.2,0.8-0.5,1.2-0.8
	c0.7,0.2,1.4,0.5,2,0.8l0.5-0.5c0-0.4,0.1-0.7,0.3-1c0.6-0.3,1.3-0.4,2-0.5C540.1,89.6,538.4,91.2,535,91.2L535,91.2z M553.1,61.6
	c-0.6-0.3-1.1-0.5-1.5-0.8l-1-0.5c-0.2-0.2-0.5-0.3-0.8-0.4c-0.8-0.9-1.4-1.9-2-3c-0.8-1.2-2.2-1.8-3.6-1.6
	c-1.2-0.1-2.4,0.5-3.1,1.5c-0.8,0.9-1.4,1.3-1.8,1.3c-0.5-0.1-1.1-0.3-1.5-0.6c-0.4-0.3-1-0.5-1.5-0.6c-0.3,0-0.5,0.1-0.8,0.3
	c-0.1-0.6-0.2-1.2-0.5-1.7c-0.3-0.6-0.4-1.2-0.5-1.8v-0.1c0-0.2,0-0.4,0.1-0.5l0.4-0.1c1.7-0.1,2.5-0.4,2.5-0.9c0-0.1,0-0.2,0-0.3
	c0-0.1-0.1-0.3,0-0.4c0-0.5,0.3-1,0.7-1.4c0.1,0,0.1,0,0.2-0.1c0,0,0.1-0.1,0.2-0.1h0c0.7,0.2,1.3,0.5,1.8,1l0.5-0.5
	c0.1-0.6,0.3-1,0.3-1.2l0.1-0.1c0.3-0.2,0.7-0.3,1.1-0.3c1,0.1,1.9,0.5,2.5,1.3l0.4-0.5c0-0.7,0.2-1.4,0.6-2
	c0.1-0.1,0.3-0.2,0.8-0.2s1.2,0.5,1.9,1.4l0.4-0.4l0.1-0.8c1.1,0.2,1.7,1.2,1.7,3V51c0.5-0.6,1.2-1,1.9-1.1c0.1,0.1,0.1,0.1,0.2,0.1
	h0.5c0.1,0.3,0.1,0.7,0.1,1c0,0.6-0.2,1.2-0.5,1.7c-0.3,0.5-0.4,1.1-0.5,1.6c0,0.3,0.6,0.6,1.7,1s1.7,0.9,1.6,1.5
	c-0.3,1.3-0.8,2.6-1.6,3.7c0.4-0.2,0.9-0.2,1.4-0.1c0.1,0.2,0.2,0.5,0.2,0.8c0,0.6-0.1,1.2-0.4,1.7c-0.2,0.3-0.3,0.6-0.5,0.9
	C554.7,62.9,553.9,62.1,553.1,61.6L553.1,61.6z"/>
<path class="st2" d="M537.2,88.3L537.2,88.3"/>
<path class="st1" d="M594,103.6c-0.4-1.1-0.9-1.6-1.5-1.6c-0.7,0-1,0-1-0.1c-0.1-0.2-0.2-0.5-0.2-0.8V99c-0.1-0.7-0.8-1.3-1.5-1.2
	c0,0,0,0,0,0c-0.8,0-1.6,0.3-2.2,0.9c-0.7,0.6-1.1,0.9-1.3,0.9c-0.3,0-0.5-0.1-0.8-0.2c-0.2-0.1-0.5-0.1-0.7-0.2
	c-0.1,0-0.5,0.2-0.9,0.6c-0.3,0.3-0.6,0.6-1,0.8c-0.1,0-0.5-0.3-1-0.9c-0.3-0.5-0.9-0.8-1.5-0.9c-0.9,0-1.5,0.5-1.9,1.6
	c-0.1,0.4-0.3,0.9-0.4,1.2c-0.1,0.4-0.3,0.8-0.4,1.2c-0.5,0.2-1.1,0.3-1.6,0.4c-0.6,0.5-1,1.2-1.1,2c0,0.6-0.1,1.3-0.3,1.8
	c-0.4,0.1-0.8,0.2-1.2,0.2c-0.5,0.5-0.8,0.9-0.8,1.2c0,0.4,0.1,0.8,0.2,1.1c0.1,0.4,0.2,0.7,0.2,1.1c0,0.3-0.1,0.6-0.3,0.8
	c-0.2,0.2-0.3,0.5-0.3,0.8c0.3,1.2,0.9,2.4,1.6,3.4c0.1,2.7,1.3,5.2,3.2,7c1.9,1.8,4.3,2.8,6.9,2.8c2.8,0.1,5.5-0.9,7.6-2.7
	c2.7-2.7,3.7-6.6,2.6-10.2l0.2-0.1c0-0.4,0-0.8,0.1-1.1c0.1-0.5,0.2-0.9,0.3-1.4s0.2-0.9,0.3-1.4c0.1-0.3,0.1-0.7,0.2-1
	c0-0.6-0.2-1.1-0.5-1.5C594.5,105.4,594.2,104.5,594,103.6z M594.1,111.5c-0.6-1.2-1.3-2.3-2.2-3.2c-1.7-2-3-3-3.8-3
	c-1,0.1-1.9,0.4-2.6,1.1c-0.8,0.7-1.8,1.1-2.9,1.1c-0.4,0-0.9,0-1.7-0.1c-0.8-0.1-1.3-0.1-1.7-0.1c-1.4,0-2.7,0.8-3.8,2.5
	c-0.9,1.4-1.4,3-1.5,4.6c-0.4-0.6-0.7-1.3-0.9-2c0-0.3,0.1-0.6,0.3-0.8c0.2-0.2,0.3-0.5,0.3-0.8c0-0.3-0.1-0.7-0.2-1
	c-0.1-0.4-0.2-0.7-0.2-1.1c0-0.1,0-0.2,0.1-0.3c1.2-0.3,1.8-0.8,2-1.7c0.2-0.8,0.3-1.6,0.5-2.4c1.4-0.1,2.5-1.2,2.6-2.6
	c0.3-1.3,0.9-1.9,1.7-1.9c0.4,0,0.8,0.3,1.4,0.9c0.5,0.6,0.9,0.9,1,0.9s0.8-0.4,1.6-1.3l0.2-0.1c0.3,0,0.5,0,0.8,0.1
	c0.2,0.1,0.5,0.1,0.7,0.1c0.6-0.1,1.1-0.4,1.6-0.8c0.6-0.5,1.3-0.8,2-0.8c0.3,0,0.6,0.1,0.9,0.2c0.1,0.3,0.2,0.7,0.2,1.1v2.2
	c0,0.1,0.1,0.2,0.2,0.3c0.2,0.2,0.4,0.3,0.7,0.3c0.2,0,0.5,0.1,0.8,0.1h0.5c0.2,0.5,0.4,1.1,0.5,1.7c0.1,0.7,0.4,1.4,0.8,1.9
	c0.4,0.4,0.7,1,0.7,1.6C594.7,108,594.5,109.1,594.1,111.5L594.1,111.5z"/>
<path class="st1" d="M590.6,102.1c0-0.1-0.1-0.1-0.1-0.2C590.6,102.2,590.6,102.2,590.6,102.1z"/>
<path class="st1" d="M590.6,101.9v-0.3C590.6,101.7,590.6,101.8,590.6,101.9z"/>
<path class="st1" d="M573.9,39.8l0.2-0.3v53.1h19.1V38.2l0.4-0.4c0.1-1.3-0.3-2.5-1.3-3.3c0.3-0.5,0.4-1.1,0.4-1.7
	c0-1.1-0.4-1.7-1.2-1.9c0-0.9-0.4-1.8-1-2.4c0.2-0.4,0.3-0.8,0.3-1.2c-0.1-0.6-0.2-1.2-0.5-1.7c-0.6-0.7-1-1-1.4-1
	c-0.1,0-0.2,0-0.3,0.1c0-0.8-0.2-1.5-0.5-2.3c-0.4-1.1-0.9-1.6-1.4-1.6c-0.1,0-0.2,0-0.3,0.1c-0.3-0.9-0.9-1.6-1.7-2
	c-0.1,0.1-0.5,0-1-0.2c-0.3-0.2-0.7-0.3-1-0.3c-0.5,0.1-1,0.3-1.4,0.7c-0.4,0.3-0.7,0.7-0.8,1.2c0,0.3,0.1,0.6,0.2,0.9
	c0.1,0.3,0.2,0.5,0.2,0.8c0,0.3-0.7,1-2.2,2.3c-1.4,1.2-2.2,2.3-2.4,3.2c-0.9,0.4-1.3,0.9-1.3,1.5v1.4c-2.4,1.1-3.9,3.5-3.7,6.2
	c0,1,0.2,1.6,0.8,1.8c0.5,0.3,1,0.6,1.6,0.8C573.8,39.3,573.8,39.6,573.9,39.8z M572,36.4c0-1.7,0.5-3.4,1.5-4.8
	c0.6-0.2,1.1-0.5,1.6-0.8c0.5-0.2,0.8-0.8,0.8-1.3v-1.2l0.6-0.3l0.4-0.5c0-1,0.8-2.1,2.3-3.2c1.5-1.1,2.3-2,2.4-2.5
	c0-0.3-0.1-0.6-0.3-0.8c-0.1-0.3-0.2-0.6-0.3-0.9c0-0.7,0.4-1,1.2-1c0.4,0,0.7,0.2,1,0.3c0.3,0.2,0.6,0.3,0.9,0.3h0.1
	c0.8,0.6,1.2,1.4,1.3,2.4c0.2-0.3,0.5-0.4,0.9-0.4c0.7,0,1.1,1.1,1.1,3.2c0,0.5,0,1-0.1,1.5l1-0.9l0.2-0.1c0.9,0,1.4,0.7,1.4,2
	c0,0.5-0.4,1.2-1.3,2c0.4-0.2,0.8-0.3,1.3-0.3c0.1,0,0.2,0,0.3,0.1c0.3,0.7,0.5,1.6,0.5,2.4c0.2-0.1,0.5-0.2,0.8-0.1
	c0.1,0.3,0.2,0.7,0.2,1.1c0,1.2-0.4,2.3-1.3,3.1c0.5-0.2,1-0.4,1.5-0.5h0.2c0.4,0.9,0.6,1.9,0.5,2.9c-1,0.5-2,0.9-3,1.2
	c-0.8,0.3-1.7,0.4-2.6,0.4c-1.5,0-2.8-1-4-3c-1.2-2-2.3-3-3.3-3.1c-2.1,0-3.9,1.7-5.5,5.2c-0.6-0.5-1.3-0.8-2-1
	C572.2,37.3,572,36.8,572,36.4z"/>
</svg>
